%FSLAX45Y45*%
G04 Gerber Fmt 4.5, Leading zero omitted, Abs format (unit mm)*
G04 Created by KiCad (PCBNEW 4.0.6) date 08/24/17 17:14:58*
%MOMM*%
%LPD*%
G01*
G04 APERTURE LIST*
%ADD10C,0.127000*%
%ADD11C,1.800000*%
%ADD12C,1.000000*%
%ADD13C,0.150000*%
%ADD14C,0.200000*%
%ADD15C,0.300000*%
G04 APERTURE END LIST*
D10*
D11*
X15404000Y-13204000D02*
X16605000Y-13204000D01*
D12*
X18448000Y-12418000D02*
X17187000Y-12418000D01*
X18448000Y-11131000D02*
X17187000Y-11131000D01*
D13*
X17180000Y-11173000D02*
X17180000Y-12374000D01*
X17181000Y-12460000D02*
X17181000Y-13661000D01*
X18440000Y-9887000D02*
X18440000Y-11087000D01*
X17182000Y-9886400D02*
X18439800Y-9886400D01*
X17182000Y-11087200D02*
X18439800Y-11087200D01*
X18439000Y-11173000D02*
X18439000Y-12374000D01*
X17180000Y-11173200D02*
X18438800Y-11173200D01*
X17180000Y-12374200D02*
X18438800Y-12374200D01*
X17182000Y-9886200D02*
X17182000Y-11087200D01*
X17130000Y-9887000D02*
X17130000Y-13661000D01*
X16600000Y-13283000D02*
X15399000Y-13283000D01*
X15399000Y-13123000D02*
X16600000Y-13123000D01*
X16600000Y-13123000D02*
X16600000Y-13283000D01*
X15399000Y-13123000D02*
X15399000Y-13283000D01*
X18439800Y-12460000D02*
X17180800Y-12460000D01*
X18439800Y-13642000D02*
X18439800Y-12460000D01*
X18439800Y-13661000D02*
X18439800Y-13642000D01*
X17180800Y-13661000D02*
X18439800Y-13661000D01*
X12128000Y-13661000D02*
X12128000Y-9886000D01*
X17130000Y-13661000D02*
X12130000Y-13661000D01*
X12129000Y-9886000D02*
X17129000Y-9886000D01*
D14*
X12893000Y-10780000D02*
X12933000Y-10820000D01*
X12933000Y-10780000D02*
X12893000Y-10820000D01*
X13001000Y-10705000D02*
X13041000Y-10745000D01*
X13041000Y-10705000D02*
X13001000Y-10745000D01*
X13329000Y-11639000D02*
X13369000Y-11679000D01*
X13369000Y-11639000D02*
X13329000Y-11679000D01*
X13340000Y-11495000D02*
X13380000Y-11535000D01*
X13380000Y-11495000D02*
X13340000Y-11535000D01*
X13383000Y-10760000D02*
X13423000Y-10800000D01*
X13423000Y-10760000D02*
X13383000Y-10800000D01*
X13390000Y-11694000D02*
X13430000Y-11734000D01*
X13430000Y-11694000D02*
X13390000Y-11734000D01*
X13616000Y-13392000D02*
X13656000Y-13432000D01*
X13656000Y-13392000D02*
X13616000Y-13432000D01*
X13621000Y-13008000D02*
X13661000Y-13048000D01*
X13661000Y-13008000D02*
X13621000Y-13048000D01*
X13684000Y-11244000D02*
X13724000Y-11284000D01*
X13724000Y-11244000D02*
X13684000Y-11284000D01*
X13743000Y-10729000D02*
X13783000Y-10769000D01*
X13783000Y-10729000D02*
X13743000Y-10769000D01*
X14104000Y-13129000D02*
X14144000Y-13169000D01*
X14144000Y-13129000D02*
X14104000Y-13169000D01*
X14813000Y-13269000D02*
X14853000Y-13309000D01*
X14853000Y-13269000D02*
X14813000Y-13309000D01*
X14834000Y-11173000D02*
X14874000Y-11213000D01*
X14874000Y-11173000D02*
X14834000Y-11213000D01*
X14836000Y-10319000D02*
X14876000Y-10359000D01*
X14876000Y-10319000D02*
X14836000Y-10359000D01*
X14881000Y-12975000D02*
X14921000Y-13015000D01*
X14921000Y-12975000D02*
X14881000Y-13015000D01*
X14894000Y-10703000D02*
X14934000Y-10743000D01*
X14934000Y-10703000D02*
X14894000Y-10743000D01*
X14996000Y-11815000D02*
X15036000Y-11855000D01*
X15036000Y-11815000D02*
X14996000Y-11855000D01*
X15012000Y-12494000D02*
X15052000Y-12534000D01*
X15052000Y-12494000D02*
X15012000Y-12534000D01*
X15071000Y-12822000D02*
X15111000Y-12862000D01*
X15111000Y-12822000D02*
X15071000Y-12862000D01*
X15087000Y-10440000D02*
X15127000Y-10480000D01*
X15127000Y-10440000D02*
X15087000Y-10480000D01*
X15090000Y-11546000D02*
X15130000Y-11586000D01*
X15130000Y-11546000D02*
X15090000Y-11586000D01*
X15095000Y-13056000D02*
X15135000Y-13096000D01*
X15135000Y-13056000D02*
X15095000Y-13096000D01*
X15111000Y-12287000D02*
X15151000Y-12327000D01*
X15151000Y-12287000D02*
X15111000Y-12327000D01*
X15149000Y-12933000D02*
X15189000Y-12973000D01*
X15189000Y-12933000D02*
X15149000Y-12973000D01*
X15304000Y-10528000D02*
X15344000Y-10568000D01*
X15344000Y-10528000D02*
X15304000Y-10568000D01*
X15342000Y-13024000D02*
X15382000Y-13064000D01*
X15382000Y-13024000D02*
X15342000Y-13064000D01*
X15344000Y-11015000D02*
X15384000Y-11055000D01*
X15384000Y-11015000D02*
X15344000Y-11055000D01*
X15362000Y-11328000D02*
X15402000Y-11368000D01*
X15402000Y-11328000D02*
X15362000Y-11368000D01*
X15430000Y-11011000D02*
X15470000Y-11051000D01*
X15470000Y-11011000D02*
X15430000Y-11051000D01*
X15578000Y-11895000D02*
X15618000Y-11935000D01*
X15618000Y-11895000D02*
X15578000Y-11935000D01*
X15619000Y-12608000D02*
X15659000Y-12648000D01*
X15659000Y-12608000D02*
X15619000Y-12648000D01*
X15650000Y-10866000D02*
X15690000Y-10906000D01*
X15690000Y-10866000D02*
X15650000Y-10906000D01*
X15652000Y-11720000D02*
X15692000Y-11760000D01*
X15692000Y-11720000D02*
X15652000Y-11760000D01*
X15664000Y-11284000D02*
X15704000Y-11324000D01*
X15704000Y-11284000D02*
X15664000Y-11324000D01*
X15678000Y-11904000D02*
X15718000Y-11944000D01*
X15718000Y-11904000D02*
X15678000Y-11944000D01*
X15705000Y-12709000D02*
X15745000Y-12749000D01*
X15745000Y-12709000D02*
X15705000Y-12749000D01*
X15750000Y-11050000D02*
X15790000Y-11090000D01*
X15790000Y-11050000D02*
X15750000Y-11090000D01*
X15815000Y-11167000D02*
X15855000Y-11207000D01*
X15855000Y-11167000D02*
X15815000Y-11207000D01*
X15839000Y-11316000D02*
X15879000Y-11356000D01*
X15879000Y-11316000D02*
X15839000Y-11356000D01*
X15980000Y-13537000D02*
X16020000Y-13577000D01*
X16020000Y-13537000D02*
X15980000Y-13577000D01*
X16064000Y-11601000D02*
X16104000Y-11641000D01*
X16104000Y-11601000D02*
X16064000Y-11641000D01*
X16182000Y-12828000D02*
X16222000Y-12868000D01*
X16222000Y-12828000D02*
X16182000Y-12868000D01*
X16342000Y-11091000D02*
X16382000Y-11131000D01*
X16382000Y-11091000D02*
X16342000Y-11131000D01*
X16422000Y-12332000D02*
X16462000Y-12372000D01*
X16462000Y-12332000D02*
X16422000Y-12372000D01*
X16587000Y-11745000D02*
X16627000Y-11785000D01*
X16627000Y-11745000D02*
X16587000Y-11785000D01*
X16936000Y-10909000D02*
G75*
G03X16936000Y-10909000I-25000J0D01*
G01*
X16943500Y-10894000D02*
X16878500Y-10894000D01*
X16943500Y-10924000D02*
X16878500Y-10924000D01*
X16878500Y-10894000D02*
G75*
G03X16878500Y-10924000I0J-15000D01*
G01*
X16943500Y-10924000D02*
G75*
G03X16943500Y-10894000I0J15000D01*
G01*
X16936000Y-11609000D02*
G75*
G03X16936000Y-11609000I-25000J0D01*
G01*
X16943500Y-11594000D02*
X16878500Y-11594000D01*
X16943500Y-11624000D02*
X16878500Y-11624000D01*
X16878500Y-11594000D02*
G75*
G03X16878500Y-11624000I0J-15000D01*
G01*
X16943500Y-11624000D02*
G75*
G03X16943500Y-11594000I0J15000D01*
G01*
X16641000Y-10981500D02*
X16641000Y-11036500D01*
X16613500Y-11009000D02*
X16668500Y-11009000D01*
X16658500Y-11024000D02*
X16658500Y-10994000D01*
X16623500Y-11024000D02*
X16623500Y-10994000D01*
X16658500Y-10994000D02*
G75*
G03X16623500Y-10994000I-17500J0D01*
G01*
X16623500Y-11024000D02*
G75*
G03X16658500Y-11024000I17500J0D01*
G01*
X16641000Y-11481500D02*
X16641000Y-11536500D01*
X16613500Y-11509000D02*
X16668500Y-11509000D01*
X16658500Y-11524000D02*
X16658500Y-11494000D01*
X16623500Y-11524000D02*
X16623500Y-11494000D01*
X16658500Y-11494000D02*
G75*
G03X16623500Y-11494000I-17500J0D01*
G01*
X16623500Y-11524000D02*
G75*
G03X16658500Y-11524000I17500J0D01*
G01*
X17610213Y-11295213D02*
X17610213Y-11252787D01*
X17567787Y-11252787D01*
X17567787Y-11295213D01*
X17610213Y-11295213D01*
X17634000Y-11254000D02*
X17544000Y-11254000D01*
X17634000Y-11294000D02*
X17544000Y-11294000D01*
X17544000Y-11254000D02*
G75*
G03X17544000Y-11294000I0J-20000D01*
G01*
X17634000Y-11294000D02*
G75*
G03X17634000Y-11254000I0J20000D01*
G01*
X17610213Y-11545213D02*
X17610213Y-11502787D01*
X17567787Y-11502787D01*
X17567787Y-11545213D01*
X17610213Y-11545213D01*
X17634000Y-11504000D02*
X17544000Y-11504000D01*
X17634000Y-11544000D02*
X17544000Y-11544000D01*
X17544000Y-11504000D02*
G75*
G03X17544000Y-11544000I0J-20000D01*
G01*
X17634000Y-11544000D02*
G75*
G03X17634000Y-11504000I0J20000D01*
G01*
X17610213Y-12045213D02*
X17610213Y-12002787D01*
X17567787Y-12002787D01*
X17567787Y-12045213D01*
X17610213Y-12045213D01*
X17634000Y-12004000D02*
X17544000Y-12004000D01*
X17634000Y-12044000D02*
X17544000Y-12044000D01*
X17544000Y-12004000D02*
G75*
G03X17544000Y-12044000I0J-20000D01*
G01*
X17634000Y-12044000D02*
G75*
G03X17634000Y-12004000I0J20000D01*
G01*
X17610213Y-12295213D02*
X17610213Y-12252787D01*
X17567787Y-12252787D01*
X17567787Y-12295213D01*
X17610213Y-12295213D01*
X17634000Y-12254000D02*
X17544000Y-12254000D01*
X17634000Y-12294000D02*
X17544000Y-12294000D01*
X17544000Y-12254000D02*
G75*
G03X17544000Y-12294000I0J-20000D01*
G01*
X17634000Y-12294000D02*
G75*
G03X17634000Y-12254000I0J20000D01*
G01*
X17611213Y-10008213D02*
X17611213Y-9965787D01*
X17568787Y-9965787D01*
X17568787Y-10008213D01*
X17611213Y-10008213D01*
X17635000Y-9967000D02*
X17545000Y-9967000D01*
X17635000Y-10007000D02*
X17545000Y-10007000D01*
X17545000Y-9967000D02*
G75*
G03X17545000Y-10007000I0J-20000D01*
G01*
X17635000Y-10007000D02*
G75*
G03X17635000Y-9967000I0J20000D01*
G01*
X17611213Y-10258213D02*
X17611213Y-10215787D01*
X17568787Y-10215787D01*
X17568787Y-10258213D01*
X17611213Y-10258213D01*
X17635000Y-10217000D02*
X17545000Y-10217000D01*
X17635000Y-10257000D02*
X17545000Y-10257000D01*
X17545000Y-10217000D02*
G75*
G03X17545000Y-10257000I0J-20000D01*
G01*
X17635000Y-10257000D02*
G75*
G03X17635000Y-10217000I0J20000D01*
G01*
X17611213Y-10758213D02*
X17611213Y-10715787D01*
X17568787Y-10715787D01*
X17568787Y-10758213D01*
X17611213Y-10758213D01*
X17635000Y-10717000D02*
X17545000Y-10717000D01*
X17635000Y-10757000D02*
X17545000Y-10757000D01*
X17545000Y-10717000D02*
G75*
G03X17545000Y-10757000I0J-20000D01*
G01*
X17635000Y-10757000D02*
G75*
G03X17635000Y-10717000I0J20000D01*
G01*
X17611213Y-11008213D02*
X17611213Y-10965787D01*
X17568787Y-10965787D01*
X17568787Y-11008213D01*
X17611213Y-11008213D01*
X17635000Y-10967000D02*
X17545000Y-10967000D01*
X17635000Y-11007000D02*
X17545000Y-11007000D01*
X17545000Y-10967000D02*
G75*
G03X17545000Y-11007000I0J-20000D01*
G01*
X17635000Y-11007000D02*
G75*
G03X17635000Y-10967000I0J20000D01*
G01*
X17611213Y-12581213D02*
X17611213Y-12538787D01*
X17568787Y-12538787D01*
X17568787Y-12581213D01*
X17611213Y-12581213D01*
X17635000Y-12540000D02*
X17545000Y-12540000D01*
X17635000Y-12580000D02*
X17545000Y-12580000D01*
X17545000Y-12540000D02*
G75*
G03X17545000Y-12580000I0J-20000D01*
G01*
X17635000Y-12580000D02*
G75*
G03X17635000Y-12540000I0J20000D01*
G01*
X17611213Y-12831213D02*
X17611213Y-12788787D01*
X17568787Y-12788787D01*
X17568787Y-12831213D01*
X17611213Y-12831213D01*
X17635000Y-12790000D02*
X17545000Y-12790000D01*
X17635000Y-12830000D02*
X17545000Y-12830000D01*
X17545000Y-12790000D02*
G75*
G03X17545000Y-12830000I0J-20000D01*
G01*
X17635000Y-12830000D02*
G75*
G03X17635000Y-12790000I0J20000D01*
G01*
X17611213Y-13331213D02*
X17611213Y-13288787D01*
X17568787Y-13288787D01*
X17568787Y-13331213D01*
X17611213Y-13331213D01*
X17635000Y-13290000D02*
X17545000Y-13290000D01*
X17635000Y-13330000D02*
X17545000Y-13330000D01*
X17545000Y-13290000D02*
G75*
G03X17545000Y-13330000I0J-20000D01*
G01*
X17635000Y-13330000D02*
G75*
G03X17635000Y-13290000I0J20000D01*
G01*
X17611213Y-13581213D02*
X17611213Y-13538787D01*
X17568787Y-13538787D01*
X17568787Y-13581213D01*
X17611213Y-13581213D01*
X17635000Y-13540000D02*
X17545000Y-13540000D01*
X17635000Y-13580000D02*
X17545000Y-13580000D01*
X17545000Y-13540000D02*
G75*
G03X17545000Y-13580000I0J-20000D01*
G01*
X17635000Y-13580000D02*
G75*
G03X17635000Y-13540000I0J20000D01*
G01*
X18110213Y-11795213D02*
X18110213Y-11752787D01*
X18067787Y-11752787D01*
X18067787Y-11795213D01*
X18110213Y-11795213D01*
X18069000Y-11729000D02*
X18069000Y-11819000D01*
X18109000Y-11729000D02*
X18109000Y-11819000D01*
X18069000Y-11819000D02*
G75*
G03X18109000Y-11819000I20000J0D01*
G01*
X18109000Y-11729000D02*
G75*
G03X18069000Y-11729000I-20000J0D01*
G01*
X18111213Y-10508213D02*
X18111213Y-10465787D01*
X18068787Y-10465787D01*
X18068787Y-10508213D01*
X18111213Y-10508213D01*
X18070000Y-10442000D02*
X18070000Y-10532000D01*
X18110000Y-10442000D02*
X18110000Y-10532000D01*
X18070000Y-10532000D02*
G75*
G03X18110000Y-10532000I20000J0D01*
G01*
X18110000Y-10442000D02*
G75*
G03X18070000Y-10442000I-20000J0D01*
G01*
X18111213Y-13081213D02*
X18111213Y-13038787D01*
X18068787Y-13038787D01*
X18068787Y-13081213D01*
X18111213Y-13081213D01*
X18070000Y-13015000D02*
X18070000Y-13105000D01*
X18110000Y-13015000D02*
X18110000Y-13105000D01*
X18070000Y-13105000D02*
G75*
G03X18110000Y-13105000I20000J0D01*
G01*
X18110000Y-13015000D02*
G75*
G03X18070000Y-13015000I-20000J0D01*
G01*
X15218000Y-10346100D02*
X15256100Y-10308000D01*
X15218000Y-10269900D01*
X15179900Y-10308000D01*
X15218000Y-10346100D01*
X15218000Y-12146100D02*
X15256100Y-12108000D01*
X15218000Y-12069900D01*
X15179900Y-12108000D01*
X15218000Y-12146100D01*
X15472000Y-10346100D02*
X15510100Y-10308000D01*
X15472000Y-10269900D01*
X15433900Y-10308000D01*
X15472000Y-10346100D01*
X15472000Y-12146100D02*
X15510100Y-12108000D01*
X15472000Y-12069900D01*
X15433900Y-12108000D01*
X15472000Y-12146100D01*
X15726000Y-10346100D02*
X15764100Y-10308000D01*
X15726000Y-10269900D01*
X15687900Y-10308000D01*
X15726000Y-10346100D01*
X15726000Y-12146100D02*
X15764100Y-12108000D01*
X15726000Y-12069900D01*
X15687900Y-12108000D01*
X15726000Y-12146100D01*
X15980000Y-10346100D02*
X16018100Y-10308000D01*
X15980000Y-10269900D01*
X15941900Y-10308000D01*
X15980000Y-10346100D01*
X15980000Y-12146100D02*
X16018100Y-12108000D01*
X15980000Y-12069900D01*
X15941900Y-12108000D01*
X15980000Y-12146100D01*
X16234000Y-10346100D02*
X16272100Y-10308000D01*
X16234000Y-10269900D01*
X16195900Y-10308000D01*
X16234000Y-10346100D01*
X16234000Y-12146100D02*
X16272100Y-12108000D01*
X16234000Y-12069900D01*
X16195900Y-12108000D01*
X16234000Y-12146100D01*
X16488000Y-10346100D02*
X16526100Y-10308000D01*
X16488000Y-10269900D01*
X16449900Y-10308000D01*
X16488000Y-10346100D01*
X16488000Y-12146100D02*
X16526100Y-12108000D01*
X16488000Y-12069900D01*
X16449900Y-12108000D01*
X16488000Y-12146100D01*
X16742000Y-10346100D02*
X16780100Y-10308000D01*
X16742000Y-10269900D01*
X16703900Y-10308000D01*
X16742000Y-10346100D01*
X16742000Y-12146100D02*
X16780100Y-12108000D01*
X16742000Y-12069900D01*
X16703900Y-12108000D01*
X16742000Y-12146100D01*
X16996000Y-10346100D02*
X17034100Y-10308000D01*
X16996000Y-10269900D01*
X16957900Y-10308000D01*
X16996000Y-10346100D01*
X16996000Y-12146100D02*
X17034100Y-12108000D01*
X16996000Y-12069900D01*
X16957900Y-12108000D01*
X16996000Y-12146100D01*
X12705000Y-12228000D02*
X12805000Y-12328000D01*
X12805000Y-12228000D02*
X12705000Y-12328000D01*
X12805000Y-12278000D02*
G75*
G03X12805000Y-12278000I-50000J0D01*
G01*
X12705000Y-12482000D02*
X12805000Y-12582000D01*
X12805000Y-12482000D02*
X12705000Y-12582000D01*
X12805000Y-12532000D02*
G75*
G03X12805000Y-12532000I-50000J0D01*
G01*
X12705000Y-12736000D02*
X12805000Y-12836000D01*
X12805000Y-12736000D02*
X12705000Y-12836000D01*
X12805000Y-12786000D02*
G75*
G03X12805000Y-12786000I-50000J0D01*
G01*
X12705000Y-12990000D02*
X12805000Y-13090000D01*
X12805000Y-12990000D02*
X12705000Y-13090000D01*
X12805000Y-13040000D02*
G75*
G03X12805000Y-13040000I-50000J0D01*
G01*
X12959000Y-12228000D02*
X13059000Y-12328000D01*
X13059000Y-12228000D02*
X12959000Y-12328000D01*
X13059000Y-12278000D02*
G75*
G03X13059000Y-12278000I-50000J0D01*
G01*
X12959000Y-12482000D02*
X13059000Y-12582000D01*
X13059000Y-12482000D02*
X12959000Y-12582000D01*
X13059000Y-12532000D02*
G75*
G03X13059000Y-12532000I-50000J0D01*
G01*
X12959000Y-12736000D02*
X13059000Y-12836000D01*
X13059000Y-12736000D02*
X12959000Y-12836000D01*
X13059000Y-12786000D02*
G75*
G03X13059000Y-12786000I-50000J0D01*
G01*
X12959000Y-12990000D02*
X13059000Y-13090000D01*
X13059000Y-12990000D02*
X12959000Y-13090000D01*
X13059000Y-13040000D02*
G75*
G03X13059000Y-13040000I-50000J0D01*
G01*
X13897000Y-10430000D02*
X13997000Y-10530000D01*
X13997000Y-10430000D02*
X13897000Y-10530000D01*
X13997000Y-10480000D02*
G75*
G03X13997000Y-10480000I-50000J0D01*
G01*
X13897000Y-11630000D02*
X13997000Y-11730000D01*
X13997000Y-11630000D02*
X13897000Y-11730000D01*
X13997000Y-11680000D02*
G75*
G03X13997000Y-11680000I-50000J0D01*
G01*
X14223000Y-11984000D02*
X14323000Y-12084000D01*
X14323000Y-11984000D02*
X14223000Y-12084000D01*
X14323000Y-12034000D02*
G75*
G03X14323000Y-12034000I-50000J0D01*
G01*
X14227000Y-12351000D02*
X14327000Y-12451000D01*
X14327000Y-12351000D02*
X14227000Y-12451000D01*
X14327000Y-12401000D02*
G75*
G03X14327000Y-12401000I-50000J0D01*
G01*
X14227000Y-12605000D02*
X14327000Y-12705000D01*
X14327000Y-12605000D02*
X14227000Y-12705000D01*
X14327000Y-12655000D02*
G75*
G03X14327000Y-12655000I-50000J0D01*
G01*
X14386000Y-10082000D02*
X14486000Y-10182000D01*
X14486000Y-10082000D02*
X14386000Y-10182000D01*
X14486000Y-10132000D02*
G75*
G03X14486000Y-10132000I-50000J0D01*
G01*
X14477000Y-11984000D02*
X14577000Y-12084000D01*
X14577000Y-11984000D02*
X14477000Y-12084000D01*
X14577000Y-12034000D02*
G75*
G03X14577000Y-12034000I-50000J0D01*
G01*
X14481000Y-12351000D02*
X14581000Y-12451000D01*
X14581000Y-12351000D02*
X14481000Y-12451000D01*
X14581000Y-12401000D02*
G75*
G03X14581000Y-12401000I-50000J0D01*
G01*
X14481000Y-12605000D02*
X14581000Y-12705000D01*
X14581000Y-12605000D02*
X14481000Y-12705000D01*
X14581000Y-12655000D02*
G75*
G03X14581000Y-12655000I-50000J0D01*
G01*
X14640000Y-10082000D02*
X14740000Y-10182000D01*
X14740000Y-10082000D02*
X14640000Y-10182000D01*
X14740000Y-10132000D02*
G75*
G03X14740000Y-10132000I-50000J0D01*
G01*
X14731000Y-11984000D02*
X14831000Y-12084000D01*
X14831000Y-11984000D02*
X14731000Y-12084000D01*
X14831000Y-12034000D02*
G75*
G03X14831000Y-12034000I-50000J0D01*
G01*
X14735000Y-12351000D02*
X14835000Y-12451000D01*
X14835000Y-12351000D02*
X14735000Y-12451000D01*
X14835000Y-12401000D02*
G75*
G03X14835000Y-12401000I-50000J0D01*
G01*
X14735000Y-12605000D02*
X14835000Y-12705000D01*
X14835000Y-12605000D02*
X14735000Y-12705000D01*
X14835000Y-12655000D02*
G75*
G03X14835000Y-12655000I-50000J0D01*
G01*
X14894000Y-10082000D02*
X14994000Y-10182000D01*
X14994000Y-10082000D02*
X14894000Y-10182000D01*
X14994000Y-10132000D02*
G75*
G03X14994000Y-10132000I-50000J0D01*
G01*
X14985000Y-11984000D02*
X15085000Y-12084000D01*
X15085000Y-11984000D02*
X14985000Y-12084000D01*
X15085000Y-12034000D02*
G75*
G03X15085000Y-12034000I-50000J0D01*
G01*
X14507000Y-10510000D02*
X14617000Y-10620000D01*
X14617000Y-10510000D02*
X14507000Y-10620000D01*
X14562000Y-10510000D02*
X14562000Y-10620000D01*
X14507000Y-10565000D02*
X14617000Y-10565000D01*
X14507000Y-11526000D02*
X14617000Y-11636000D01*
X14617000Y-11526000D02*
X14507000Y-11636000D01*
X14562000Y-11526000D02*
X14562000Y-11636000D01*
X14507000Y-11581000D02*
X14617000Y-11581000D01*
X12657000Y-10410000D02*
X12787000Y-10540000D01*
X12787000Y-10410000D02*
X12657000Y-10540000D01*
X12767962Y-10520962D02*
X12767962Y-10429038D01*
X12676038Y-10429038D01*
X12676038Y-10520962D01*
X12767962Y-10520962D01*
X12662000Y-11615000D02*
X12792000Y-11745000D01*
X12792000Y-11615000D02*
X12662000Y-11745000D01*
X12772962Y-11725962D02*
X12772962Y-11634038D01*
X12681038Y-11634038D01*
X12681038Y-11725962D01*
X12772962Y-11725962D01*
X14077000Y-11010000D02*
X14207000Y-11140000D01*
X14207000Y-11010000D02*
X14077000Y-11140000D01*
X14187962Y-11120962D02*
X14187962Y-11029038D01*
X14096038Y-11029038D01*
X14096038Y-11120962D01*
X14187962Y-11120962D01*
D15*
X12391928Y-14134214D02*
X12391928Y-13834214D01*
X12463357Y-13834214D01*
X12506214Y-13848500D01*
X12534786Y-13877071D01*
X12549071Y-13905643D01*
X12563357Y-13962786D01*
X12563357Y-14005643D01*
X12549071Y-14062786D01*
X12534786Y-14091357D01*
X12506214Y-14119929D01*
X12463357Y-14134214D01*
X12391928Y-14134214D01*
X12691928Y-14134214D02*
X12691928Y-13934214D01*
X12691928Y-13991357D02*
X12706214Y-13962786D01*
X12720500Y-13948500D01*
X12749071Y-13934214D01*
X12777643Y-13934214D01*
X12877643Y-14134214D02*
X12877643Y-13934214D01*
X12877643Y-13834214D02*
X12863357Y-13848500D01*
X12877643Y-13862786D01*
X12891928Y-13848500D01*
X12877643Y-13834214D01*
X12877643Y-13862786D01*
X13063357Y-14134214D02*
X13034786Y-14119929D01*
X13020500Y-14091357D01*
X13020500Y-13834214D01*
X13220500Y-14134214D02*
X13191928Y-14119929D01*
X13177643Y-14091357D01*
X13177643Y-13834214D01*
X13563357Y-14134214D02*
X13563357Y-13834214D01*
X13663357Y-14048500D01*
X13763357Y-13834214D01*
X13763357Y-14134214D01*
X14034786Y-14134214D02*
X14034786Y-13977071D01*
X14020500Y-13948500D01*
X13991928Y-13934214D01*
X13934786Y-13934214D01*
X13906214Y-13948500D01*
X14034786Y-14119929D02*
X14006214Y-14134214D01*
X13934786Y-14134214D01*
X13906214Y-14119929D01*
X13891928Y-14091357D01*
X13891928Y-14062786D01*
X13906214Y-14034214D01*
X13934786Y-14019929D01*
X14006214Y-14019929D01*
X14034786Y-14005643D01*
X14177643Y-13934214D02*
X14177643Y-14234214D01*
X14177643Y-13948500D02*
X14206214Y-13934214D01*
X14263357Y-13934214D01*
X14291928Y-13948500D01*
X14306214Y-13962786D01*
X14320500Y-13991357D01*
X14320500Y-14077071D01*
X14306214Y-14105643D01*
X14291928Y-14119929D01*
X14263357Y-14134214D01*
X14206214Y-14134214D01*
X14177643Y-14119929D01*
X14449071Y-14105643D02*
X14463357Y-14119929D01*
X14449071Y-14134214D01*
X14434786Y-14119929D01*
X14449071Y-14105643D01*
X14449071Y-14134214D01*
X14449071Y-13948500D02*
X14463357Y-13962786D01*
X14449071Y-13977071D01*
X14434786Y-13962786D01*
X14449071Y-13948500D01*
X14449071Y-13977071D01*
X12080500Y-14608500D02*
X12120500Y-14648500D01*
X12120500Y-14608500D02*
X12080500Y-14648500D01*
X12449071Y-14464214D02*
X12477643Y-14464214D01*
X12506214Y-14478500D01*
X12520500Y-14492786D01*
X12534786Y-14521357D01*
X12549071Y-14578500D01*
X12549071Y-14649929D01*
X12534786Y-14707071D01*
X12520500Y-14735643D01*
X12506214Y-14749929D01*
X12477643Y-14764214D01*
X12449071Y-14764214D01*
X12420500Y-14749929D01*
X12406214Y-14735643D01*
X12391928Y-14707071D01*
X12377643Y-14649929D01*
X12377643Y-14578500D01*
X12391928Y-14521357D01*
X12406214Y-14492786D01*
X12420500Y-14478500D01*
X12449071Y-14464214D01*
X12677643Y-14735643D02*
X12691928Y-14749929D01*
X12677643Y-14764214D01*
X12663357Y-14749929D01*
X12677643Y-14735643D01*
X12677643Y-14764214D01*
X12949071Y-14564214D02*
X12949071Y-14764214D01*
X12877643Y-14449929D02*
X12806214Y-14664214D01*
X12991928Y-14664214D01*
X13163357Y-14464214D02*
X13191928Y-14464214D01*
X13220500Y-14478500D01*
X13234786Y-14492786D01*
X13249071Y-14521357D01*
X13263357Y-14578500D01*
X13263357Y-14649929D01*
X13249071Y-14707071D01*
X13234786Y-14735643D01*
X13220500Y-14749929D01*
X13191928Y-14764214D01*
X13163357Y-14764214D01*
X13134786Y-14749929D01*
X13120500Y-14735643D01*
X13106214Y-14707071D01*
X13091928Y-14649929D01*
X13091928Y-14578500D01*
X13106214Y-14521357D01*
X13120500Y-14492786D01*
X13134786Y-14478500D01*
X13163357Y-14464214D01*
X13391928Y-14764214D02*
X13391928Y-14564214D01*
X13391928Y-14592786D02*
X13406214Y-14578500D01*
X13434786Y-14564214D01*
X13477643Y-14564214D01*
X13506214Y-14578500D01*
X13520500Y-14607071D01*
X13520500Y-14764214D01*
X13520500Y-14607071D02*
X13534786Y-14578500D01*
X13563357Y-14564214D01*
X13606214Y-14564214D01*
X13634786Y-14578500D01*
X13649071Y-14607071D01*
X13649071Y-14764214D01*
X13791928Y-14764214D02*
X13791928Y-14564214D01*
X13791928Y-14592786D02*
X13806214Y-14578500D01*
X13834786Y-14564214D01*
X13877643Y-14564214D01*
X13906214Y-14578500D01*
X13920500Y-14607071D01*
X13920500Y-14764214D01*
X13920500Y-14607071D02*
X13934786Y-14578500D01*
X13963357Y-14564214D01*
X14006214Y-14564214D01*
X14034786Y-14578500D01*
X14049071Y-14607071D01*
X14049071Y-14764214D01*
X14634786Y-14449929D02*
X14377643Y-14835643D01*
X15020500Y-14464214D02*
X15049071Y-14464214D01*
X15077643Y-14478500D01*
X15091928Y-14492786D01*
X15106214Y-14521357D01*
X15120500Y-14578500D01*
X15120500Y-14649929D01*
X15106214Y-14707071D01*
X15091928Y-14735643D01*
X15077643Y-14749929D01*
X15049071Y-14764214D01*
X15020500Y-14764214D01*
X14991928Y-14749929D01*
X14977643Y-14735643D01*
X14963357Y-14707071D01*
X14949071Y-14649929D01*
X14949071Y-14578500D01*
X14963357Y-14521357D01*
X14977643Y-14492786D01*
X14991928Y-14478500D01*
X15020500Y-14464214D01*
X15249071Y-14735643D02*
X15263357Y-14749929D01*
X15249071Y-14764214D01*
X15234786Y-14749929D01*
X15249071Y-14735643D01*
X15249071Y-14764214D01*
X15449071Y-14464214D02*
X15477643Y-14464214D01*
X15506214Y-14478500D01*
X15520500Y-14492786D01*
X15534785Y-14521357D01*
X15549071Y-14578500D01*
X15549071Y-14649929D01*
X15534785Y-14707071D01*
X15520500Y-14735643D01*
X15506214Y-14749929D01*
X15477643Y-14764214D01*
X15449071Y-14764214D01*
X15420500Y-14749929D01*
X15406214Y-14735643D01*
X15391928Y-14707071D01*
X15377643Y-14649929D01*
X15377643Y-14578500D01*
X15391928Y-14521357D01*
X15406214Y-14492786D01*
X15420500Y-14478500D01*
X15449071Y-14464214D01*
X15834785Y-14764214D02*
X15663357Y-14764214D01*
X15749071Y-14764214D02*
X15749071Y-14464214D01*
X15720500Y-14507071D01*
X15691928Y-14535643D01*
X15663357Y-14549929D01*
X16091928Y-14464214D02*
X16034785Y-14464214D01*
X16006214Y-14478500D01*
X15991928Y-14492786D01*
X15963357Y-14535643D01*
X15949071Y-14592786D01*
X15949071Y-14707071D01*
X15963357Y-14735643D01*
X15977643Y-14749929D01*
X16006214Y-14764214D01*
X16063357Y-14764214D01*
X16091928Y-14749929D01*
X16106214Y-14735643D01*
X16120500Y-14707071D01*
X16120500Y-14635643D01*
X16106214Y-14607071D01*
X16091928Y-14592786D01*
X16063357Y-14578500D01*
X16006214Y-14578500D01*
X15977643Y-14592786D01*
X15963357Y-14607071D01*
X15949071Y-14635643D01*
X16234786Y-14464214D02*
X16234786Y-14521357D01*
X16349071Y-14464214D02*
X16349071Y-14521357D01*
X16791928Y-14878500D02*
X16777643Y-14864214D01*
X16749071Y-14821357D01*
X16734785Y-14792786D01*
X16720500Y-14749929D01*
X16706214Y-14678500D01*
X16706214Y-14621357D01*
X16720500Y-14549929D01*
X16734785Y-14507071D01*
X16749071Y-14478500D01*
X16777643Y-14435643D01*
X16791928Y-14421357D01*
X17034786Y-14564214D02*
X17034786Y-14764214D01*
X16963357Y-14449929D02*
X16891928Y-14664214D01*
X17077643Y-14664214D01*
X17334786Y-14464214D02*
X17191928Y-14464214D01*
X17177643Y-14607071D01*
X17191928Y-14592786D01*
X17220500Y-14578500D01*
X17291928Y-14578500D01*
X17320500Y-14592786D01*
X17334786Y-14607071D01*
X17349071Y-14635643D01*
X17349071Y-14707071D01*
X17334786Y-14735643D01*
X17320500Y-14749929D01*
X17291928Y-14764214D01*
X17220500Y-14764214D01*
X17191928Y-14749929D01*
X17177643Y-14735643D01*
X17706214Y-14764214D02*
X17706214Y-14464214D01*
X17834786Y-14764214D02*
X17834786Y-14607071D01*
X17820500Y-14578500D01*
X17791928Y-14564214D01*
X17749071Y-14564214D01*
X17720500Y-14578500D01*
X17706214Y-14592786D01*
X18020500Y-14764214D02*
X17991928Y-14749929D01*
X17977643Y-14735643D01*
X17963357Y-14707071D01*
X17963357Y-14621357D01*
X17977643Y-14592786D01*
X17991928Y-14578500D01*
X18020500Y-14564214D01*
X18063357Y-14564214D01*
X18091928Y-14578500D01*
X18106214Y-14592786D01*
X18120500Y-14621357D01*
X18120500Y-14707071D01*
X18106214Y-14735643D01*
X18091928Y-14749929D01*
X18063357Y-14764214D01*
X18020500Y-14764214D01*
X18291928Y-14764214D02*
X18263357Y-14749929D01*
X18249071Y-14721357D01*
X18249071Y-14464214D01*
X18520500Y-14749929D02*
X18491929Y-14764214D01*
X18434786Y-14764214D01*
X18406214Y-14749929D01*
X18391929Y-14721357D01*
X18391929Y-14607071D01*
X18406214Y-14578500D01*
X18434786Y-14564214D01*
X18491929Y-14564214D01*
X18520500Y-14578500D01*
X18534786Y-14607071D01*
X18534786Y-14635643D01*
X18391929Y-14664214D01*
X18649071Y-14749929D02*
X18677643Y-14764214D01*
X18734786Y-14764214D01*
X18763357Y-14749929D01*
X18777643Y-14721357D01*
X18777643Y-14707071D01*
X18763357Y-14678500D01*
X18734786Y-14664214D01*
X18691929Y-14664214D01*
X18663357Y-14649929D01*
X18649071Y-14621357D01*
X18649071Y-14607071D01*
X18663357Y-14578500D01*
X18691929Y-14564214D01*
X18734786Y-14564214D01*
X18763357Y-14578500D01*
X18877643Y-14878500D02*
X18891929Y-14864214D01*
X18920500Y-14821357D01*
X18934786Y-14792786D01*
X18949071Y-14749929D01*
X18963357Y-14678500D01*
X18963357Y-14621357D01*
X18949071Y-14549929D01*
X18934786Y-14507071D01*
X18920500Y-14478500D01*
X18891929Y-14435643D01*
X18877643Y-14421357D01*
X12120500Y-15024500D02*
G75*
G03X12120500Y-15024500I-25000J0D01*
G01*
X12449071Y-14860214D02*
X12477643Y-14860214D01*
X12506214Y-14874500D01*
X12520500Y-14888786D01*
X12534786Y-14917357D01*
X12549071Y-14974500D01*
X12549071Y-15045929D01*
X12534786Y-15103071D01*
X12520500Y-15131643D01*
X12506214Y-15145929D01*
X12477643Y-15160214D01*
X12449071Y-15160214D01*
X12420500Y-15145929D01*
X12406214Y-15131643D01*
X12391928Y-15103071D01*
X12377643Y-15045929D01*
X12377643Y-14974500D01*
X12391928Y-14917357D01*
X12406214Y-14888786D01*
X12420500Y-14874500D01*
X12449071Y-14860214D01*
X12677643Y-15131643D02*
X12691928Y-15145929D01*
X12677643Y-15160214D01*
X12663357Y-15145929D01*
X12677643Y-15131643D01*
X12677643Y-15160214D01*
X12963357Y-14860214D02*
X12820500Y-14860214D01*
X12806214Y-15003071D01*
X12820500Y-14988786D01*
X12849071Y-14974500D01*
X12920500Y-14974500D01*
X12949071Y-14988786D01*
X12963357Y-15003071D01*
X12977643Y-15031643D01*
X12977643Y-15103071D01*
X12963357Y-15131643D01*
X12949071Y-15145929D01*
X12920500Y-15160214D01*
X12849071Y-15160214D01*
X12820500Y-15145929D01*
X12806214Y-15131643D01*
X13163357Y-14860214D02*
X13191928Y-14860214D01*
X13220500Y-14874500D01*
X13234786Y-14888786D01*
X13249071Y-14917357D01*
X13263357Y-14974500D01*
X13263357Y-15045929D01*
X13249071Y-15103071D01*
X13234786Y-15131643D01*
X13220500Y-15145929D01*
X13191928Y-15160214D01*
X13163357Y-15160214D01*
X13134786Y-15145929D01*
X13120500Y-15131643D01*
X13106214Y-15103071D01*
X13091928Y-15045929D01*
X13091928Y-14974500D01*
X13106214Y-14917357D01*
X13120500Y-14888786D01*
X13134786Y-14874500D01*
X13163357Y-14860214D01*
X13391928Y-15160214D02*
X13391928Y-14960214D01*
X13391928Y-14988786D02*
X13406214Y-14974500D01*
X13434786Y-14960214D01*
X13477643Y-14960214D01*
X13506214Y-14974500D01*
X13520500Y-15003071D01*
X13520500Y-15160214D01*
X13520500Y-15003071D02*
X13534786Y-14974500D01*
X13563357Y-14960214D01*
X13606214Y-14960214D01*
X13634786Y-14974500D01*
X13649071Y-15003071D01*
X13649071Y-15160214D01*
X13791928Y-15160214D02*
X13791928Y-14960214D01*
X13791928Y-14988786D02*
X13806214Y-14974500D01*
X13834786Y-14960214D01*
X13877643Y-14960214D01*
X13906214Y-14974500D01*
X13920500Y-15003071D01*
X13920500Y-15160214D01*
X13920500Y-15003071D02*
X13934786Y-14974500D01*
X13963357Y-14960214D01*
X14006214Y-14960214D01*
X14034786Y-14974500D01*
X14049071Y-15003071D01*
X14049071Y-15160214D01*
X14634786Y-14845929D02*
X14377643Y-15231643D01*
X15020500Y-14860214D02*
X15049071Y-14860214D01*
X15077643Y-14874500D01*
X15091928Y-14888786D01*
X15106214Y-14917357D01*
X15120500Y-14974500D01*
X15120500Y-15045929D01*
X15106214Y-15103071D01*
X15091928Y-15131643D01*
X15077643Y-15145929D01*
X15049071Y-15160214D01*
X15020500Y-15160214D01*
X14991928Y-15145929D01*
X14977643Y-15131643D01*
X14963357Y-15103071D01*
X14949071Y-15045929D01*
X14949071Y-14974500D01*
X14963357Y-14917357D01*
X14977643Y-14888786D01*
X14991928Y-14874500D01*
X15020500Y-14860214D01*
X15249071Y-15131643D02*
X15263357Y-15145929D01*
X15249071Y-15160214D01*
X15234786Y-15145929D01*
X15249071Y-15131643D01*
X15249071Y-15160214D01*
X15449071Y-14860214D02*
X15477643Y-14860214D01*
X15506214Y-14874500D01*
X15520500Y-14888786D01*
X15534785Y-14917357D01*
X15549071Y-14974500D01*
X15549071Y-15045929D01*
X15534785Y-15103071D01*
X15520500Y-15131643D01*
X15506214Y-15145929D01*
X15477643Y-15160214D01*
X15449071Y-15160214D01*
X15420500Y-15145929D01*
X15406214Y-15131643D01*
X15391928Y-15103071D01*
X15377643Y-15045929D01*
X15377643Y-14974500D01*
X15391928Y-14917357D01*
X15406214Y-14888786D01*
X15420500Y-14874500D01*
X15449071Y-14860214D01*
X15663357Y-14888786D02*
X15677643Y-14874500D01*
X15706214Y-14860214D01*
X15777643Y-14860214D01*
X15806214Y-14874500D01*
X15820500Y-14888786D01*
X15834785Y-14917357D01*
X15834785Y-14945929D01*
X15820500Y-14988786D01*
X15649071Y-15160214D01*
X15834785Y-15160214D01*
X16020500Y-14860214D02*
X16049071Y-14860214D01*
X16077643Y-14874500D01*
X16091928Y-14888786D01*
X16106214Y-14917357D01*
X16120500Y-14974500D01*
X16120500Y-15045929D01*
X16106214Y-15103071D01*
X16091928Y-15131643D01*
X16077643Y-15145929D01*
X16049071Y-15160214D01*
X16020500Y-15160214D01*
X15991928Y-15145929D01*
X15977643Y-15131643D01*
X15963357Y-15103071D01*
X15949071Y-15045929D01*
X15949071Y-14974500D01*
X15963357Y-14917357D01*
X15977643Y-14888786D01*
X15991928Y-14874500D01*
X16020500Y-14860214D01*
X16234786Y-14860214D02*
X16234786Y-14917357D01*
X16349071Y-14860214D02*
X16349071Y-14917357D01*
X16791928Y-15274500D02*
X16777643Y-15260214D01*
X16749071Y-15217357D01*
X16734785Y-15188786D01*
X16720500Y-15145929D01*
X16706214Y-15074500D01*
X16706214Y-15017357D01*
X16720500Y-14945929D01*
X16734785Y-14903071D01*
X16749071Y-14874500D01*
X16777643Y-14831643D01*
X16791928Y-14817357D01*
X16963357Y-14860214D02*
X16991928Y-14860214D01*
X17020500Y-14874500D01*
X17034786Y-14888786D01*
X17049071Y-14917357D01*
X17063357Y-14974500D01*
X17063357Y-15045929D01*
X17049071Y-15103071D01*
X17034786Y-15131643D01*
X17020500Y-15145929D01*
X16991928Y-15160214D01*
X16963357Y-15160214D01*
X16934786Y-15145929D01*
X16920500Y-15131643D01*
X16906214Y-15103071D01*
X16891928Y-15045929D01*
X16891928Y-14974500D01*
X16906214Y-14917357D01*
X16920500Y-14888786D01*
X16934786Y-14874500D01*
X16963357Y-14860214D01*
X17420500Y-15160214D02*
X17420500Y-14860214D01*
X17549071Y-15160214D02*
X17549071Y-15003071D01*
X17534786Y-14974500D01*
X17506214Y-14960214D01*
X17463357Y-14960214D01*
X17434786Y-14974500D01*
X17420500Y-14988786D01*
X17734786Y-15160214D02*
X17706214Y-15145929D01*
X17691928Y-15131643D01*
X17677643Y-15103071D01*
X17677643Y-15017357D01*
X17691928Y-14988786D01*
X17706214Y-14974500D01*
X17734786Y-14960214D01*
X17777643Y-14960214D01*
X17806214Y-14974500D01*
X17820500Y-14988786D01*
X17834786Y-15017357D01*
X17834786Y-15103071D01*
X17820500Y-15131643D01*
X17806214Y-15145929D01*
X17777643Y-15160214D01*
X17734786Y-15160214D01*
X18006214Y-15160214D02*
X17977643Y-15145929D01*
X17963357Y-15117357D01*
X17963357Y-14860214D01*
X18234786Y-15145929D02*
X18206214Y-15160214D01*
X18149071Y-15160214D01*
X18120500Y-15145929D01*
X18106214Y-15117357D01*
X18106214Y-15003071D01*
X18120500Y-14974500D01*
X18149071Y-14960214D01*
X18206214Y-14960214D01*
X18234786Y-14974500D01*
X18249071Y-15003071D01*
X18249071Y-15031643D01*
X18106214Y-15060214D01*
X18363357Y-15145929D02*
X18391929Y-15160214D01*
X18449071Y-15160214D01*
X18477643Y-15145929D01*
X18491929Y-15117357D01*
X18491929Y-15103071D01*
X18477643Y-15074500D01*
X18449071Y-15060214D01*
X18406214Y-15060214D01*
X18377643Y-15045929D01*
X18363357Y-15017357D01*
X18363357Y-15003071D01*
X18377643Y-14974500D01*
X18406214Y-14960214D01*
X18449071Y-14960214D01*
X18477643Y-14974500D01*
X18849071Y-15045929D02*
X19077643Y-15045929D01*
X18963357Y-15160214D02*
X18963357Y-14931643D01*
X19434786Y-14888786D02*
X19449071Y-14874500D01*
X19477643Y-14860214D01*
X19549071Y-14860214D01*
X19577643Y-14874500D01*
X19591928Y-14888786D01*
X19606214Y-14917357D01*
X19606214Y-14945929D01*
X19591928Y-14988786D01*
X19420500Y-15160214D01*
X19606214Y-15160214D01*
X19949071Y-15145929D02*
X19977643Y-15160214D01*
X20034786Y-15160214D01*
X20063357Y-15145929D01*
X20077643Y-15117357D01*
X20077643Y-15103071D01*
X20063357Y-15074500D01*
X20034786Y-15060214D01*
X19991928Y-15060214D01*
X19963357Y-15045929D01*
X19949071Y-15017357D01*
X19949071Y-15003071D01*
X19963357Y-14974500D01*
X19991928Y-14960214D01*
X20034786Y-14960214D01*
X20063357Y-14974500D01*
X20249071Y-15160214D02*
X20220500Y-15145929D01*
X20206214Y-15117357D01*
X20206214Y-14860214D01*
X20406214Y-15160214D02*
X20377643Y-15145929D01*
X20363357Y-15131643D01*
X20349071Y-15103071D01*
X20349071Y-15017357D01*
X20363357Y-14988786D01*
X20377643Y-14974500D01*
X20406214Y-14960214D01*
X20449071Y-14960214D01*
X20477643Y-14974500D01*
X20491928Y-14988786D01*
X20506214Y-15017357D01*
X20506214Y-15103071D01*
X20491928Y-15131643D01*
X20477643Y-15145929D01*
X20449071Y-15160214D01*
X20406214Y-15160214D01*
X20591928Y-14960214D02*
X20706214Y-14960214D01*
X20634786Y-14860214D02*
X20634786Y-15117357D01*
X20649071Y-15145929D01*
X20677643Y-15160214D01*
X20706214Y-15160214D01*
X20791929Y-15145929D02*
X20820500Y-15160214D01*
X20877643Y-15160214D01*
X20906214Y-15145929D01*
X20920500Y-15117357D01*
X20920500Y-15103071D01*
X20906214Y-15074500D01*
X20877643Y-15060214D01*
X20834786Y-15060214D01*
X20806214Y-15045929D01*
X20791929Y-15017357D01*
X20791929Y-15003071D01*
X20806214Y-14974500D01*
X20834786Y-14960214D01*
X20877643Y-14960214D01*
X20906214Y-14974500D01*
X21020500Y-15274500D02*
X21034786Y-15260214D01*
X21063357Y-15217357D01*
X21077643Y-15188786D01*
X21091928Y-15145929D01*
X21106214Y-15074500D01*
X21106214Y-15017357D01*
X21091928Y-14945929D01*
X21077643Y-14903071D01*
X21063357Y-14874500D01*
X21034786Y-14831643D01*
X21020500Y-14817357D01*
X12093000Y-15393000D02*
X12093000Y-15448000D01*
X12065500Y-15420500D02*
X12120500Y-15420500D01*
X12449071Y-15256214D02*
X12477643Y-15256214D01*
X12506214Y-15270500D01*
X12520500Y-15284786D01*
X12534786Y-15313357D01*
X12549071Y-15370500D01*
X12549071Y-15441929D01*
X12534786Y-15499071D01*
X12520500Y-15527643D01*
X12506214Y-15541929D01*
X12477643Y-15556214D01*
X12449071Y-15556214D01*
X12420500Y-15541929D01*
X12406214Y-15527643D01*
X12391928Y-15499071D01*
X12377643Y-15441929D01*
X12377643Y-15370500D01*
X12391928Y-15313357D01*
X12406214Y-15284786D01*
X12420500Y-15270500D01*
X12449071Y-15256214D01*
X12677643Y-15527643D02*
X12691928Y-15541929D01*
X12677643Y-15556214D01*
X12663357Y-15541929D01*
X12677643Y-15527643D01*
X12677643Y-15556214D01*
X12963357Y-15256214D02*
X12820500Y-15256214D01*
X12806214Y-15399071D01*
X12820500Y-15384786D01*
X12849071Y-15370500D01*
X12920500Y-15370500D01*
X12949071Y-15384786D01*
X12963357Y-15399071D01*
X12977643Y-15427643D01*
X12977643Y-15499071D01*
X12963357Y-15527643D01*
X12949071Y-15541929D01*
X12920500Y-15556214D01*
X12849071Y-15556214D01*
X12820500Y-15541929D01*
X12806214Y-15527643D01*
X13249071Y-15256214D02*
X13106214Y-15256214D01*
X13091928Y-15399071D01*
X13106214Y-15384786D01*
X13134786Y-15370500D01*
X13206214Y-15370500D01*
X13234786Y-15384786D01*
X13249071Y-15399071D01*
X13263357Y-15427643D01*
X13263357Y-15499071D01*
X13249071Y-15527643D01*
X13234786Y-15541929D01*
X13206214Y-15556214D01*
X13134786Y-15556214D01*
X13106214Y-15541929D01*
X13091928Y-15527643D01*
X13391928Y-15556214D02*
X13391928Y-15356214D01*
X13391928Y-15384786D02*
X13406214Y-15370500D01*
X13434786Y-15356214D01*
X13477643Y-15356214D01*
X13506214Y-15370500D01*
X13520500Y-15399071D01*
X13520500Y-15556214D01*
X13520500Y-15399071D02*
X13534786Y-15370500D01*
X13563357Y-15356214D01*
X13606214Y-15356214D01*
X13634786Y-15370500D01*
X13649071Y-15399071D01*
X13649071Y-15556214D01*
X13791928Y-15556214D02*
X13791928Y-15356214D01*
X13791928Y-15384786D02*
X13806214Y-15370500D01*
X13834786Y-15356214D01*
X13877643Y-15356214D01*
X13906214Y-15370500D01*
X13920500Y-15399071D01*
X13920500Y-15556214D01*
X13920500Y-15399071D02*
X13934786Y-15370500D01*
X13963357Y-15356214D01*
X14006214Y-15356214D01*
X14034786Y-15370500D01*
X14049071Y-15399071D01*
X14049071Y-15556214D01*
X14634786Y-15241929D02*
X14377643Y-15627643D01*
X15020500Y-15256214D02*
X15049071Y-15256214D01*
X15077643Y-15270500D01*
X15091928Y-15284786D01*
X15106214Y-15313357D01*
X15120500Y-15370500D01*
X15120500Y-15441929D01*
X15106214Y-15499071D01*
X15091928Y-15527643D01*
X15077643Y-15541929D01*
X15049071Y-15556214D01*
X15020500Y-15556214D01*
X14991928Y-15541929D01*
X14977643Y-15527643D01*
X14963357Y-15499071D01*
X14949071Y-15441929D01*
X14949071Y-15370500D01*
X14963357Y-15313357D01*
X14977643Y-15284786D01*
X14991928Y-15270500D01*
X15020500Y-15256214D01*
X15249071Y-15527643D02*
X15263357Y-15541929D01*
X15249071Y-15556214D01*
X15234786Y-15541929D01*
X15249071Y-15527643D01*
X15249071Y-15556214D01*
X15449071Y-15256214D02*
X15477643Y-15256214D01*
X15506214Y-15270500D01*
X15520500Y-15284786D01*
X15534785Y-15313357D01*
X15549071Y-15370500D01*
X15549071Y-15441929D01*
X15534785Y-15499071D01*
X15520500Y-15527643D01*
X15506214Y-15541929D01*
X15477643Y-15556214D01*
X15449071Y-15556214D01*
X15420500Y-15541929D01*
X15406214Y-15527643D01*
X15391928Y-15499071D01*
X15377643Y-15441929D01*
X15377643Y-15370500D01*
X15391928Y-15313357D01*
X15406214Y-15284786D01*
X15420500Y-15270500D01*
X15449071Y-15256214D01*
X15663357Y-15284786D02*
X15677643Y-15270500D01*
X15706214Y-15256214D01*
X15777643Y-15256214D01*
X15806214Y-15270500D01*
X15820500Y-15284786D01*
X15834785Y-15313357D01*
X15834785Y-15341929D01*
X15820500Y-15384786D01*
X15649071Y-15556214D01*
X15834785Y-15556214D01*
X15949071Y-15284786D02*
X15963357Y-15270500D01*
X15991928Y-15256214D01*
X16063357Y-15256214D01*
X16091928Y-15270500D01*
X16106214Y-15284786D01*
X16120500Y-15313357D01*
X16120500Y-15341929D01*
X16106214Y-15384786D01*
X15934785Y-15556214D01*
X16120500Y-15556214D01*
X16234786Y-15256214D02*
X16234786Y-15313357D01*
X16349071Y-15256214D02*
X16349071Y-15313357D01*
X16791928Y-15670500D02*
X16777643Y-15656214D01*
X16749071Y-15613357D01*
X16734785Y-15584786D01*
X16720500Y-15541929D01*
X16706214Y-15470500D01*
X16706214Y-15413357D01*
X16720500Y-15341929D01*
X16734785Y-15299071D01*
X16749071Y-15270500D01*
X16777643Y-15227643D01*
X16791928Y-15213357D01*
X16963357Y-15256214D02*
X16991928Y-15256214D01*
X17020500Y-15270500D01*
X17034786Y-15284786D01*
X17049071Y-15313357D01*
X17063357Y-15370500D01*
X17063357Y-15441929D01*
X17049071Y-15499071D01*
X17034786Y-15527643D01*
X17020500Y-15541929D01*
X16991928Y-15556214D01*
X16963357Y-15556214D01*
X16934786Y-15541929D01*
X16920500Y-15527643D01*
X16906214Y-15499071D01*
X16891928Y-15441929D01*
X16891928Y-15370500D01*
X16906214Y-15313357D01*
X16920500Y-15284786D01*
X16934786Y-15270500D01*
X16963357Y-15256214D01*
X17420500Y-15556214D02*
X17420500Y-15256214D01*
X17549071Y-15556214D02*
X17549071Y-15399071D01*
X17534786Y-15370500D01*
X17506214Y-15356214D01*
X17463357Y-15356214D01*
X17434786Y-15370500D01*
X17420500Y-15384786D01*
X17734786Y-15556214D02*
X17706214Y-15541929D01*
X17691928Y-15527643D01*
X17677643Y-15499071D01*
X17677643Y-15413357D01*
X17691928Y-15384786D01*
X17706214Y-15370500D01*
X17734786Y-15356214D01*
X17777643Y-15356214D01*
X17806214Y-15370500D01*
X17820500Y-15384786D01*
X17834786Y-15413357D01*
X17834786Y-15499071D01*
X17820500Y-15527643D01*
X17806214Y-15541929D01*
X17777643Y-15556214D01*
X17734786Y-15556214D01*
X18006214Y-15556214D02*
X17977643Y-15541929D01*
X17963357Y-15513357D01*
X17963357Y-15256214D01*
X18234786Y-15541929D02*
X18206214Y-15556214D01*
X18149071Y-15556214D01*
X18120500Y-15541929D01*
X18106214Y-15513357D01*
X18106214Y-15399071D01*
X18120500Y-15370500D01*
X18149071Y-15356214D01*
X18206214Y-15356214D01*
X18234786Y-15370500D01*
X18249071Y-15399071D01*
X18249071Y-15427643D01*
X18106214Y-15456214D01*
X18363357Y-15541929D02*
X18391929Y-15556214D01*
X18449071Y-15556214D01*
X18477643Y-15541929D01*
X18491929Y-15513357D01*
X18491929Y-15499071D01*
X18477643Y-15470500D01*
X18449071Y-15456214D01*
X18406214Y-15456214D01*
X18377643Y-15441929D01*
X18363357Y-15413357D01*
X18363357Y-15399071D01*
X18377643Y-15370500D01*
X18406214Y-15356214D01*
X18449071Y-15356214D01*
X18477643Y-15370500D01*
X18849071Y-15441929D02*
X19077643Y-15441929D01*
X18963357Y-15556214D02*
X18963357Y-15327643D01*
X19434786Y-15284786D02*
X19449071Y-15270500D01*
X19477643Y-15256214D01*
X19549071Y-15256214D01*
X19577643Y-15270500D01*
X19591928Y-15284786D01*
X19606214Y-15313357D01*
X19606214Y-15341929D01*
X19591928Y-15384786D01*
X19420500Y-15556214D01*
X19606214Y-15556214D01*
X19949071Y-15541929D02*
X19977643Y-15556214D01*
X20034786Y-15556214D01*
X20063357Y-15541929D01*
X20077643Y-15513357D01*
X20077643Y-15499071D01*
X20063357Y-15470500D01*
X20034786Y-15456214D01*
X19991928Y-15456214D01*
X19963357Y-15441929D01*
X19949071Y-15413357D01*
X19949071Y-15399071D01*
X19963357Y-15370500D01*
X19991928Y-15356214D01*
X20034786Y-15356214D01*
X20063357Y-15370500D01*
X20249071Y-15556214D02*
X20220500Y-15541929D01*
X20206214Y-15513357D01*
X20206214Y-15256214D01*
X20406214Y-15556214D02*
X20377643Y-15541929D01*
X20363357Y-15527643D01*
X20349071Y-15499071D01*
X20349071Y-15413357D01*
X20363357Y-15384786D01*
X20377643Y-15370500D01*
X20406214Y-15356214D01*
X20449071Y-15356214D01*
X20477643Y-15370500D01*
X20491928Y-15384786D01*
X20506214Y-15413357D01*
X20506214Y-15499071D01*
X20491928Y-15527643D01*
X20477643Y-15541929D01*
X20449071Y-15556214D01*
X20406214Y-15556214D01*
X20591928Y-15356214D02*
X20706214Y-15356214D01*
X20634786Y-15256214D02*
X20634786Y-15513357D01*
X20649071Y-15541929D01*
X20677643Y-15556214D01*
X20706214Y-15556214D01*
X20791929Y-15541929D02*
X20820500Y-15556214D01*
X20877643Y-15556214D01*
X20906214Y-15541929D01*
X20920500Y-15513357D01*
X20920500Y-15499071D01*
X20906214Y-15470500D01*
X20877643Y-15456214D01*
X20834786Y-15456214D01*
X20806214Y-15441929D01*
X20791929Y-15413357D01*
X20791929Y-15399071D01*
X20806214Y-15370500D01*
X20834786Y-15356214D01*
X20877643Y-15356214D01*
X20906214Y-15370500D01*
X21020500Y-15670500D02*
X21034786Y-15656214D01*
X21063357Y-15613357D01*
X21077643Y-15584786D01*
X21091928Y-15541929D01*
X21106214Y-15470500D01*
X21106214Y-15413357D01*
X21091928Y-15341929D01*
X21077643Y-15299071D01*
X21063357Y-15270500D01*
X21034786Y-15227643D01*
X21020500Y-15213357D01*
X12111713Y-15837713D02*
X12111713Y-15795287D01*
X12069286Y-15795287D01*
X12069286Y-15837713D01*
X12111713Y-15837713D01*
X12449071Y-15652214D02*
X12477643Y-15652214D01*
X12506214Y-15666500D01*
X12520500Y-15680786D01*
X12534786Y-15709357D01*
X12549071Y-15766500D01*
X12549071Y-15837929D01*
X12534786Y-15895071D01*
X12520500Y-15923643D01*
X12506214Y-15937929D01*
X12477643Y-15952214D01*
X12449071Y-15952214D01*
X12420500Y-15937929D01*
X12406214Y-15923643D01*
X12391928Y-15895071D01*
X12377643Y-15837929D01*
X12377643Y-15766500D01*
X12391928Y-15709357D01*
X12406214Y-15680786D01*
X12420500Y-15666500D01*
X12449071Y-15652214D01*
X12677643Y-15923643D02*
X12691928Y-15937929D01*
X12677643Y-15952214D01*
X12663357Y-15937929D01*
X12677643Y-15923643D01*
X12677643Y-15952214D01*
X12949071Y-15652214D02*
X12891928Y-15652214D01*
X12863357Y-15666500D01*
X12849071Y-15680786D01*
X12820500Y-15723643D01*
X12806214Y-15780786D01*
X12806214Y-15895071D01*
X12820500Y-15923643D01*
X12834786Y-15937929D01*
X12863357Y-15952214D01*
X12920500Y-15952214D01*
X12949071Y-15937929D01*
X12963357Y-15923643D01*
X12977643Y-15895071D01*
X12977643Y-15823643D01*
X12963357Y-15795071D01*
X12949071Y-15780786D01*
X12920500Y-15766500D01*
X12863357Y-15766500D01*
X12834786Y-15780786D01*
X12820500Y-15795071D01*
X12806214Y-15823643D01*
X13163357Y-15652214D02*
X13191928Y-15652214D01*
X13220500Y-15666500D01*
X13234786Y-15680786D01*
X13249071Y-15709357D01*
X13263357Y-15766500D01*
X13263357Y-15837929D01*
X13249071Y-15895071D01*
X13234786Y-15923643D01*
X13220500Y-15937929D01*
X13191928Y-15952214D01*
X13163357Y-15952214D01*
X13134786Y-15937929D01*
X13120500Y-15923643D01*
X13106214Y-15895071D01*
X13091928Y-15837929D01*
X13091928Y-15766500D01*
X13106214Y-15709357D01*
X13120500Y-15680786D01*
X13134786Y-15666500D01*
X13163357Y-15652214D01*
X13391928Y-15952214D02*
X13391928Y-15752214D01*
X13391928Y-15780786D02*
X13406214Y-15766500D01*
X13434786Y-15752214D01*
X13477643Y-15752214D01*
X13506214Y-15766500D01*
X13520500Y-15795071D01*
X13520500Y-15952214D01*
X13520500Y-15795071D02*
X13534786Y-15766500D01*
X13563357Y-15752214D01*
X13606214Y-15752214D01*
X13634786Y-15766500D01*
X13649071Y-15795071D01*
X13649071Y-15952214D01*
X13791928Y-15952214D02*
X13791928Y-15752214D01*
X13791928Y-15780786D02*
X13806214Y-15766500D01*
X13834786Y-15752214D01*
X13877643Y-15752214D01*
X13906214Y-15766500D01*
X13920500Y-15795071D01*
X13920500Y-15952214D01*
X13920500Y-15795071D02*
X13934786Y-15766500D01*
X13963357Y-15752214D01*
X14006214Y-15752214D01*
X14034786Y-15766500D01*
X14049071Y-15795071D01*
X14049071Y-15952214D01*
X14634786Y-15637929D02*
X14377643Y-16023643D01*
X15020500Y-15652214D02*
X15049071Y-15652214D01*
X15077643Y-15666500D01*
X15091928Y-15680786D01*
X15106214Y-15709357D01*
X15120500Y-15766500D01*
X15120500Y-15837929D01*
X15106214Y-15895071D01*
X15091928Y-15923643D01*
X15077643Y-15937929D01*
X15049071Y-15952214D01*
X15020500Y-15952214D01*
X14991928Y-15937929D01*
X14977643Y-15923643D01*
X14963357Y-15895071D01*
X14949071Y-15837929D01*
X14949071Y-15766500D01*
X14963357Y-15709357D01*
X14977643Y-15680786D01*
X14991928Y-15666500D01*
X15020500Y-15652214D01*
X15249071Y-15923643D02*
X15263357Y-15937929D01*
X15249071Y-15952214D01*
X15234786Y-15937929D01*
X15249071Y-15923643D01*
X15249071Y-15952214D01*
X15449071Y-15652214D02*
X15477643Y-15652214D01*
X15506214Y-15666500D01*
X15520500Y-15680786D01*
X15534785Y-15709357D01*
X15549071Y-15766500D01*
X15549071Y-15837929D01*
X15534785Y-15895071D01*
X15520500Y-15923643D01*
X15506214Y-15937929D01*
X15477643Y-15952214D01*
X15449071Y-15952214D01*
X15420500Y-15937929D01*
X15406214Y-15923643D01*
X15391928Y-15895071D01*
X15377643Y-15837929D01*
X15377643Y-15766500D01*
X15391928Y-15709357D01*
X15406214Y-15680786D01*
X15420500Y-15666500D01*
X15449071Y-15652214D01*
X15663357Y-15680786D02*
X15677643Y-15666500D01*
X15706214Y-15652214D01*
X15777643Y-15652214D01*
X15806214Y-15666500D01*
X15820500Y-15680786D01*
X15834785Y-15709357D01*
X15834785Y-15737929D01*
X15820500Y-15780786D01*
X15649071Y-15952214D01*
X15834785Y-15952214D01*
X16091928Y-15752214D02*
X16091928Y-15952214D01*
X16020500Y-15637929D02*
X15949071Y-15852214D01*
X16134785Y-15852214D01*
X16234786Y-15652214D02*
X16234786Y-15709357D01*
X16349071Y-15652214D02*
X16349071Y-15709357D01*
X16791928Y-16066500D02*
X16777643Y-16052214D01*
X16749071Y-16009357D01*
X16734785Y-15980786D01*
X16720500Y-15937929D01*
X16706214Y-15866500D01*
X16706214Y-15809357D01*
X16720500Y-15737929D01*
X16734785Y-15695071D01*
X16749071Y-15666500D01*
X16777643Y-15623643D01*
X16791928Y-15609357D01*
X16963357Y-15652214D02*
X16991928Y-15652214D01*
X17020500Y-15666500D01*
X17034786Y-15680786D01*
X17049071Y-15709357D01*
X17063357Y-15766500D01*
X17063357Y-15837929D01*
X17049071Y-15895071D01*
X17034786Y-15923643D01*
X17020500Y-15937929D01*
X16991928Y-15952214D01*
X16963357Y-15952214D01*
X16934786Y-15937929D01*
X16920500Y-15923643D01*
X16906214Y-15895071D01*
X16891928Y-15837929D01*
X16891928Y-15766500D01*
X16906214Y-15709357D01*
X16920500Y-15680786D01*
X16934786Y-15666500D01*
X16963357Y-15652214D01*
X17420500Y-15952214D02*
X17420500Y-15652214D01*
X17549071Y-15952214D02*
X17549071Y-15795071D01*
X17534786Y-15766500D01*
X17506214Y-15752214D01*
X17463357Y-15752214D01*
X17434786Y-15766500D01*
X17420500Y-15780786D01*
X17734786Y-15952214D02*
X17706214Y-15937929D01*
X17691928Y-15923643D01*
X17677643Y-15895071D01*
X17677643Y-15809357D01*
X17691928Y-15780786D01*
X17706214Y-15766500D01*
X17734786Y-15752214D01*
X17777643Y-15752214D01*
X17806214Y-15766500D01*
X17820500Y-15780786D01*
X17834786Y-15809357D01*
X17834786Y-15895071D01*
X17820500Y-15923643D01*
X17806214Y-15937929D01*
X17777643Y-15952214D01*
X17734786Y-15952214D01*
X18006214Y-15952214D02*
X17977643Y-15937929D01*
X17963357Y-15909357D01*
X17963357Y-15652214D01*
X18234786Y-15937929D02*
X18206214Y-15952214D01*
X18149071Y-15952214D01*
X18120500Y-15937929D01*
X18106214Y-15909357D01*
X18106214Y-15795071D01*
X18120500Y-15766500D01*
X18149071Y-15752214D01*
X18206214Y-15752214D01*
X18234786Y-15766500D01*
X18249071Y-15795071D01*
X18249071Y-15823643D01*
X18106214Y-15852214D01*
X18363357Y-15937929D02*
X18391929Y-15952214D01*
X18449071Y-15952214D01*
X18477643Y-15937929D01*
X18491929Y-15909357D01*
X18491929Y-15895071D01*
X18477643Y-15866500D01*
X18449071Y-15852214D01*
X18406214Y-15852214D01*
X18377643Y-15837929D01*
X18363357Y-15809357D01*
X18363357Y-15795071D01*
X18377643Y-15766500D01*
X18406214Y-15752214D01*
X18449071Y-15752214D01*
X18477643Y-15766500D01*
X18849071Y-15837929D02*
X19077643Y-15837929D01*
X18963357Y-15952214D02*
X18963357Y-15723643D01*
X19606214Y-15952214D02*
X19434786Y-15952214D01*
X19520500Y-15952214D02*
X19520500Y-15652214D01*
X19491928Y-15695071D01*
X19463357Y-15723643D01*
X19434786Y-15737929D01*
X19877643Y-15652214D02*
X19734786Y-15652214D01*
X19720500Y-15795071D01*
X19734786Y-15780786D01*
X19763357Y-15766500D01*
X19834786Y-15766500D01*
X19863357Y-15780786D01*
X19877643Y-15795071D01*
X19891928Y-15823643D01*
X19891928Y-15895071D01*
X19877643Y-15923643D01*
X19863357Y-15937929D01*
X19834786Y-15952214D01*
X19763357Y-15952214D01*
X19734786Y-15937929D01*
X19720500Y-15923643D01*
X20234786Y-15937929D02*
X20263357Y-15952214D01*
X20320500Y-15952214D01*
X20349071Y-15937929D01*
X20363357Y-15909357D01*
X20363357Y-15895071D01*
X20349071Y-15866500D01*
X20320500Y-15852214D01*
X20277643Y-15852214D01*
X20249071Y-15837929D01*
X20234786Y-15809357D01*
X20234786Y-15795071D01*
X20249071Y-15766500D01*
X20277643Y-15752214D01*
X20320500Y-15752214D01*
X20349071Y-15766500D01*
X20534786Y-15952214D02*
X20506214Y-15937929D01*
X20491928Y-15909357D01*
X20491928Y-15652214D01*
X20691928Y-15952214D02*
X20663357Y-15937929D01*
X20649071Y-15923643D01*
X20634786Y-15895071D01*
X20634786Y-15809357D01*
X20649071Y-15780786D01*
X20663357Y-15766500D01*
X20691928Y-15752214D01*
X20734786Y-15752214D01*
X20763357Y-15766500D01*
X20777643Y-15780786D01*
X20791928Y-15809357D01*
X20791928Y-15895071D01*
X20777643Y-15923643D01*
X20763357Y-15937929D01*
X20734786Y-15952214D01*
X20691928Y-15952214D01*
X20877643Y-15752214D02*
X20991928Y-15752214D01*
X20920500Y-15652214D02*
X20920500Y-15909357D01*
X20934786Y-15937929D01*
X20963357Y-15952214D01*
X20991928Y-15952214D01*
X21077643Y-15937929D02*
X21106214Y-15952214D01*
X21163357Y-15952214D01*
X21191929Y-15937929D01*
X21206214Y-15909357D01*
X21206214Y-15895071D01*
X21191929Y-15866500D01*
X21163357Y-15852214D01*
X21120500Y-15852214D01*
X21091929Y-15837929D01*
X21077643Y-15809357D01*
X21077643Y-15795071D01*
X21091929Y-15766500D01*
X21120500Y-15752214D01*
X21163357Y-15752214D01*
X21191929Y-15766500D01*
X21306214Y-16066500D02*
X21320500Y-16052214D01*
X21349071Y-16009357D01*
X21363357Y-15980786D01*
X21377643Y-15937929D01*
X21391928Y-15866500D01*
X21391928Y-15809357D01*
X21377643Y-15737929D01*
X21363357Y-15695071D01*
X21349071Y-15666500D01*
X21320500Y-15623643D01*
X21306214Y-15609357D01*
X12082400Y-16250600D02*
X12120500Y-16212500D01*
X12082400Y-16174400D01*
X12044300Y-16212500D01*
X12082400Y-16250600D01*
X12449071Y-16048214D02*
X12477643Y-16048214D01*
X12506214Y-16062500D01*
X12520500Y-16076786D01*
X12534786Y-16105357D01*
X12549071Y-16162500D01*
X12549071Y-16233929D01*
X12534786Y-16291071D01*
X12520500Y-16319643D01*
X12506214Y-16333929D01*
X12477643Y-16348214D01*
X12449071Y-16348214D01*
X12420500Y-16333929D01*
X12406214Y-16319643D01*
X12391928Y-16291071D01*
X12377643Y-16233929D01*
X12377643Y-16162500D01*
X12391928Y-16105357D01*
X12406214Y-16076786D01*
X12420500Y-16062500D01*
X12449071Y-16048214D01*
X12677643Y-16319643D02*
X12691928Y-16333929D01*
X12677643Y-16348214D01*
X12663357Y-16333929D01*
X12677643Y-16319643D01*
X12677643Y-16348214D01*
X12791928Y-16048214D02*
X12991928Y-16048214D01*
X12863357Y-16348214D01*
X13234786Y-16048214D02*
X13177643Y-16048214D01*
X13149071Y-16062500D01*
X13134786Y-16076786D01*
X13106214Y-16119643D01*
X13091928Y-16176786D01*
X13091928Y-16291071D01*
X13106214Y-16319643D01*
X13120500Y-16333929D01*
X13149071Y-16348214D01*
X13206214Y-16348214D01*
X13234786Y-16333929D01*
X13249071Y-16319643D01*
X13263357Y-16291071D01*
X13263357Y-16219643D01*
X13249071Y-16191071D01*
X13234786Y-16176786D01*
X13206214Y-16162500D01*
X13149071Y-16162500D01*
X13120500Y-16176786D01*
X13106214Y-16191071D01*
X13091928Y-16219643D01*
X13391928Y-16348214D02*
X13391928Y-16148214D01*
X13391928Y-16176786D02*
X13406214Y-16162500D01*
X13434786Y-16148214D01*
X13477643Y-16148214D01*
X13506214Y-16162500D01*
X13520500Y-16191071D01*
X13520500Y-16348214D01*
X13520500Y-16191071D02*
X13534786Y-16162500D01*
X13563357Y-16148214D01*
X13606214Y-16148214D01*
X13634786Y-16162500D01*
X13649071Y-16191071D01*
X13649071Y-16348214D01*
X13791928Y-16348214D02*
X13791928Y-16148214D01*
X13791928Y-16176786D02*
X13806214Y-16162500D01*
X13834786Y-16148214D01*
X13877643Y-16148214D01*
X13906214Y-16162500D01*
X13920500Y-16191071D01*
X13920500Y-16348214D01*
X13920500Y-16191071D02*
X13934786Y-16162500D01*
X13963357Y-16148214D01*
X14006214Y-16148214D01*
X14034786Y-16162500D01*
X14049071Y-16191071D01*
X14049071Y-16348214D01*
X14634786Y-16033929D02*
X14377643Y-16419643D01*
X15020500Y-16048214D02*
X15049071Y-16048214D01*
X15077643Y-16062500D01*
X15091928Y-16076786D01*
X15106214Y-16105357D01*
X15120500Y-16162500D01*
X15120500Y-16233929D01*
X15106214Y-16291071D01*
X15091928Y-16319643D01*
X15077643Y-16333929D01*
X15049071Y-16348214D01*
X15020500Y-16348214D01*
X14991928Y-16333929D01*
X14977643Y-16319643D01*
X14963357Y-16291071D01*
X14949071Y-16233929D01*
X14949071Y-16162500D01*
X14963357Y-16105357D01*
X14977643Y-16076786D01*
X14991928Y-16062500D01*
X15020500Y-16048214D01*
X15249071Y-16319643D02*
X15263357Y-16333929D01*
X15249071Y-16348214D01*
X15234786Y-16333929D01*
X15249071Y-16319643D01*
X15249071Y-16348214D01*
X15449071Y-16048214D02*
X15477643Y-16048214D01*
X15506214Y-16062500D01*
X15520500Y-16076786D01*
X15534785Y-16105357D01*
X15549071Y-16162500D01*
X15549071Y-16233929D01*
X15534785Y-16291071D01*
X15520500Y-16319643D01*
X15506214Y-16333929D01*
X15477643Y-16348214D01*
X15449071Y-16348214D01*
X15420500Y-16333929D01*
X15406214Y-16319643D01*
X15391928Y-16291071D01*
X15377643Y-16233929D01*
X15377643Y-16162500D01*
X15391928Y-16105357D01*
X15406214Y-16076786D01*
X15420500Y-16062500D01*
X15449071Y-16048214D01*
X15649071Y-16048214D02*
X15834785Y-16048214D01*
X15734785Y-16162500D01*
X15777643Y-16162500D01*
X15806214Y-16176786D01*
X15820500Y-16191071D01*
X15834785Y-16219643D01*
X15834785Y-16291071D01*
X15820500Y-16319643D01*
X15806214Y-16333929D01*
X15777643Y-16348214D01*
X15691928Y-16348214D01*
X15663357Y-16333929D01*
X15649071Y-16319643D01*
X16020500Y-16048214D02*
X16049071Y-16048214D01*
X16077643Y-16062500D01*
X16091928Y-16076786D01*
X16106214Y-16105357D01*
X16120500Y-16162500D01*
X16120500Y-16233929D01*
X16106214Y-16291071D01*
X16091928Y-16319643D01*
X16077643Y-16333929D01*
X16049071Y-16348214D01*
X16020500Y-16348214D01*
X15991928Y-16333929D01*
X15977643Y-16319643D01*
X15963357Y-16291071D01*
X15949071Y-16233929D01*
X15949071Y-16162500D01*
X15963357Y-16105357D01*
X15977643Y-16076786D01*
X15991928Y-16062500D01*
X16020500Y-16048214D01*
X16234786Y-16048214D02*
X16234786Y-16105357D01*
X16349071Y-16048214D02*
X16349071Y-16105357D01*
X16791928Y-16462500D02*
X16777643Y-16448214D01*
X16749071Y-16405357D01*
X16734785Y-16376786D01*
X16720500Y-16333929D01*
X16706214Y-16262500D01*
X16706214Y-16205357D01*
X16720500Y-16133929D01*
X16734785Y-16091071D01*
X16749071Y-16062500D01*
X16777643Y-16019643D01*
X16791928Y-16005357D01*
X17063357Y-16348214D02*
X16891928Y-16348214D01*
X16977643Y-16348214D02*
X16977643Y-16048214D01*
X16949071Y-16091071D01*
X16920500Y-16119643D01*
X16891928Y-16133929D01*
X17320500Y-16048214D02*
X17263357Y-16048214D01*
X17234786Y-16062500D01*
X17220500Y-16076786D01*
X17191928Y-16119643D01*
X17177643Y-16176786D01*
X17177643Y-16291071D01*
X17191928Y-16319643D01*
X17206214Y-16333929D01*
X17234786Y-16348214D01*
X17291928Y-16348214D01*
X17320500Y-16333929D01*
X17334786Y-16319643D01*
X17349071Y-16291071D01*
X17349071Y-16219643D01*
X17334786Y-16191071D01*
X17320500Y-16176786D01*
X17291928Y-16162500D01*
X17234786Y-16162500D01*
X17206214Y-16176786D01*
X17191928Y-16191071D01*
X17177643Y-16219643D01*
X17706214Y-16348214D02*
X17706214Y-16048214D01*
X17834786Y-16348214D02*
X17834786Y-16191071D01*
X17820500Y-16162500D01*
X17791928Y-16148214D01*
X17749071Y-16148214D01*
X17720500Y-16162500D01*
X17706214Y-16176786D01*
X18020500Y-16348214D02*
X17991928Y-16333929D01*
X17977643Y-16319643D01*
X17963357Y-16291071D01*
X17963357Y-16205357D01*
X17977643Y-16176786D01*
X17991928Y-16162500D01*
X18020500Y-16148214D01*
X18063357Y-16148214D01*
X18091928Y-16162500D01*
X18106214Y-16176786D01*
X18120500Y-16205357D01*
X18120500Y-16291071D01*
X18106214Y-16319643D01*
X18091928Y-16333929D01*
X18063357Y-16348214D01*
X18020500Y-16348214D01*
X18291928Y-16348214D02*
X18263357Y-16333929D01*
X18249071Y-16305357D01*
X18249071Y-16048214D01*
X18520500Y-16333929D02*
X18491929Y-16348214D01*
X18434786Y-16348214D01*
X18406214Y-16333929D01*
X18391929Y-16305357D01*
X18391929Y-16191071D01*
X18406214Y-16162500D01*
X18434786Y-16148214D01*
X18491929Y-16148214D01*
X18520500Y-16162500D01*
X18534786Y-16191071D01*
X18534786Y-16219643D01*
X18391929Y-16248214D01*
X18649071Y-16333929D02*
X18677643Y-16348214D01*
X18734786Y-16348214D01*
X18763357Y-16333929D01*
X18777643Y-16305357D01*
X18777643Y-16291071D01*
X18763357Y-16262500D01*
X18734786Y-16248214D01*
X18691929Y-16248214D01*
X18663357Y-16233929D01*
X18649071Y-16205357D01*
X18649071Y-16191071D01*
X18663357Y-16162500D01*
X18691929Y-16148214D01*
X18734786Y-16148214D01*
X18763357Y-16162500D01*
X18877643Y-16462500D02*
X18891929Y-16448214D01*
X18920500Y-16405357D01*
X18934786Y-16376786D01*
X18949071Y-16333929D01*
X18963357Y-16262500D01*
X18963357Y-16205357D01*
X18949071Y-16133929D01*
X18934786Y-16091071D01*
X18920500Y-16062500D01*
X18891929Y-16019643D01*
X18877643Y-16005357D01*
X12020500Y-16558500D02*
X12120500Y-16658500D01*
X12120500Y-16558500D02*
X12020500Y-16658500D01*
X12120500Y-16608500D02*
G75*
G03X12120500Y-16608500I-50000J0D01*
G01*
X12549071Y-16744214D02*
X12377643Y-16744214D01*
X12463357Y-16744214D02*
X12463357Y-16444214D01*
X12434786Y-16487071D01*
X12406214Y-16515643D01*
X12377643Y-16529929D01*
X12677643Y-16715643D02*
X12691928Y-16729929D01*
X12677643Y-16744214D01*
X12663357Y-16729929D01*
X12677643Y-16715643D01*
X12677643Y-16744214D01*
X12877643Y-16444214D02*
X12906214Y-16444214D01*
X12934786Y-16458500D01*
X12949071Y-16472786D01*
X12963357Y-16501357D01*
X12977643Y-16558500D01*
X12977643Y-16629929D01*
X12963357Y-16687071D01*
X12949071Y-16715643D01*
X12934786Y-16729929D01*
X12906214Y-16744214D01*
X12877643Y-16744214D01*
X12849071Y-16729929D01*
X12834786Y-16715643D01*
X12820500Y-16687071D01*
X12806214Y-16629929D01*
X12806214Y-16558500D01*
X12820500Y-16501357D01*
X12834786Y-16472786D01*
X12849071Y-16458500D01*
X12877643Y-16444214D01*
X13163357Y-16444214D02*
X13191928Y-16444214D01*
X13220500Y-16458500D01*
X13234786Y-16472786D01*
X13249071Y-16501357D01*
X13263357Y-16558500D01*
X13263357Y-16629929D01*
X13249071Y-16687071D01*
X13234786Y-16715643D01*
X13220500Y-16729929D01*
X13191928Y-16744214D01*
X13163357Y-16744214D01*
X13134786Y-16729929D01*
X13120500Y-16715643D01*
X13106214Y-16687071D01*
X13091928Y-16629929D01*
X13091928Y-16558500D01*
X13106214Y-16501357D01*
X13120500Y-16472786D01*
X13134786Y-16458500D01*
X13163357Y-16444214D01*
X13391928Y-16744214D02*
X13391928Y-16544214D01*
X13391928Y-16572786D02*
X13406214Y-16558500D01*
X13434786Y-16544214D01*
X13477643Y-16544214D01*
X13506214Y-16558500D01*
X13520500Y-16587071D01*
X13520500Y-16744214D01*
X13520500Y-16587071D02*
X13534786Y-16558500D01*
X13563357Y-16544214D01*
X13606214Y-16544214D01*
X13634786Y-16558500D01*
X13649071Y-16587071D01*
X13649071Y-16744214D01*
X13791928Y-16744214D02*
X13791928Y-16544214D01*
X13791928Y-16572786D02*
X13806214Y-16558500D01*
X13834786Y-16544214D01*
X13877643Y-16544214D01*
X13906214Y-16558500D01*
X13920500Y-16587071D01*
X13920500Y-16744214D01*
X13920500Y-16587071D02*
X13934786Y-16558500D01*
X13963357Y-16544214D01*
X14006214Y-16544214D01*
X14034786Y-16558500D01*
X14049071Y-16587071D01*
X14049071Y-16744214D01*
X14634786Y-16429929D02*
X14377643Y-16815643D01*
X15020500Y-16444214D02*
X15049071Y-16444214D01*
X15077643Y-16458500D01*
X15091928Y-16472786D01*
X15106214Y-16501357D01*
X15120500Y-16558500D01*
X15120500Y-16629929D01*
X15106214Y-16687071D01*
X15091928Y-16715643D01*
X15077643Y-16729929D01*
X15049071Y-16744214D01*
X15020500Y-16744214D01*
X14991928Y-16729929D01*
X14977643Y-16715643D01*
X14963357Y-16687071D01*
X14949071Y-16629929D01*
X14949071Y-16558500D01*
X14963357Y-16501357D01*
X14977643Y-16472786D01*
X14991928Y-16458500D01*
X15020500Y-16444214D01*
X15249071Y-16715643D02*
X15263357Y-16729929D01*
X15249071Y-16744214D01*
X15234786Y-16729929D01*
X15249071Y-16715643D01*
X15249071Y-16744214D01*
X15449071Y-16444214D02*
X15477643Y-16444214D01*
X15506214Y-16458500D01*
X15520500Y-16472786D01*
X15534785Y-16501357D01*
X15549071Y-16558500D01*
X15549071Y-16629929D01*
X15534785Y-16687071D01*
X15520500Y-16715643D01*
X15506214Y-16729929D01*
X15477643Y-16744214D01*
X15449071Y-16744214D01*
X15420500Y-16729929D01*
X15406214Y-16715643D01*
X15391928Y-16687071D01*
X15377643Y-16629929D01*
X15377643Y-16558500D01*
X15391928Y-16501357D01*
X15406214Y-16472786D01*
X15420500Y-16458500D01*
X15449071Y-16444214D01*
X15649071Y-16444214D02*
X15834785Y-16444214D01*
X15734785Y-16558500D01*
X15777643Y-16558500D01*
X15806214Y-16572786D01*
X15820500Y-16587071D01*
X15834785Y-16615643D01*
X15834785Y-16687071D01*
X15820500Y-16715643D01*
X15806214Y-16729929D01*
X15777643Y-16744214D01*
X15691928Y-16744214D01*
X15663357Y-16729929D01*
X15649071Y-16715643D01*
X15977643Y-16744214D02*
X16034785Y-16744214D01*
X16063357Y-16729929D01*
X16077643Y-16715643D01*
X16106214Y-16672786D01*
X16120500Y-16615643D01*
X16120500Y-16501357D01*
X16106214Y-16472786D01*
X16091928Y-16458500D01*
X16063357Y-16444214D01*
X16006214Y-16444214D01*
X15977643Y-16458500D01*
X15963357Y-16472786D01*
X15949071Y-16501357D01*
X15949071Y-16572786D01*
X15963357Y-16601357D01*
X15977643Y-16615643D01*
X16006214Y-16629929D01*
X16063357Y-16629929D01*
X16091928Y-16615643D01*
X16106214Y-16601357D01*
X16120500Y-16572786D01*
X16234786Y-16444214D02*
X16234786Y-16501357D01*
X16349071Y-16444214D02*
X16349071Y-16501357D01*
X16791928Y-16858500D02*
X16777643Y-16844214D01*
X16749071Y-16801357D01*
X16734785Y-16772786D01*
X16720500Y-16729929D01*
X16706214Y-16658500D01*
X16706214Y-16601357D01*
X16720500Y-16529929D01*
X16734785Y-16487071D01*
X16749071Y-16458500D01*
X16777643Y-16415643D01*
X16791928Y-16401357D01*
X16891928Y-16472786D02*
X16906214Y-16458500D01*
X16934786Y-16444214D01*
X17006214Y-16444214D01*
X17034786Y-16458500D01*
X17049071Y-16472786D01*
X17063357Y-16501357D01*
X17063357Y-16529929D01*
X17049071Y-16572786D01*
X16877643Y-16744214D01*
X17063357Y-16744214D01*
X17163357Y-16444214D02*
X17349071Y-16444214D01*
X17249071Y-16558500D01*
X17291928Y-16558500D01*
X17320500Y-16572786D01*
X17334786Y-16587071D01*
X17349071Y-16615643D01*
X17349071Y-16687071D01*
X17334786Y-16715643D01*
X17320500Y-16729929D01*
X17291928Y-16744214D01*
X17206214Y-16744214D01*
X17177643Y-16729929D01*
X17163357Y-16715643D01*
X17706214Y-16744214D02*
X17706214Y-16444214D01*
X17834786Y-16744214D02*
X17834786Y-16587071D01*
X17820500Y-16558500D01*
X17791928Y-16544214D01*
X17749071Y-16544214D01*
X17720500Y-16558500D01*
X17706214Y-16572786D01*
X18020500Y-16744214D02*
X17991928Y-16729929D01*
X17977643Y-16715643D01*
X17963357Y-16687071D01*
X17963357Y-16601357D01*
X17977643Y-16572786D01*
X17991928Y-16558500D01*
X18020500Y-16544214D01*
X18063357Y-16544214D01*
X18091928Y-16558500D01*
X18106214Y-16572786D01*
X18120500Y-16601357D01*
X18120500Y-16687071D01*
X18106214Y-16715643D01*
X18091928Y-16729929D01*
X18063357Y-16744214D01*
X18020500Y-16744214D01*
X18291928Y-16744214D02*
X18263357Y-16729929D01*
X18249071Y-16701357D01*
X18249071Y-16444214D01*
X18520500Y-16729929D02*
X18491929Y-16744214D01*
X18434786Y-16744214D01*
X18406214Y-16729929D01*
X18391929Y-16701357D01*
X18391929Y-16587071D01*
X18406214Y-16558500D01*
X18434786Y-16544214D01*
X18491929Y-16544214D01*
X18520500Y-16558500D01*
X18534786Y-16587071D01*
X18534786Y-16615643D01*
X18391929Y-16644214D01*
X18649071Y-16729929D02*
X18677643Y-16744214D01*
X18734786Y-16744214D01*
X18763357Y-16729929D01*
X18777643Y-16701357D01*
X18777643Y-16687071D01*
X18763357Y-16658500D01*
X18734786Y-16644214D01*
X18691929Y-16644214D01*
X18663357Y-16629929D01*
X18649071Y-16601357D01*
X18649071Y-16587071D01*
X18663357Y-16558500D01*
X18691929Y-16544214D01*
X18734786Y-16544214D01*
X18763357Y-16558500D01*
X18877643Y-16858500D02*
X18891929Y-16844214D01*
X18920500Y-16801357D01*
X18934786Y-16772786D01*
X18949071Y-16729929D01*
X18963357Y-16658500D01*
X18963357Y-16601357D01*
X18949071Y-16529929D01*
X18934786Y-16487071D01*
X18920500Y-16458500D01*
X18891929Y-16415643D01*
X18877643Y-16401357D01*
X12010500Y-16949500D02*
X12120500Y-17059500D01*
X12120500Y-16949500D02*
X12010500Y-17059500D01*
X12065500Y-16949500D02*
X12065500Y-17059500D01*
X12010500Y-17004500D02*
X12120500Y-17004500D01*
X12549071Y-17140214D02*
X12377643Y-17140214D01*
X12463357Y-17140214D02*
X12463357Y-16840214D01*
X12434786Y-16883072D01*
X12406214Y-16911643D01*
X12377643Y-16925929D01*
X12677643Y-17111643D02*
X12691928Y-17125929D01*
X12677643Y-17140214D01*
X12663357Y-17125929D01*
X12677643Y-17111643D01*
X12677643Y-17140214D01*
X12977643Y-17140214D02*
X12806214Y-17140214D01*
X12891928Y-17140214D02*
X12891928Y-16840214D01*
X12863357Y-16883072D01*
X12834786Y-16911643D01*
X12806214Y-16925929D01*
X13163357Y-16840214D02*
X13191928Y-16840214D01*
X13220500Y-16854500D01*
X13234786Y-16868786D01*
X13249071Y-16897357D01*
X13263357Y-16954500D01*
X13263357Y-17025929D01*
X13249071Y-17083072D01*
X13234786Y-17111643D01*
X13220500Y-17125929D01*
X13191928Y-17140214D01*
X13163357Y-17140214D01*
X13134786Y-17125929D01*
X13120500Y-17111643D01*
X13106214Y-17083072D01*
X13091928Y-17025929D01*
X13091928Y-16954500D01*
X13106214Y-16897357D01*
X13120500Y-16868786D01*
X13134786Y-16854500D01*
X13163357Y-16840214D01*
X13391928Y-17140214D02*
X13391928Y-16940214D01*
X13391928Y-16968786D02*
X13406214Y-16954500D01*
X13434786Y-16940214D01*
X13477643Y-16940214D01*
X13506214Y-16954500D01*
X13520500Y-16983072D01*
X13520500Y-17140214D01*
X13520500Y-16983072D02*
X13534786Y-16954500D01*
X13563357Y-16940214D01*
X13606214Y-16940214D01*
X13634786Y-16954500D01*
X13649071Y-16983072D01*
X13649071Y-17140214D01*
X13791928Y-17140214D02*
X13791928Y-16940214D01*
X13791928Y-16968786D02*
X13806214Y-16954500D01*
X13834786Y-16940214D01*
X13877643Y-16940214D01*
X13906214Y-16954500D01*
X13920500Y-16983072D01*
X13920500Y-17140214D01*
X13920500Y-16983072D02*
X13934786Y-16954500D01*
X13963357Y-16940214D01*
X14006214Y-16940214D01*
X14034786Y-16954500D01*
X14049071Y-16983072D01*
X14049071Y-17140214D01*
X14634786Y-16825929D02*
X14377643Y-17211643D01*
X15020500Y-16840214D02*
X15049071Y-16840214D01*
X15077643Y-16854500D01*
X15091928Y-16868786D01*
X15106214Y-16897357D01*
X15120500Y-16954500D01*
X15120500Y-17025929D01*
X15106214Y-17083072D01*
X15091928Y-17111643D01*
X15077643Y-17125929D01*
X15049071Y-17140214D01*
X15020500Y-17140214D01*
X14991928Y-17125929D01*
X14977643Y-17111643D01*
X14963357Y-17083072D01*
X14949071Y-17025929D01*
X14949071Y-16954500D01*
X14963357Y-16897357D01*
X14977643Y-16868786D01*
X14991928Y-16854500D01*
X15020500Y-16840214D01*
X15249071Y-17111643D02*
X15263357Y-17125929D01*
X15249071Y-17140214D01*
X15234786Y-17125929D01*
X15249071Y-17111643D01*
X15249071Y-17140214D01*
X15449071Y-16840214D02*
X15477643Y-16840214D01*
X15506214Y-16854500D01*
X15520500Y-16868786D01*
X15534785Y-16897357D01*
X15549071Y-16954500D01*
X15549071Y-17025929D01*
X15534785Y-17083072D01*
X15520500Y-17111643D01*
X15506214Y-17125929D01*
X15477643Y-17140214D01*
X15449071Y-17140214D01*
X15420500Y-17125929D01*
X15406214Y-17111643D01*
X15391928Y-17083072D01*
X15377643Y-17025929D01*
X15377643Y-16954500D01*
X15391928Y-16897357D01*
X15406214Y-16868786D01*
X15420500Y-16854500D01*
X15449071Y-16840214D01*
X15806214Y-16940214D02*
X15806214Y-17140214D01*
X15734785Y-16825929D02*
X15663357Y-17040214D01*
X15849071Y-17040214D01*
X15934785Y-16840214D02*
X16120500Y-16840214D01*
X16020500Y-16954500D01*
X16063357Y-16954500D01*
X16091928Y-16968786D01*
X16106214Y-16983072D01*
X16120500Y-17011643D01*
X16120500Y-17083072D01*
X16106214Y-17111643D01*
X16091928Y-17125929D01*
X16063357Y-17140214D01*
X15977643Y-17140214D01*
X15949071Y-17125929D01*
X15934785Y-17111643D01*
X16234786Y-16840214D02*
X16234786Y-16897357D01*
X16349071Y-16840214D02*
X16349071Y-16897357D01*
X16791928Y-17254500D02*
X16777643Y-17240214D01*
X16749071Y-17197357D01*
X16734785Y-17168786D01*
X16720500Y-17125929D01*
X16706214Y-17054500D01*
X16706214Y-16997357D01*
X16720500Y-16925929D01*
X16734785Y-16883072D01*
X16749071Y-16854500D01*
X16777643Y-16811643D01*
X16791928Y-16797357D01*
X16891928Y-16868786D02*
X16906214Y-16854500D01*
X16934786Y-16840214D01*
X17006214Y-16840214D01*
X17034786Y-16854500D01*
X17049071Y-16868786D01*
X17063357Y-16897357D01*
X17063357Y-16925929D01*
X17049071Y-16968786D01*
X16877643Y-17140214D01*
X17063357Y-17140214D01*
X17420500Y-17140214D02*
X17420500Y-16840214D01*
X17549071Y-17140214D02*
X17549071Y-16983072D01*
X17534786Y-16954500D01*
X17506214Y-16940214D01*
X17463357Y-16940214D01*
X17434786Y-16954500D01*
X17420500Y-16968786D01*
X17734786Y-17140214D02*
X17706214Y-17125929D01*
X17691928Y-17111643D01*
X17677643Y-17083072D01*
X17677643Y-16997357D01*
X17691928Y-16968786D01*
X17706214Y-16954500D01*
X17734786Y-16940214D01*
X17777643Y-16940214D01*
X17806214Y-16954500D01*
X17820500Y-16968786D01*
X17834786Y-16997357D01*
X17834786Y-17083072D01*
X17820500Y-17111643D01*
X17806214Y-17125929D01*
X17777643Y-17140214D01*
X17734786Y-17140214D01*
X18006214Y-17140214D02*
X17977643Y-17125929D01*
X17963357Y-17097357D01*
X17963357Y-16840214D01*
X18234786Y-17125929D02*
X18206214Y-17140214D01*
X18149071Y-17140214D01*
X18120500Y-17125929D01*
X18106214Y-17097357D01*
X18106214Y-16983072D01*
X18120500Y-16954500D01*
X18149071Y-16940214D01*
X18206214Y-16940214D01*
X18234786Y-16954500D01*
X18249071Y-16983072D01*
X18249071Y-17011643D01*
X18106214Y-17040214D01*
X18363357Y-17125929D02*
X18391929Y-17140214D01*
X18449071Y-17140214D01*
X18477643Y-17125929D01*
X18491929Y-17097357D01*
X18491929Y-17083072D01*
X18477643Y-17054500D01*
X18449071Y-17040214D01*
X18406214Y-17040214D01*
X18377643Y-17025929D01*
X18363357Y-16997357D01*
X18363357Y-16983072D01*
X18377643Y-16954500D01*
X18406214Y-16940214D01*
X18449071Y-16940214D01*
X18477643Y-16954500D01*
X18591928Y-17254500D02*
X18606214Y-17240214D01*
X18634786Y-17197357D01*
X18649071Y-17168786D01*
X18663357Y-17125929D01*
X18677643Y-17054500D01*
X18677643Y-16997357D01*
X18663357Y-16925929D01*
X18649071Y-16883072D01*
X18634786Y-16854500D01*
X18606214Y-16811643D01*
X18591928Y-16797357D01*
X11990500Y-17335500D02*
X12120500Y-17465500D01*
X12120500Y-17335500D02*
X11990500Y-17465500D01*
X12101462Y-17446463D02*
X12101462Y-17354538D01*
X12009537Y-17354538D01*
X12009537Y-17446463D01*
X12101462Y-17446463D01*
X12549071Y-17536214D02*
X12377643Y-17536214D01*
X12463357Y-17536214D02*
X12463357Y-17236214D01*
X12434786Y-17279072D01*
X12406214Y-17307643D01*
X12377643Y-17321929D01*
X12677643Y-17507643D02*
X12691928Y-17521929D01*
X12677643Y-17536214D01*
X12663357Y-17521929D01*
X12677643Y-17507643D01*
X12677643Y-17536214D01*
X12791928Y-17236214D02*
X12977643Y-17236214D01*
X12877643Y-17350500D01*
X12920500Y-17350500D01*
X12949071Y-17364786D01*
X12963357Y-17379072D01*
X12977643Y-17407643D01*
X12977643Y-17479072D01*
X12963357Y-17507643D01*
X12949071Y-17521929D01*
X12920500Y-17536214D01*
X12834786Y-17536214D01*
X12806214Y-17521929D01*
X12791928Y-17507643D01*
X13163357Y-17236214D02*
X13191928Y-17236214D01*
X13220500Y-17250500D01*
X13234786Y-17264786D01*
X13249071Y-17293357D01*
X13263357Y-17350500D01*
X13263357Y-17421929D01*
X13249071Y-17479072D01*
X13234786Y-17507643D01*
X13220500Y-17521929D01*
X13191928Y-17536214D01*
X13163357Y-17536214D01*
X13134786Y-17521929D01*
X13120500Y-17507643D01*
X13106214Y-17479072D01*
X13091928Y-17421929D01*
X13091928Y-17350500D01*
X13106214Y-17293357D01*
X13120500Y-17264786D01*
X13134786Y-17250500D01*
X13163357Y-17236214D01*
X13391928Y-17536214D02*
X13391928Y-17336214D01*
X13391928Y-17364786D02*
X13406214Y-17350500D01*
X13434786Y-17336214D01*
X13477643Y-17336214D01*
X13506214Y-17350500D01*
X13520500Y-17379072D01*
X13520500Y-17536214D01*
X13520500Y-17379072D02*
X13534786Y-17350500D01*
X13563357Y-17336214D01*
X13606214Y-17336214D01*
X13634786Y-17350500D01*
X13649071Y-17379072D01*
X13649071Y-17536214D01*
X13791928Y-17536214D02*
X13791928Y-17336214D01*
X13791928Y-17364786D02*
X13806214Y-17350500D01*
X13834786Y-17336214D01*
X13877643Y-17336214D01*
X13906214Y-17350500D01*
X13920500Y-17379072D01*
X13920500Y-17536214D01*
X13920500Y-17379072D02*
X13934786Y-17350500D01*
X13963357Y-17336214D01*
X14006214Y-17336214D01*
X14034786Y-17350500D01*
X14049071Y-17379072D01*
X14049071Y-17536214D01*
X14634786Y-17221929D02*
X14377643Y-17607643D01*
X15020500Y-17236214D02*
X15049071Y-17236214D01*
X15077643Y-17250500D01*
X15091928Y-17264786D01*
X15106214Y-17293357D01*
X15120500Y-17350500D01*
X15120500Y-17421929D01*
X15106214Y-17479072D01*
X15091928Y-17507643D01*
X15077643Y-17521929D01*
X15049071Y-17536214D01*
X15020500Y-17536214D01*
X14991928Y-17521929D01*
X14977643Y-17507643D01*
X14963357Y-17479072D01*
X14949071Y-17421929D01*
X14949071Y-17350500D01*
X14963357Y-17293357D01*
X14977643Y-17264786D01*
X14991928Y-17250500D01*
X15020500Y-17236214D01*
X15249071Y-17507643D02*
X15263357Y-17521929D01*
X15249071Y-17536214D01*
X15234786Y-17521929D01*
X15249071Y-17507643D01*
X15249071Y-17536214D01*
X15449071Y-17236214D02*
X15477643Y-17236214D01*
X15506214Y-17250500D01*
X15520500Y-17264786D01*
X15534785Y-17293357D01*
X15549071Y-17350500D01*
X15549071Y-17421929D01*
X15534785Y-17479072D01*
X15520500Y-17507643D01*
X15506214Y-17521929D01*
X15477643Y-17536214D01*
X15449071Y-17536214D01*
X15420500Y-17521929D01*
X15406214Y-17507643D01*
X15391928Y-17479072D01*
X15377643Y-17421929D01*
X15377643Y-17350500D01*
X15391928Y-17293357D01*
X15406214Y-17264786D01*
X15420500Y-17250500D01*
X15449071Y-17236214D01*
X15820500Y-17236214D02*
X15677643Y-17236214D01*
X15663357Y-17379072D01*
X15677643Y-17364786D01*
X15706214Y-17350500D01*
X15777643Y-17350500D01*
X15806214Y-17364786D01*
X15820500Y-17379072D01*
X15834785Y-17407643D01*
X15834785Y-17479072D01*
X15820500Y-17507643D01*
X15806214Y-17521929D01*
X15777643Y-17536214D01*
X15706214Y-17536214D01*
X15677643Y-17521929D01*
X15663357Y-17507643D01*
X16120500Y-17536214D02*
X15949071Y-17536214D01*
X16034785Y-17536214D02*
X16034785Y-17236214D01*
X16006214Y-17279072D01*
X15977643Y-17307643D01*
X15949071Y-17321929D01*
X16234786Y-17236214D02*
X16234786Y-17293357D01*
X16349071Y-17236214D02*
X16349071Y-17293357D01*
X16791928Y-17650500D02*
X16777643Y-17636214D01*
X16749071Y-17593357D01*
X16734785Y-17564786D01*
X16720500Y-17521929D01*
X16706214Y-17450500D01*
X16706214Y-17393357D01*
X16720500Y-17321929D01*
X16734785Y-17279072D01*
X16749071Y-17250500D01*
X16777643Y-17207643D01*
X16791928Y-17193357D01*
X16877643Y-17236214D02*
X17063357Y-17236214D01*
X16963357Y-17350500D01*
X17006214Y-17350500D01*
X17034786Y-17364786D01*
X17049071Y-17379072D01*
X17063357Y-17407643D01*
X17063357Y-17479072D01*
X17049071Y-17507643D01*
X17034786Y-17521929D01*
X17006214Y-17536214D01*
X16920500Y-17536214D01*
X16891928Y-17521929D01*
X16877643Y-17507643D01*
X17420500Y-17536214D02*
X17420500Y-17236214D01*
X17549071Y-17536214D02*
X17549071Y-17379072D01*
X17534786Y-17350500D01*
X17506214Y-17336214D01*
X17463357Y-17336214D01*
X17434786Y-17350500D01*
X17420500Y-17364786D01*
X17734786Y-17536214D02*
X17706214Y-17521929D01*
X17691928Y-17507643D01*
X17677643Y-17479072D01*
X17677643Y-17393357D01*
X17691928Y-17364786D01*
X17706214Y-17350500D01*
X17734786Y-17336214D01*
X17777643Y-17336214D01*
X17806214Y-17350500D01*
X17820500Y-17364786D01*
X17834786Y-17393357D01*
X17834786Y-17479072D01*
X17820500Y-17507643D01*
X17806214Y-17521929D01*
X17777643Y-17536214D01*
X17734786Y-17536214D01*
X18006214Y-17536214D02*
X17977643Y-17521929D01*
X17963357Y-17493357D01*
X17963357Y-17236214D01*
X18234786Y-17521929D02*
X18206214Y-17536214D01*
X18149071Y-17536214D01*
X18120500Y-17521929D01*
X18106214Y-17493357D01*
X18106214Y-17379072D01*
X18120500Y-17350500D01*
X18149071Y-17336214D01*
X18206214Y-17336214D01*
X18234786Y-17350500D01*
X18249071Y-17379072D01*
X18249071Y-17407643D01*
X18106214Y-17436214D01*
X18363357Y-17521929D02*
X18391929Y-17536214D01*
X18449071Y-17536214D01*
X18477643Y-17521929D01*
X18491929Y-17493357D01*
X18491929Y-17479072D01*
X18477643Y-17450500D01*
X18449071Y-17436214D01*
X18406214Y-17436214D01*
X18377643Y-17421929D01*
X18363357Y-17393357D01*
X18363357Y-17379072D01*
X18377643Y-17350500D01*
X18406214Y-17336214D01*
X18449071Y-17336214D01*
X18477643Y-17350500D01*
X18591928Y-17650500D02*
X18606214Y-17636214D01*
X18634786Y-17593357D01*
X18649071Y-17564786D01*
X18663357Y-17521929D01*
X18677643Y-17450500D01*
X18677643Y-17393357D01*
X18663357Y-17321929D01*
X18649071Y-17279072D01*
X18634786Y-17250500D01*
X18606214Y-17207643D01*
X18591928Y-17193357D01*
M02*
