G04 #@! TF.FileFunction,Soldermask,Top*
%FSLAX46Y46*%
G04 Gerber Fmt 4.6, Leading zero omitted, Abs format (unit mm)*
G04 Created by KiCad (PCBNEW 4.0.6) date 08/24/17 17:14:55*
%MOMM*%
%LPD*%
G01*
G04 APERTURE LIST*
%ADD10C,0.100000*%
%ADD11C,1.924000*%
%ADD12R,0.950000X2.000000*%
%ADD13R,2.000000X0.950000*%
%ADD14R,1.750000X0.800000*%
%ADD15O,1.350000X1.650000*%
%ADD16O,1.950000X1.400000*%
%ADD17R,2.432000X1.924000*%
%ADD18R,1.924000X2.432000*%
%ADD19R,2.100000X2.100000*%
%ADD20O,2.100000X2.100000*%
%ADD21R,2.600000X2.600000*%
%ADD22O,2.600000X2.600000*%
%ADD23C,2.900000*%
%ADD24C,3.400000*%
%ADD25R,1.300000X1.200000*%
%ADD26R,1.900000X1.400000*%
%ADD27R,1.400000X1.900000*%
%ADD28C,1.600000*%
%ADD29O,2.400000X1.400000*%
%ADD30O,1.400000X2.400000*%
%ADD31R,1.400000X2.400000*%
G04 APERTURE END LIST*
D10*
D11*
X169960000Y-121080000D03*
X167420000Y-121080000D03*
X164880000Y-121080000D03*
X162340000Y-121080000D03*
X159800000Y-121080000D03*
X157260000Y-121080000D03*
X154720000Y-121080000D03*
X152180000Y-121080000D03*
X152180000Y-103080000D03*
X154720000Y-103080000D03*
X157260000Y-103080000D03*
X159800000Y-103080000D03*
X162340000Y-103080000D03*
X164880000Y-103080000D03*
X167420000Y-103080000D03*
X169960000Y-103080000D03*
D12*
X153570000Y-115720000D03*
X154370000Y-115720000D03*
X155170000Y-115720000D03*
X155970000Y-115720000D03*
X156770000Y-115720000D03*
X157570000Y-115720000D03*
X158370000Y-115720000D03*
X159170000Y-115720000D03*
D13*
X160620000Y-114270000D03*
X160620000Y-113470000D03*
X160620000Y-112670000D03*
X160620000Y-111870000D03*
X160620000Y-111070000D03*
X160620000Y-110270000D03*
X160620000Y-109470000D03*
X160620000Y-108670000D03*
D12*
X159170000Y-107220000D03*
X158370000Y-107220000D03*
X157570000Y-107220000D03*
X156770000Y-107220000D03*
X155970000Y-107220000D03*
X155170000Y-107220000D03*
X154370000Y-107220000D03*
X153570000Y-107220000D03*
D13*
X152120000Y-108670000D03*
X152120000Y-109470000D03*
X152120000Y-110270000D03*
X152120000Y-111070000D03*
X152120000Y-111870000D03*
X152120000Y-112670000D03*
X152120000Y-113470000D03*
X152120000Y-114270000D03*
D14*
X166410000Y-113890000D03*
X166410000Y-113240000D03*
X166410000Y-112590000D03*
X166410000Y-111940000D03*
X166410000Y-111290000D03*
D15*
X166410000Y-115090000D03*
X166410000Y-110090000D03*
D16*
X169110000Y-116090000D03*
X169110000Y-109090000D03*
D17*
X163540000Y-117211000D03*
X163540000Y-113909000D03*
D18*
X139539000Y-133020000D03*
X142841000Y-133020000D03*
D17*
X136370000Y-128869000D03*
X136370000Y-132171000D03*
D18*
X146311000Y-129940000D03*
X143009000Y-129940000D03*
D19*
X142770000Y-126550000D03*
D20*
X142770000Y-124010000D03*
X145310000Y-126550000D03*
X145310000Y-124010000D03*
X147850000Y-126550000D03*
X147850000Y-124010000D03*
D19*
X127550000Y-122780000D03*
D20*
X130090000Y-122780000D03*
X127550000Y-125320000D03*
X130090000Y-125320000D03*
X127550000Y-127860000D03*
X130090000Y-127860000D03*
X127550000Y-130400000D03*
X130090000Y-130400000D03*
D17*
X149280000Y-116791000D03*
X149280000Y-113489000D03*
D18*
X132359000Y-105790000D03*
X135661000Y-105790000D03*
D21*
X145620000Y-105650000D03*
D22*
X145620000Y-115810000D03*
D23*
X139470000Y-116800000D03*
D24*
X127270000Y-116800000D03*
X127220000Y-104750000D03*
D23*
X139470000Y-104800000D03*
D24*
X141420000Y-110750000D03*
D25*
X134860000Y-109540000D03*
X134860000Y-111440000D03*
X136860000Y-110490000D03*
D26*
X133430000Y-129360000D03*
X133430000Y-127860000D03*
X133430000Y-126360000D03*
D17*
X149090000Y-108901000D03*
X149090000Y-105599000D03*
D27*
X156370000Y-124240000D03*
X154870000Y-124240000D03*
X153370000Y-124240000D03*
X161310000Y-124160000D03*
X159810000Y-124160000D03*
X158310000Y-124160000D03*
X161600000Y-117790000D03*
X160100000Y-117790000D03*
X158600000Y-117790000D03*
D19*
X149440000Y-101320000D03*
D20*
X146900000Y-101320000D03*
X144360000Y-101320000D03*
D19*
X150350000Y-120340000D03*
D20*
X147810000Y-120340000D03*
X145270000Y-120340000D03*
X142730000Y-120340000D03*
D28*
X183400000Y-135600000D03*
X183400000Y-125600000D03*
X180900000Y-135600000D03*
X180900000Y-125600000D03*
X175900000Y-130600000D03*
D29*
X175900000Y-125600000D03*
X175900000Y-128100000D03*
X175900000Y-133100000D03*
X175900000Y-135600000D03*
D30*
X180900000Y-130600000D03*
D31*
X159990000Y-133870000D03*
X154990000Y-133870000D03*
X164990000Y-133870000D03*
X157490000Y-133870000D03*
X162490000Y-133870000D03*
D28*
X183400000Y-109870000D03*
X183400000Y-99870000D03*
X180900000Y-109870000D03*
X180900000Y-99870000D03*
X175900000Y-104870000D03*
D29*
X175900000Y-99870000D03*
X175900000Y-102370000D03*
X175900000Y-107370000D03*
X175900000Y-109870000D03*
D30*
X180900000Y-104870000D03*
D28*
X183390000Y-122740000D03*
X183390000Y-112740000D03*
X180890000Y-122740000D03*
X180890000Y-112740000D03*
X175890000Y-117740000D03*
D29*
X175890000Y-112740000D03*
X175890000Y-115240000D03*
X175890000Y-120240000D03*
X175890000Y-122740000D03*
D30*
X180890000Y-117740000D03*
M02*
