G04 #@! TF.FileFunction,Legend,Top*
%FSLAX46Y46*%
G04 Gerber Fmt 4.6, Leading zero omitted, Abs format (unit mm)*
G04 Created by KiCad (PCBNEW 4.0.6) date 08/24/17 17:14:55*
%MOMM*%
%LPD*%
G01*
G04 APERTURE LIST*
%ADD10C,0.100000*%
%ADD11C,0.200000*%
%ADD12C,0.150000*%
%ADD13C,0.120000*%
G04 APERTURE END LIST*
D10*
D11*
X134430000Y-128420000D02*
X134430000Y-128560000D01*
X134850000Y-128000000D02*
X134430000Y-128420000D01*
X134850000Y-124910000D02*
X134850000Y-128000000D01*
X134400000Y-124460000D02*
X134850000Y-124910000D01*
X156000000Y-125340000D02*
X156000000Y-125350000D01*
X156010000Y-125330000D02*
X156000000Y-125340000D01*
X155050000Y-126290000D02*
X156010000Y-125330000D01*
X154880000Y-126290000D02*
X155050000Y-126290000D01*
X153420000Y-126290000D02*
X154880000Y-126290000D01*
D12*
X152745000Y-115095000D02*
X152970000Y-115095000D01*
X152745000Y-107845000D02*
X153070000Y-107845000D01*
X159995000Y-107845000D02*
X159670000Y-107845000D01*
X159995000Y-115095000D02*
X159670000Y-115095000D01*
X152745000Y-115095000D02*
X152745000Y-114770000D01*
X159995000Y-115095000D02*
X159995000Y-114770000D01*
X159995000Y-107845000D02*
X159995000Y-108170000D01*
X152745000Y-107845000D02*
X152745000Y-108170000D01*
X152970000Y-115095000D02*
X152970000Y-116520000D01*
D13*
X171790000Y-116940000D02*
X171790000Y-108240000D01*
X165380000Y-116940000D02*
X165380000Y-108240000D01*
X165380000Y-108240000D02*
X171790000Y-108240000D01*
X170560000Y-108240000D02*
X170560000Y-116940000D01*
X171790000Y-116940000D02*
X165380000Y-116940000D01*
D12*
X162397000Y-118100000D02*
X162397000Y-118354000D01*
X162397000Y-118354000D02*
X164683000Y-118354000D01*
X164683000Y-118354000D02*
X164683000Y-118100000D01*
X162397000Y-118100000D02*
X164683000Y-118100000D01*
X164683000Y-118100000D02*
X164683000Y-116449000D01*
X162397000Y-114671000D02*
X162397000Y-113020000D01*
X162397000Y-113020000D02*
X164683000Y-113020000D01*
X164683000Y-113020000D02*
X164683000Y-114671000D01*
X162397000Y-116449000D02*
X162397000Y-118100000D01*
X138650000Y-131877000D02*
X138396000Y-131877000D01*
X138396000Y-131877000D02*
X138396000Y-134163000D01*
X138396000Y-134163000D02*
X138650000Y-134163000D01*
X138650000Y-131877000D02*
X138650000Y-134163000D01*
X138650000Y-134163000D02*
X140301000Y-134163000D01*
X142079000Y-131877000D02*
X143730000Y-131877000D01*
X143730000Y-131877000D02*
X143730000Y-134163000D01*
X143730000Y-134163000D02*
X142079000Y-134163000D01*
X140301000Y-131877000D02*
X138650000Y-131877000D01*
X137513000Y-127980000D02*
X137513000Y-127726000D01*
X137513000Y-127726000D02*
X135227000Y-127726000D01*
X135227000Y-127726000D02*
X135227000Y-127980000D01*
X137513000Y-127980000D02*
X135227000Y-127980000D01*
X135227000Y-127980000D02*
X135227000Y-129631000D01*
X137513000Y-131409000D02*
X137513000Y-133060000D01*
X137513000Y-133060000D02*
X135227000Y-133060000D01*
X135227000Y-133060000D02*
X135227000Y-131409000D01*
X137513000Y-129631000D02*
X137513000Y-127980000D01*
X147200000Y-131083000D02*
X147454000Y-131083000D01*
X147454000Y-131083000D02*
X147454000Y-128797000D01*
X147454000Y-128797000D02*
X147200000Y-128797000D01*
X147200000Y-131083000D02*
X147200000Y-128797000D01*
X147200000Y-128797000D02*
X145549000Y-128797000D01*
X143771000Y-131083000D02*
X142120000Y-131083000D01*
X142120000Y-131083000D02*
X142120000Y-128797000D01*
X142120000Y-128797000D02*
X143771000Y-128797000D01*
X145549000Y-131083000D02*
X147200000Y-131083000D01*
D13*
X149180000Y-127880000D02*
X149180000Y-122680000D01*
X144040000Y-127880000D02*
X149180000Y-127880000D01*
X141440000Y-122680000D02*
X149180000Y-122680000D01*
X144040000Y-127880000D02*
X144040000Y-125280000D01*
X144040000Y-125280000D02*
X141440000Y-125280000D01*
X141440000Y-125280000D02*
X141440000Y-122680000D01*
X142770000Y-127880000D02*
X141440000Y-127880000D01*
X141440000Y-127880000D02*
X141440000Y-126550000D01*
X126220000Y-131730000D02*
X131420000Y-131730000D01*
X126220000Y-124050000D02*
X126220000Y-131730000D01*
X131420000Y-121450000D02*
X131420000Y-131730000D01*
X126220000Y-124050000D02*
X128820000Y-124050000D01*
X128820000Y-124050000D02*
X128820000Y-121450000D01*
X128820000Y-121450000D02*
X131420000Y-121450000D01*
X126220000Y-122780000D02*
X126220000Y-121450000D01*
X126220000Y-121450000D02*
X127550000Y-121450000D01*
D12*
X148137000Y-117680000D02*
X148137000Y-117934000D01*
X148137000Y-117934000D02*
X150423000Y-117934000D01*
X150423000Y-117934000D02*
X150423000Y-117680000D01*
X148137000Y-117680000D02*
X150423000Y-117680000D01*
X150423000Y-117680000D02*
X150423000Y-116029000D01*
X148137000Y-114251000D02*
X148137000Y-112600000D01*
X148137000Y-112600000D02*
X150423000Y-112600000D01*
X150423000Y-112600000D02*
X150423000Y-114251000D01*
X148137000Y-116029000D02*
X148137000Y-117680000D01*
X131470000Y-104647000D02*
X131216000Y-104647000D01*
X131216000Y-104647000D02*
X131216000Y-106933000D01*
X131216000Y-106933000D02*
X131470000Y-106933000D01*
X131470000Y-104647000D02*
X131470000Y-106933000D01*
X131470000Y-106933000D02*
X133121000Y-106933000D01*
X134899000Y-104647000D02*
X136550000Y-104647000D01*
X136550000Y-104647000D02*
X136550000Y-106933000D01*
X136550000Y-106933000D02*
X134899000Y-106933000D01*
X133121000Y-104647000D02*
X131470000Y-104647000D01*
D13*
X147030000Y-108070000D02*
X144210000Y-108070000D01*
X144210000Y-108070000D02*
X144210000Y-113390000D01*
X144210000Y-113390000D02*
X147030000Y-113390000D01*
X147030000Y-113390000D02*
X147030000Y-108070000D01*
X145620000Y-106930000D02*
X145620000Y-108070000D01*
X145620000Y-114530000D02*
X145620000Y-113390000D01*
X147030000Y-108910000D02*
X144210000Y-108910000D01*
X136620000Y-112070000D02*
X136620000Y-111140000D01*
X136620000Y-108910000D02*
X136620000Y-109840000D01*
X136620000Y-108910000D02*
X134460000Y-108910000D01*
X136620000Y-112070000D02*
X135160000Y-112070000D01*
D12*
X147947000Y-109790000D02*
X147947000Y-110044000D01*
X147947000Y-110044000D02*
X150233000Y-110044000D01*
X150233000Y-110044000D02*
X150233000Y-109790000D01*
X147947000Y-109790000D02*
X150233000Y-109790000D01*
X150233000Y-109790000D02*
X150233000Y-108139000D01*
X147947000Y-106361000D02*
X147947000Y-104710000D01*
X147947000Y-104710000D02*
X150233000Y-104710000D01*
X150233000Y-104710000D02*
X150233000Y-106361000D01*
X147947000Y-108139000D02*
X147947000Y-109790000D01*
D13*
X141400000Y-119010000D02*
X141400000Y-121670000D01*
X149080000Y-119010000D02*
X141400000Y-119010000D01*
X149080000Y-121670000D02*
X141400000Y-121670000D01*
X149080000Y-119010000D02*
X149080000Y-121670000D01*
X150350000Y-119010000D02*
X151680000Y-119010000D01*
X151680000Y-119010000D02*
X151680000Y-120340000D01*
D12*
X184400000Y-130600000D02*
X184400000Y-127600000D01*
X184400000Y-127600000D02*
X187400000Y-127600000D01*
X184400000Y-130600000D02*
X184400000Y-133600000D01*
X184400000Y-133600000D02*
X187400000Y-133600000D01*
X187400000Y-136600000D02*
X173400000Y-136600000D01*
X173400000Y-136600000D02*
X173400000Y-124600000D01*
X173400000Y-124600000D02*
X187400000Y-124600000D01*
X187400000Y-124600000D02*
X187400000Y-136600000D01*
X153990000Y-132870000D02*
X153990000Y-131870000D01*
X153990000Y-132870000D02*
X165990000Y-132870000D01*
X165990000Y-132870000D02*
X165990000Y-131870000D01*
X184400000Y-104870000D02*
X184400000Y-101870000D01*
X184400000Y-101870000D02*
X187400000Y-101870000D01*
X184400000Y-104870000D02*
X184400000Y-107870000D01*
X184400000Y-107870000D02*
X187400000Y-107870000D01*
X187400000Y-110870000D02*
X173400000Y-110870000D01*
X173400000Y-110870000D02*
X173400000Y-98870000D01*
X173400000Y-98870000D02*
X187400000Y-98870000D01*
X187400000Y-98870000D02*
X187400000Y-110870000D01*
X184390000Y-117740000D02*
X184390000Y-114740000D01*
X184390000Y-114740000D02*
X187390000Y-114740000D01*
X184390000Y-117740000D02*
X184390000Y-120740000D01*
X184390000Y-120740000D02*
X187390000Y-120740000D01*
X187390000Y-123740000D02*
X173390000Y-123740000D01*
X173390000Y-123740000D02*
X173390000Y-111740000D01*
X173390000Y-111740000D02*
X187390000Y-111740000D01*
X187390000Y-111740000D02*
X187390000Y-123740000D01*
X161928095Y-106262381D02*
X161928095Y-107071905D01*
X161975714Y-107167143D01*
X162023333Y-107214762D01*
X162118571Y-107262381D01*
X162309048Y-107262381D01*
X162404286Y-107214762D01*
X162451905Y-107167143D01*
X162499524Y-107071905D01*
X162499524Y-106262381D01*
X163404286Y-106595714D02*
X163404286Y-107262381D01*
X163166190Y-106214762D02*
X162928095Y-106929048D01*
X163547143Y-106929048D01*
X168636667Y-106592381D02*
X168636667Y-107306667D01*
X168589047Y-107449524D01*
X168493809Y-107544762D01*
X168350952Y-107592381D01*
X168255714Y-107592381D01*
X169636667Y-107592381D02*
X169065238Y-107592381D01*
X169350952Y-107592381D02*
X169350952Y-106592381D01*
X169255714Y-106735238D01*
X169160476Y-106830476D01*
X169065238Y-106878095D01*
X162776667Y-112138571D02*
X162443333Y-112138571D01*
X162443333Y-112662381D02*
X162443333Y-111662381D01*
X162919524Y-111662381D01*
X163824286Y-112662381D02*
X163252857Y-112662381D01*
X163538571Y-112662381D02*
X163538571Y-111662381D01*
X163443333Y-111805238D01*
X163348095Y-111900476D01*
X163252857Y-111948095D01*
X141053334Y-135657143D02*
X141005715Y-135704762D01*
X140862858Y-135752381D01*
X140767620Y-135752381D01*
X140624762Y-135704762D01*
X140529524Y-135609524D01*
X140481905Y-135514286D01*
X140434286Y-135323810D01*
X140434286Y-135180952D01*
X140481905Y-134990476D01*
X140529524Y-134895238D01*
X140624762Y-134800000D01*
X140767620Y-134752381D01*
X140862858Y-134752381D01*
X141005715Y-134800000D01*
X141053334Y-134847619D01*
X142005715Y-135752381D02*
X141434286Y-135752381D01*
X141720000Y-135752381D02*
X141720000Y-134752381D01*
X141624762Y-134895238D01*
X141529524Y-134990476D01*
X141434286Y-135038095D01*
X134587143Y-130746666D02*
X134634762Y-130794285D01*
X134682381Y-130937142D01*
X134682381Y-131032380D01*
X134634762Y-131175238D01*
X134539524Y-131270476D01*
X134444286Y-131318095D01*
X134253810Y-131365714D01*
X134110952Y-131365714D01*
X133920476Y-131318095D01*
X133825238Y-131270476D01*
X133730000Y-131175238D01*
X133682381Y-131032380D01*
X133682381Y-130937142D01*
X133730000Y-130794285D01*
X133777619Y-130746666D01*
X133777619Y-130365714D02*
X133730000Y-130318095D01*
X133682381Y-130222857D01*
X133682381Y-129984761D01*
X133730000Y-129889523D01*
X133777619Y-129841904D01*
X133872857Y-129794285D01*
X133968095Y-129794285D01*
X134110952Y-129841904D01*
X134682381Y-130413333D01*
X134682381Y-129794285D01*
X148713334Y-130897143D02*
X148665715Y-130944762D01*
X148522858Y-130992381D01*
X148427620Y-130992381D01*
X148284762Y-130944762D01*
X148189524Y-130849524D01*
X148141905Y-130754286D01*
X148094286Y-130563810D01*
X148094286Y-130420952D01*
X148141905Y-130230476D01*
X148189524Y-130135238D01*
X148284762Y-130040000D01*
X148427620Y-129992381D01*
X148522858Y-129992381D01*
X148665715Y-130040000D01*
X148713334Y-130087619D01*
X149570477Y-130325714D02*
X149570477Y-130992381D01*
X149332381Y-129944762D02*
X149094286Y-130659048D01*
X149713334Y-130659048D01*
X139892381Y-125613333D02*
X140606667Y-125613333D01*
X140749524Y-125660953D01*
X140844762Y-125756191D01*
X140892381Y-125899048D01*
X140892381Y-125994286D01*
X139987619Y-125184762D02*
X139940000Y-125137143D01*
X139892381Y-125041905D01*
X139892381Y-124803809D01*
X139940000Y-124708571D01*
X139987619Y-124660952D01*
X140082857Y-124613333D01*
X140178095Y-124613333D01*
X140320952Y-124660952D01*
X140892381Y-125232381D01*
X140892381Y-124613333D01*
X125406667Y-119932381D02*
X125406667Y-120646667D01*
X125359047Y-120789524D01*
X125263809Y-120884762D01*
X125120952Y-120932381D01*
X125025714Y-120932381D01*
X125787619Y-119932381D02*
X126406667Y-119932381D01*
X126073333Y-120313333D01*
X126216191Y-120313333D01*
X126311429Y-120360952D01*
X126359048Y-120408571D01*
X126406667Y-120503810D01*
X126406667Y-120741905D01*
X126359048Y-120837143D01*
X126311429Y-120884762D01*
X126216191Y-120932381D01*
X125930476Y-120932381D01*
X125835238Y-120884762D01*
X125787619Y-120837143D01*
X151313334Y-117552381D02*
X150980000Y-117076190D01*
X150741905Y-117552381D02*
X150741905Y-116552381D01*
X151122858Y-116552381D01*
X151218096Y-116600000D01*
X151265715Y-116647619D01*
X151313334Y-116742857D01*
X151313334Y-116885714D01*
X151265715Y-116980952D01*
X151218096Y-117028571D01*
X151122858Y-117076190D01*
X150741905Y-117076190D01*
X151694286Y-116647619D02*
X151741905Y-116600000D01*
X151837143Y-116552381D01*
X152075239Y-116552381D01*
X152170477Y-116600000D01*
X152218096Y-116647619D01*
X152265715Y-116742857D01*
X152265715Y-116838095D01*
X152218096Y-116980952D01*
X151646667Y-117552381D01*
X152265715Y-117552381D01*
X133973334Y-104142381D02*
X133640000Y-103666190D01*
X133401905Y-104142381D02*
X133401905Y-103142381D01*
X133782858Y-103142381D01*
X133878096Y-103190000D01*
X133925715Y-103237619D01*
X133973334Y-103332857D01*
X133973334Y-103475714D01*
X133925715Y-103570952D01*
X133878096Y-103618571D01*
X133782858Y-103666190D01*
X133401905Y-103666190D01*
X134306667Y-103142381D02*
X134925715Y-103142381D01*
X134592381Y-103523333D01*
X134735239Y-103523333D01*
X134830477Y-103570952D01*
X134878096Y-103618571D01*
X134925715Y-103713810D01*
X134925715Y-103951905D01*
X134878096Y-104047143D01*
X134830477Y-104094762D01*
X134735239Y-104142381D01*
X134449524Y-104142381D01*
X134354286Y-104094762D01*
X134306667Y-104047143D01*
X145101905Y-103962381D02*
X145101905Y-102962381D01*
X145340000Y-102962381D01*
X145482858Y-103010000D01*
X145578096Y-103105238D01*
X145625715Y-103200476D01*
X145673334Y-103390952D01*
X145673334Y-103533810D01*
X145625715Y-103724286D01*
X145578096Y-103819524D01*
X145482858Y-103914762D01*
X145340000Y-103962381D01*
X145101905Y-103962381D01*
X146625715Y-103962381D02*
X146054286Y-103962381D01*
X146340000Y-103962381D02*
X146340000Y-102962381D01*
X146244762Y-103105238D01*
X146149524Y-103200476D01*
X146054286Y-103248095D01*
X133104762Y-113487619D02*
X133009524Y-113440000D01*
X132914286Y-113344762D01*
X132771429Y-113201905D01*
X132676190Y-113154286D01*
X132580952Y-113154286D01*
X132628571Y-113392381D02*
X132533333Y-113344762D01*
X132438095Y-113249524D01*
X132390476Y-113059048D01*
X132390476Y-112725714D01*
X132438095Y-112535238D01*
X132533333Y-112440000D01*
X132628571Y-112392381D01*
X132819048Y-112392381D01*
X132914286Y-112440000D01*
X133009524Y-112535238D01*
X133057143Y-112725714D01*
X133057143Y-113059048D01*
X133009524Y-113249524D01*
X132914286Y-113344762D01*
X132819048Y-113392381D01*
X132628571Y-113392381D01*
X134009524Y-113392381D02*
X133438095Y-113392381D01*
X133723809Y-113392381D02*
X133723809Y-112392381D01*
X133628571Y-112535238D01*
X133533333Y-112630476D01*
X133438095Y-112678095D01*
X133022381Y-124893333D02*
X133736667Y-124893333D01*
X133879524Y-124940953D01*
X133974762Y-125036191D01*
X134022381Y-125179048D01*
X134022381Y-125274286D01*
X134022381Y-124417143D02*
X133022381Y-124417143D01*
X133022381Y-124036190D01*
X133070000Y-123940952D01*
X133117619Y-123893333D01*
X133212857Y-123845714D01*
X133355714Y-123845714D01*
X133450952Y-123893333D01*
X133498571Y-123940952D01*
X133546190Y-124036190D01*
X133546190Y-124417143D01*
X133355714Y-122988571D02*
X134022381Y-122988571D01*
X132974762Y-123226667D02*
X133689048Y-123464762D01*
X133689048Y-122845714D01*
X149713334Y-104242381D02*
X149380000Y-103766190D01*
X149141905Y-104242381D02*
X149141905Y-103242381D01*
X149522858Y-103242381D01*
X149618096Y-103290000D01*
X149665715Y-103337619D01*
X149713334Y-103432857D01*
X149713334Y-103575714D01*
X149665715Y-103670952D01*
X149618096Y-103718571D01*
X149522858Y-103766190D01*
X149141905Y-103766190D01*
X150665715Y-104242381D02*
X150094286Y-104242381D01*
X150380000Y-104242381D02*
X150380000Y-103242381D01*
X150284762Y-103385238D01*
X150189524Y-103480476D01*
X150094286Y-103528095D01*
X150996667Y-125742381D02*
X150996667Y-126456667D01*
X150949047Y-126599524D01*
X150853809Y-126694762D01*
X150710952Y-126742381D01*
X150615714Y-126742381D01*
X151472857Y-126742381D02*
X151472857Y-125742381D01*
X151853810Y-125742381D01*
X151949048Y-125790000D01*
X151996667Y-125837619D01*
X152044286Y-125932857D01*
X152044286Y-126075714D01*
X151996667Y-126170952D01*
X151949048Y-126218571D01*
X151853810Y-126266190D01*
X151472857Y-126266190D01*
X152377619Y-125742381D02*
X152996667Y-125742381D01*
X152663333Y-126123333D01*
X152806191Y-126123333D01*
X152901429Y-126170952D01*
X152949048Y-126218571D01*
X152996667Y-126313810D01*
X152996667Y-126551905D01*
X152949048Y-126647143D01*
X152901429Y-126694762D01*
X152806191Y-126742381D01*
X152520476Y-126742381D01*
X152425238Y-126694762D01*
X152377619Y-126647143D01*
X162926667Y-124032381D02*
X162926667Y-124746667D01*
X162879047Y-124889524D01*
X162783809Y-124984762D01*
X162640952Y-125032381D01*
X162545714Y-125032381D01*
X163402857Y-125032381D02*
X163402857Y-124032381D01*
X163783810Y-124032381D01*
X163879048Y-124080000D01*
X163926667Y-124127619D01*
X163974286Y-124222857D01*
X163974286Y-124365714D01*
X163926667Y-124460952D01*
X163879048Y-124508571D01*
X163783810Y-124556190D01*
X163402857Y-124556190D01*
X164355238Y-124127619D02*
X164402857Y-124080000D01*
X164498095Y-124032381D01*
X164736191Y-124032381D01*
X164831429Y-124080000D01*
X164879048Y-124127619D01*
X164926667Y-124222857D01*
X164926667Y-124318095D01*
X164879048Y-124460952D01*
X164307619Y-125032381D01*
X164926667Y-125032381D01*
X162656667Y-118632381D02*
X162656667Y-119346667D01*
X162609047Y-119489524D01*
X162513809Y-119584762D01*
X162370952Y-119632381D01*
X162275714Y-119632381D01*
X163132857Y-119632381D02*
X163132857Y-118632381D01*
X163513810Y-118632381D01*
X163609048Y-118680000D01*
X163656667Y-118727619D01*
X163704286Y-118822857D01*
X163704286Y-118965714D01*
X163656667Y-119060952D01*
X163609048Y-119108571D01*
X163513810Y-119156190D01*
X163132857Y-119156190D01*
X164656667Y-119632381D02*
X164085238Y-119632381D01*
X164370952Y-119632381D02*
X164370952Y-118632381D01*
X164275714Y-118775238D01*
X164180476Y-118870476D01*
X164085238Y-118918095D01*
X151958095Y-117992381D02*
X151958095Y-118801905D01*
X152005714Y-118897143D01*
X152053333Y-118944762D01*
X152148571Y-118992381D01*
X152339048Y-118992381D01*
X152434286Y-118944762D01*
X152481905Y-118897143D01*
X152529524Y-118801905D01*
X152529524Y-117992381D01*
X153529524Y-118992381D02*
X152958095Y-118992381D01*
X153243809Y-118992381D02*
X153243809Y-117992381D01*
X153148571Y-118135238D01*
X153053333Y-118230476D01*
X152958095Y-118278095D01*
X151636667Y-131672381D02*
X151636667Y-132386667D01*
X151589047Y-132529524D01*
X151493809Y-132624762D01*
X151350952Y-132672381D01*
X151255714Y-132672381D01*
X152541429Y-132005714D02*
X152541429Y-132672381D01*
X152303333Y-131624762D02*
X152065238Y-132339048D01*
X152684286Y-132339048D01*
M02*
