G04 #@! TF.FileFunction,Copper,L2,Bot,Signal*
%FSLAX46Y46*%
G04 Gerber Fmt 4.6, Leading zero omitted, Abs format (unit mm)*
G04 Created by KiCad (PCBNEW 4.0.6) date 08/24/17 17:14:55*
%MOMM*%
%LPD*%
G01*
G04 APERTURE LIST*
%ADD10C,0.100000*%
%ADD11C,1.524000*%
%ADD12R,2.000000X3.800000*%
%ADD13R,2.000000X1.500000*%
%ADD14O,0.950000X1.250000*%
%ADD15O,1.550000X1.000000*%
%ADD16R,1.524000X2.032000*%
%ADD17R,1.700000X1.700000*%
%ADD18O,1.700000X1.700000*%
%ADD19R,2.200000X2.200000*%
%ADD20O,2.200000X2.200000*%
%ADD21C,2.500000*%
%ADD22C,3.000000*%
%ADD23R,2.000000X1.000000*%
%ADD24O,2.000000X1.000000*%
%ADD25O,1.000000X2.000000*%
%ADD26C,0.600000*%
%ADD27C,0.350000*%
%ADD28C,0.250000*%
G04 APERTURE END LIST*
D10*
D11*
X169960000Y-121080000D03*
X167420000Y-121080000D03*
X164880000Y-121080000D03*
X162340000Y-121080000D03*
X159800000Y-121080000D03*
X157260000Y-121080000D03*
X154720000Y-121080000D03*
X152180000Y-121080000D03*
X152180000Y-103080000D03*
X154720000Y-103080000D03*
X157260000Y-103080000D03*
X159800000Y-103080000D03*
X162340000Y-103080000D03*
X164880000Y-103080000D03*
X167420000Y-103080000D03*
X169960000Y-103080000D03*
D12*
X139430000Y-131150000D03*
D13*
X133130000Y-131150000D03*
X133130000Y-128850000D03*
X133130000Y-133450000D03*
D14*
X166410000Y-115090000D03*
X166410000Y-110090000D03*
D15*
X169110000Y-116090000D03*
X169110000Y-109090000D03*
D16*
X146311000Y-132990000D03*
X143009000Y-132990000D03*
D17*
X142770000Y-126550000D03*
D18*
X142770000Y-124010000D03*
X145310000Y-126550000D03*
X145310000Y-124010000D03*
X147850000Y-126550000D03*
X147850000Y-124010000D03*
D17*
X127550000Y-122780000D03*
D18*
X130090000Y-122780000D03*
X127550000Y-125320000D03*
X130090000Y-125320000D03*
X127550000Y-127860000D03*
X130090000Y-127860000D03*
X127550000Y-130400000D03*
X130090000Y-130400000D03*
D19*
X145620000Y-105650000D03*
D20*
X145620000Y-115810000D03*
D21*
X139470000Y-116800000D03*
D22*
X127270000Y-116800000D03*
X127220000Y-104750000D03*
D21*
X139470000Y-104800000D03*
D22*
X141420000Y-110750000D03*
D17*
X149440000Y-101320000D03*
D18*
X146900000Y-101320000D03*
X144360000Y-101320000D03*
D17*
X150350000Y-120340000D03*
D18*
X147810000Y-120340000D03*
X145270000Y-120340000D03*
X142730000Y-120340000D03*
D23*
X174400000Y-130600000D03*
X174400000Y-125600000D03*
X174400000Y-128100000D03*
X174400000Y-133100000D03*
D24*
X175900000Y-125600000D03*
X175900000Y-128100000D03*
X175900000Y-133100000D03*
X175900000Y-135600000D03*
D25*
X180900000Y-130600000D03*
D23*
X174400000Y-135600000D03*
X174400000Y-104870000D03*
X174400000Y-99870000D03*
X174400000Y-102370000D03*
X174400000Y-107370000D03*
D24*
X175900000Y-99870000D03*
X175900000Y-102370000D03*
X175900000Y-107370000D03*
X175900000Y-109870000D03*
D25*
X180900000Y-104870000D03*
D23*
X174400000Y-109870000D03*
X174390000Y-117740000D03*
X174390000Y-112740000D03*
X174390000Y-115240000D03*
X174390000Y-120240000D03*
D24*
X175890000Y-112740000D03*
X175890000Y-115240000D03*
X175890000Y-120240000D03*
X175890000Y-122740000D03*
D25*
X180890000Y-117740000D03*
D23*
X174390000Y-122740000D03*
D26*
X156980000Y-119240000D03*
X141240000Y-131490000D03*
X130210000Y-107250000D03*
X156840000Y-113040000D03*
X160000000Y-135570000D03*
X136360000Y-134120000D03*
X136410000Y-130280000D03*
X158590000Y-113360000D03*
X149010000Y-129950000D03*
X150320000Y-125140000D03*
X156720000Y-117400000D03*
X151070000Y-104600000D03*
X155980000Y-119150000D03*
X160840000Y-116210000D03*
X148330000Y-132890000D03*
X133600000Y-115150000D03*
X149140000Y-107230000D03*
X153640000Y-110350000D03*
X148540000Y-111930000D03*
X157700000Y-110700000D03*
X166070000Y-117650000D03*
X151150000Y-130760000D03*
X153620000Y-130440000D03*
X157250000Y-127290000D03*
X162020000Y-128480000D03*
X150910000Y-128420000D03*
X133490000Y-116590000D03*
X134100000Y-117140000D03*
X129130000Y-108000000D03*
X134030000Y-107800000D03*
X148560000Y-103390000D03*
X153240000Y-105480000D03*
X137040000Y-112640000D03*
X150160000Y-118350000D03*
X164420000Y-123520000D03*
X137630000Y-107490000D03*
X158350000Y-111870000D03*
X154500000Y-110310000D03*
X151690000Y-129530000D03*
X151310000Y-123070000D03*
X163620000Y-111110000D03*
X156700000Y-108860000D03*
X153820000Y-113480000D03*
X151100000Y-115660000D03*
X156390000Y-126280000D03*
D27*
X139430000Y-131150000D02*
X140900000Y-131150000D01*
X140900000Y-131150000D02*
X141240000Y-131490000D01*
X139430000Y-131150000D02*
X148950000Y-131150000D01*
X150120000Y-129980000D02*
X150120000Y-127420000D01*
X150120000Y-127420000D02*
X152150000Y-125390000D01*
X152150000Y-125390000D02*
X154920000Y-125390000D01*
X154920000Y-125390000D02*
X155990000Y-124320000D01*
X155990000Y-120230000D02*
X156980000Y-119240000D01*
X155990000Y-124320000D02*
X155990000Y-120230000D01*
X148950000Y-131150000D02*
X150120000Y-129980000D01*
X139430000Y-131150000D02*
X133130000Y-131150000D01*
X141240000Y-131490000D02*
X140900000Y-131150000D01*
X130210000Y-106450000D02*
X130210000Y-107250000D01*
X135340000Y-101320000D02*
X130210000Y-106450000D01*
X144360000Y-101320000D02*
X135340000Y-101320000D01*
X147850000Y-124010000D02*
X153540000Y-124010000D01*
X154820000Y-122730000D02*
X154820000Y-121180000D01*
X153540000Y-124010000D02*
X154820000Y-122730000D01*
X154820000Y-121180000D02*
X154720000Y-121080000D01*
X147850000Y-124010000D02*
X147850000Y-122880000D01*
X147850000Y-122880000D02*
X147050000Y-122080000D01*
X147050000Y-122080000D02*
X144470000Y-122080000D01*
X144470000Y-122080000D02*
X142730000Y-120340000D01*
X154720000Y-103080000D02*
X154720000Y-100310000D01*
X144360000Y-100060000D02*
X144360000Y-101320000D01*
X144740000Y-99680000D02*
X144360000Y-100060000D01*
X154090000Y-99680000D02*
X144740000Y-99680000D01*
X154720000Y-100310000D02*
X154090000Y-99680000D01*
X166370000Y-115070000D02*
X158870000Y-115070000D01*
X158870000Y-115070000D02*
X156840000Y-113040000D01*
X145619000Y-135600000D02*
X143009000Y-132990000D01*
X159970000Y-135600000D02*
X145619000Y-135600000D01*
X160000000Y-135570000D02*
X159970000Y-135600000D01*
X136360000Y-134120000D02*
X141879000Y-134120000D01*
X141879000Y-134120000D02*
X143009000Y-132990000D01*
X133130000Y-133450000D02*
X134320000Y-133450000D01*
X134990000Y-134120000D02*
X136360000Y-134120000D01*
X134320000Y-133450000D02*
X134990000Y-134120000D01*
X127550000Y-130400000D02*
X127550000Y-131640000D01*
X127550000Y-131640000D02*
X128900000Y-132990000D01*
X128900000Y-132990000D02*
X133180000Y-132990000D01*
X130090000Y-130400000D02*
X130180000Y-130400000D01*
X130180000Y-130400000D02*
X131730000Y-128850000D01*
X131730000Y-128850000D02*
X133130000Y-128850000D01*
X133130000Y-128850000D02*
X135500000Y-128850000D01*
X136410000Y-129760000D02*
X136410000Y-130280000D01*
X135500000Y-128850000D02*
X136410000Y-129760000D01*
X151070000Y-104600000D02*
X153860000Y-104600000D01*
X159380000Y-112570000D02*
X158590000Y-113360000D01*
X159380000Y-110720000D02*
X159380000Y-112570000D01*
X158320000Y-109660000D02*
X159380000Y-110720000D01*
X156040000Y-109660000D02*
X158320000Y-109660000D01*
X155390000Y-109010000D02*
X156040000Y-109660000D01*
X155390000Y-106130000D02*
X155390000Y-109010000D01*
X153860000Y-104600000D02*
X155390000Y-106130000D01*
X149470000Y-129490000D02*
X149010000Y-129950000D01*
X149470000Y-125990000D02*
X149470000Y-129490000D01*
X150320000Y-125140000D02*
X149470000Y-125990000D01*
X160840000Y-116210000D02*
X160840000Y-116230000D01*
X159670000Y-117400000D02*
X156720000Y-117400000D01*
X160840000Y-116230000D02*
X159670000Y-117400000D01*
X169960000Y-121080000D02*
X169960000Y-118620000D01*
X155180000Y-104600000D02*
X151070000Y-104600000D01*
X155960000Y-103820000D02*
X155180000Y-104600000D01*
X155960000Y-102370000D02*
X155960000Y-103820000D01*
X157320000Y-101010000D02*
X155960000Y-102370000D01*
X165250000Y-101010000D02*
X157320000Y-101010000D01*
X166120000Y-101880000D02*
X165250000Y-101010000D01*
X166120000Y-106920000D02*
X166120000Y-101880000D01*
X167900000Y-108700000D02*
X166120000Y-106920000D01*
X167900000Y-116560000D02*
X167900000Y-108700000D01*
X169960000Y-118620000D02*
X167900000Y-116560000D01*
X155980000Y-119150000D02*
X155420000Y-119700000D01*
X155420000Y-119700000D02*
X150990000Y-119700000D01*
X150990000Y-119700000D02*
X150350000Y-120340000D01*
X169960000Y-119360000D02*
X169960000Y-121080000D01*
X146311000Y-132990000D02*
X148230000Y-132990000D01*
X148230000Y-132990000D02*
X148330000Y-132890000D01*
X133600000Y-115150000D02*
X133640000Y-115150000D01*
X139980000Y-125780000D02*
X140750000Y-126550000D01*
X139980000Y-121490000D02*
X139980000Y-125780000D01*
X133640000Y-115150000D02*
X139980000Y-121490000D01*
X150520000Y-107230000D02*
X149140000Y-107230000D01*
X153640000Y-110350000D02*
X150520000Y-107230000D01*
X140750000Y-126550000D02*
X142770000Y-126550000D01*
X155330000Y-111930000D02*
X148540000Y-111930000D01*
X156370000Y-110890000D02*
X155330000Y-111930000D01*
X157510000Y-110890000D02*
X156370000Y-110890000D01*
X157700000Y-110700000D02*
X157510000Y-110890000D01*
X166140000Y-125060000D02*
X166140000Y-125470000D01*
X166070000Y-117650000D02*
X166140000Y-117720000D01*
X166140000Y-117720000D02*
X166140000Y-125060000D01*
X153300000Y-130760000D02*
X153020000Y-130760000D01*
X153020000Y-130760000D02*
X151150000Y-130760000D01*
X153620000Y-130440000D02*
X153300000Y-130760000D01*
X164320000Y-127290000D02*
X157250000Y-127290000D01*
X166140000Y-125470000D02*
X164320000Y-127290000D01*
X162020000Y-128480000D02*
X161960000Y-128420000D01*
X161960000Y-128420000D02*
X150910000Y-128420000D01*
X127550000Y-120330000D02*
X127550000Y-122780000D01*
X128660000Y-119220000D02*
X127550000Y-120330000D01*
X130860000Y-119220000D02*
X128660000Y-119220000D01*
X133490000Y-116590000D02*
X130860000Y-119220000D01*
X130090000Y-121150000D02*
X130090000Y-122780000D01*
X134100000Y-117140000D02*
X130090000Y-121150000D01*
X133830000Y-108000000D02*
X129130000Y-108000000D01*
X134030000Y-107800000D02*
X133830000Y-108000000D01*
X150570000Y-105400000D02*
X148560000Y-103390000D01*
X153160000Y-105400000D02*
X150570000Y-105400000D01*
X153240000Y-105480000D02*
X153160000Y-105400000D01*
X141420000Y-110750000D02*
X140800000Y-110750000D01*
X140800000Y-110750000D02*
X138720000Y-108670000D01*
D28*
X138720000Y-108670000D02*
X125860000Y-108670000D01*
D27*
X124430000Y-127860000D02*
X127550000Y-127860000D01*
X122770000Y-126200000D02*
X124430000Y-127860000D01*
X122770000Y-111760000D02*
X122770000Y-126200000D01*
X125860000Y-108670000D02*
X122770000Y-111760000D01*
X139470000Y-116800000D02*
X139470000Y-115070000D01*
X139470000Y-115070000D02*
X137040000Y-112640000D01*
X163320000Y-119630000D02*
X163320000Y-119640000D01*
D28*
X162190002Y-118520002D02*
X163320000Y-119630000D01*
X155439998Y-118520002D02*
X162190002Y-118520002D01*
D27*
X155390000Y-118570000D02*
X155439998Y-118520002D01*
X150380000Y-118570000D02*
X155390000Y-118570000D01*
X150160000Y-118350000D02*
X150380000Y-118570000D01*
X163610000Y-122710000D02*
X164420000Y-123520000D01*
X163610000Y-119930000D02*
X163610000Y-122710000D01*
X163320000Y-119640000D02*
X163610000Y-119930000D01*
X152690000Y-112720000D02*
X156040000Y-112720000D01*
X150780000Y-112720000D02*
X147220000Y-112720000D01*
X147220000Y-112720000D02*
X146400000Y-111900000D01*
X146400000Y-111900000D02*
X141990000Y-107490000D01*
X141990000Y-107490000D02*
X137630000Y-107490000D01*
X150780000Y-112720000D02*
X152690000Y-112720000D01*
X156890000Y-111870000D02*
X158350000Y-111870000D01*
X156040000Y-112720000D02*
X156890000Y-111870000D01*
X153780000Y-108080000D02*
X154510000Y-108810000D01*
X146900000Y-102620000D02*
X146900000Y-101320000D01*
X152140000Y-106440000D02*
X153780000Y-108080000D01*
X150720000Y-106440000D02*
X152140000Y-106440000D01*
D28*
X146900000Y-102620000D02*
X150720000Y-106440000D01*
D27*
X154510000Y-110300000D02*
X154500000Y-110310000D01*
X154510000Y-108810000D02*
X154510000Y-110300000D01*
X151690000Y-129530000D02*
X165500000Y-129530000D01*
X165500000Y-129530000D02*
X165960000Y-129070000D01*
X147810000Y-120340000D02*
X147810000Y-121470000D01*
X148440000Y-122100000D02*
X147810000Y-121470000D01*
X150340000Y-122100000D02*
X148440000Y-122100000D01*
X151310000Y-123070000D02*
X150340000Y-122100000D01*
X168700000Y-126330000D02*
X165960000Y-129070000D01*
X165960000Y-129070000D02*
X165580000Y-129450000D01*
X168700000Y-120350000D02*
X168700000Y-126330000D01*
X167380000Y-119030000D02*
X168700000Y-120350000D01*
D28*
X167380000Y-114500000D02*
X167380000Y-119030000D01*
X163940000Y-111060000D02*
X167380000Y-114500000D01*
D27*
X163570000Y-111060000D02*
X163940000Y-111060000D01*
X163620000Y-111110000D02*
X163570000Y-111060000D01*
X157260000Y-108300000D02*
X157260000Y-103080000D01*
X156700000Y-108860000D02*
X157260000Y-108300000D01*
X155260000Y-114920000D02*
X155270000Y-114920000D01*
X153820000Y-113480000D02*
X155260000Y-114920000D01*
X164880000Y-119370000D02*
X164880000Y-121080000D01*
X163580000Y-118070000D02*
X164880000Y-119370000D01*
D28*
X155840000Y-118070000D02*
X163580000Y-118070000D01*
X155270000Y-117500000D02*
X155840000Y-118070000D01*
D27*
X155270000Y-114920000D02*
X155270000Y-117500000D01*
X145270000Y-120340000D02*
X145270000Y-118130000D01*
X149230000Y-117530000D02*
X151100000Y-115660000D01*
X145870000Y-117530000D02*
X149230000Y-117530000D01*
X145270000Y-118130000D02*
X145870000Y-117530000D01*
X159800000Y-121080000D02*
X159800000Y-122870000D01*
X159800000Y-122870000D02*
X156390000Y-126280000D01*
M02*
