G04 #@! TF.FileFunction,Drawing*
%FSLAX46Y46*%
G04 Gerber Fmt 4.6, Leading zero omitted, Abs format (unit mm)*
G04 Created by KiCad (PCBNEW 4.0.6) date 08/24/17 17:14:55*
%MOMM*%
%LPD*%
G01*
G04 APERTURE LIST*
%ADD10C,0.100000*%
%ADD11C,0.300000*%
%ADD12C,0.200000*%
G04 APERTURE END LIST*
D10*
X166247865Y-110400357D02*
X166271126Y-110412349D01*
X166225849Y-110386208D02*
X166247865Y-110400357D01*
X166205278Y-110370031D02*
X166225849Y-110386208D01*
X166186338Y-110351972D02*
X166205278Y-110370031D01*
X166169201Y-110332194D02*
X166186338Y-110351972D01*
X166154020Y-110310876D02*
X166169201Y-110332194D01*
X166140935Y-110288212D02*
X166154020Y-110310876D01*
X166130064Y-110264407D02*
X166140935Y-110288212D01*
X166121505Y-110239676D02*
X166130064Y-110264407D01*
X166115335Y-110214244D02*
X166121505Y-110239676D01*
X166111610Y-110188340D02*
X166115335Y-110214244D01*
X166110365Y-110162200D02*
X166111610Y-110188340D01*
X166111610Y-109836060D02*
X166110365Y-109862200D01*
X166115335Y-109810156D02*
X166111610Y-109836060D01*
X166121505Y-109784724D02*
X166115335Y-109810156D01*
X166130064Y-109759993D02*
X166121505Y-109784724D01*
X166140935Y-109736188D02*
X166130064Y-109759993D01*
X166154020Y-109713524D02*
X166140935Y-109736188D01*
X166169201Y-109692206D02*
X166154020Y-109713524D01*
X166186338Y-109672428D02*
X166169201Y-109692206D01*
X166205278Y-109654369D02*
X166186338Y-109672428D01*
X166225849Y-109638192D02*
X166205278Y-109654369D01*
X166247865Y-109624043D02*
X166225849Y-109638192D01*
X166271126Y-109612051D02*
X166247865Y-109624043D01*
X166110365Y-110162200D02*
X166110365Y-109862200D01*
X166247865Y-115400357D02*
X166271126Y-115412349D01*
X166225849Y-115386208D02*
X166247865Y-115400357D01*
X166205278Y-115370031D02*
X166225849Y-115386208D01*
X166186338Y-115351972D02*
X166205278Y-115370031D01*
X166169201Y-115332194D02*
X166186338Y-115351972D01*
X166154020Y-115310876D02*
X166169201Y-115332194D01*
X166140935Y-115288212D02*
X166154020Y-115310876D01*
X166130064Y-115264407D02*
X166140935Y-115288212D01*
X166121505Y-115239676D02*
X166130064Y-115264407D01*
X166115335Y-115214244D02*
X166121505Y-115239676D01*
X166111610Y-115188340D02*
X166115335Y-115214244D01*
X166110365Y-115162200D02*
X166111610Y-115188340D01*
X166111610Y-114836060D02*
X166110365Y-114862200D01*
X166115335Y-114810156D02*
X166111610Y-114836060D01*
X166121505Y-114784724D02*
X166115335Y-114810156D01*
X166130064Y-114759993D02*
X166121505Y-114784724D01*
X166140935Y-114736188D02*
X166130064Y-114759993D01*
X166154020Y-114713524D02*
X166140935Y-114736188D01*
X166169201Y-114692206D02*
X166154020Y-114713524D01*
X166186338Y-114672428D02*
X166169201Y-114692206D01*
X166205278Y-114654369D02*
X166186338Y-114672428D01*
X166225849Y-114638192D02*
X166205278Y-114654369D01*
X166247865Y-114624043D02*
X166225849Y-114638192D01*
X166271126Y-114612051D02*
X166247865Y-114624043D01*
X166110365Y-115162200D02*
X166110365Y-114862200D01*
X167740007Y-112110576D02*
X167539478Y-112110576D01*
X171299387Y-115730115D02*
X171386911Y-115730115D01*
X166586968Y-116240490D02*
X166586968Y-115529587D01*
X171299387Y-109098681D02*
X171299387Y-108834128D01*
X170214977Y-112055431D02*
X170318445Y-112055431D01*
X166586968Y-109513733D02*
X166586968Y-108802829D01*
X166586968Y-114784563D02*
X166586968Y-115529587D01*
X166586968Y-109513733D02*
X166586968Y-110613812D01*
X170217347Y-112336171D02*
X170322339Y-112336171D01*
X170209475Y-111403714D02*
X170309403Y-111403714D01*
X166286175Y-110591573D02*
X166286175Y-111343555D01*
X166286175Y-113734857D02*
X166286175Y-112646990D01*
X166286175Y-114429508D02*
X166286175Y-113734857D01*
X166586968Y-108761751D02*
X168604640Y-108761751D01*
X169682772Y-108761751D02*
X171299387Y-108761751D01*
X167288818Y-110145398D02*
X167288818Y-110869896D01*
X171299387Y-108761751D02*
X171481875Y-108541793D01*
X170296745Y-110491309D02*
X170393603Y-110491309D01*
X169905714Y-110115318D02*
X169905714Y-109882286D01*
X166349185Y-111308463D02*
X166586968Y-111308463D01*
X170296745Y-109789460D02*
X170393603Y-109789460D01*
X166286175Y-109587614D02*
X166286175Y-110591573D01*
X171299387Y-116281568D02*
X169587533Y-116281568D01*
X168699879Y-116281568D02*
X166586968Y-116281568D01*
X169905714Y-115232550D02*
X169905714Y-115161034D01*
X171299387Y-115730115D02*
X171299387Y-115944638D01*
X170296745Y-114552010D02*
X170393603Y-114552010D01*
X170306771Y-115253860D02*
X170393603Y-115253860D01*
X171299387Y-116281568D02*
X171481875Y-116501526D01*
X166586968Y-115529587D02*
X166286175Y-115529587D01*
X171299387Y-109313204D02*
X171414846Y-109313204D01*
X166286175Y-113734857D02*
X166586968Y-113734857D01*
X166286175Y-115487610D02*
X166286175Y-114429508D01*
X166586968Y-114429508D02*
X166586968Y-114695872D01*
X167288818Y-114897922D02*
X167288818Y-114173424D01*
X167539478Y-112932743D02*
X167740007Y-112932743D01*
X171299387Y-116240490D02*
X171299387Y-115944638D01*
X166286175Y-109513733D02*
X166286175Y-109587614D01*
X166650747Y-114194159D02*
X166586968Y-113865104D01*
X166650747Y-110849160D02*
X166586968Y-111178216D01*
X166286175Y-112396330D02*
X166286175Y-111995273D01*
X167308870Y-113734857D02*
X167288818Y-114173424D01*
X167288818Y-110869896D02*
X167308870Y-111308463D01*
X166591131Y-110736433D02*
X166612683Y-110795726D01*
X171299387Y-109205113D02*
X171299387Y-109143251D01*
X166286175Y-111744612D02*
X166286175Y-111343555D01*
X171299387Y-108834128D02*
X171299387Y-108761751D01*
X166586968Y-114337687D02*
X166599744Y-114276712D01*
X171299387Y-115980776D02*
X171299387Y-115944638D01*
X169905714Y-115232550D02*
X169594895Y-115253860D01*
X170046084Y-115253860D02*
X169905714Y-115232550D01*
X169587533Y-116281568D02*
X168699879Y-116281568D01*
X170283341Y-111684453D02*
X170313646Y-111709520D01*
X167539478Y-112110576D02*
X167439214Y-112110576D01*
X166586968Y-111178216D02*
X166586968Y-111308463D01*
X170468856Y-109789460D02*
X170438550Y-109796292D01*
X170171414Y-111709520D02*
X170211845Y-111684453D01*
X169594895Y-109789460D02*
X168822860Y-109789460D01*
X170046084Y-109789460D02*
X169594895Y-109789460D01*
X170468856Y-114552010D02*
X170438550Y-114558843D01*
X166586968Y-110613812D02*
X166586968Y-110705633D01*
X167308870Y-111308463D02*
X166586968Y-111308463D01*
X167589610Y-111308463D02*
X167308870Y-111308463D01*
X166586968Y-114337687D02*
X166586968Y-114429508D01*
X169594895Y-115253860D02*
X168822860Y-115253860D01*
X167589610Y-113734857D02*
X167308870Y-113734857D01*
X170225981Y-113358866D02*
X170288984Y-113358866D01*
X170220479Y-112707149D02*
X170286788Y-112707149D01*
X170211845Y-111684453D02*
X170283341Y-111684453D01*
X167316479Y-112110576D02*
X167343290Y-112129657D01*
X167316479Y-112932743D02*
X167343290Y-112913663D01*
X170231483Y-114010584D02*
X170291181Y-114010584D01*
X170222849Y-112987888D02*
X170287734Y-112987888D01*
X170228351Y-113639606D02*
X170289931Y-113639606D01*
X166586968Y-113734857D02*
X167308870Y-113734857D01*
X166349185Y-111343555D02*
X166286175Y-111343555D01*
X166286175Y-112396330D02*
X166286175Y-112646990D01*
X166349185Y-112646990D02*
X166286175Y-112646990D01*
X166349185Y-112396330D02*
X166286175Y-112396330D01*
X166286175Y-111744612D02*
X166286175Y-111995273D01*
X166349185Y-111995273D02*
X166286175Y-111995273D01*
X166349185Y-111744612D02*
X166286175Y-111744612D01*
X170700407Y-110290781D02*
X170700407Y-109989988D01*
X169588062Y-108763029D02*
X169682772Y-108761751D01*
X167343290Y-112129657D02*
X167374338Y-112119118D01*
X170296745Y-109664129D02*
X170292474Y-109631691D01*
X170292474Y-109631691D02*
X170279953Y-109601464D01*
X170260036Y-109575507D02*
X170234079Y-109555590D01*
X170108749Y-109555590D02*
X170082792Y-109575507D01*
X171299387Y-109313204D02*
X171299387Y-115730115D01*
X166766951Y-110926822D02*
X166733848Y-110911824D01*
X166675329Y-110872714D02*
X166650747Y-110849160D01*
X166650747Y-110849160D02*
X166629765Y-110823375D01*
X170279953Y-109601464D02*
X170260036Y-109575507D01*
X167374338Y-112119118D02*
X167406496Y-112112721D01*
X167188553Y-112361237D02*
X167190698Y-112328519D01*
X167197094Y-112296361D02*
X167207634Y-112265313D01*
X166703161Y-110893702D02*
X166675329Y-110872714D01*
X166599744Y-110766607D02*
X166591131Y-110736433D01*
X166887761Y-110952028D02*
X166838495Y-110946641D01*
X167188553Y-112361237D02*
X167188553Y-112682083D01*
X166802000Y-110938483D02*
X166766951Y-110926822D01*
X166612683Y-110795726D02*
X166599744Y-110766607D01*
X166838495Y-110946641D02*
X166802000Y-110938483D01*
X167286621Y-112162375D02*
X167313884Y-112144159D01*
X170669385Y-109889724D02*
X170632587Y-109848193D01*
X166591131Y-110736433D02*
X166586968Y-110705633D01*
X167261970Y-112183993D02*
X167286621Y-112162375D01*
X170468856Y-109789460D02*
X170528786Y-109796292D01*
X166703161Y-110893702D02*
X166733848Y-110911824D01*
X170138976Y-109543069D02*
X170108749Y-109555590D01*
X170279953Y-110679305D02*
X170260036Y-110705261D01*
X170260036Y-110705261D02*
X170234079Y-110725179D01*
X170234079Y-110725179D02*
X170203852Y-110737699D01*
X167288818Y-110145398D02*
X167589610Y-110145398D01*
X167589610Y-110145398D02*
X167589610Y-111308463D01*
X170692517Y-109938087D02*
X170700407Y-109989988D01*
X170692517Y-110342681D02*
X170669385Y-110391045D01*
X170700407Y-110290781D02*
X170692517Y-110342681D01*
X170296745Y-110616639D02*
X170292474Y-110649077D01*
X170296745Y-109789460D02*
X170296745Y-109664129D01*
X166286175Y-110591573D02*
X166586968Y-110613812D01*
X167539478Y-112932743D02*
X167539478Y-112110576D01*
X170046084Y-110491309D02*
X168822860Y-110491309D01*
X170292474Y-110649077D02*
X170279953Y-110679305D01*
X167222136Y-112235907D02*
X167207634Y-112265313D01*
X167240352Y-112208645D02*
X167222136Y-112235907D01*
X167261970Y-112183993D02*
X167240352Y-112208645D01*
X167406496Y-112112721D02*
X167439214Y-112110576D01*
X171299387Y-109313204D02*
X171299387Y-109239840D01*
X171299387Y-109239840D02*
X171299387Y-109172687D01*
X171299387Y-109172687D02*
X171299387Y-109098681D01*
X171299387Y-108834128D02*
X171299387Y-108802829D01*
X168604640Y-108761751D02*
X168699350Y-108763029D01*
X169588062Y-108763029D02*
X168699350Y-108763029D01*
X170393603Y-109789460D02*
X170468856Y-109789460D01*
X170584632Y-110464443D02*
X170528786Y-110484476D01*
X170528786Y-110484476D02*
X170468856Y-110491309D01*
X170393603Y-110491309D02*
X170468856Y-110491309D01*
X170692517Y-109938087D02*
X170669385Y-109889724D01*
X170203852Y-110737699D02*
X170171414Y-110741970D01*
X170171414Y-110741970D02*
X170138976Y-110737699D01*
X170138976Y-110737699D02*
X170108749Y-110725179D01*
X170480434Y-109816325D02*
X170438550Y-109796292D01*
X170543999Y-109889724D02*
X170516401Y-109848193D01*
X170561348Y-109938087D02*
X170543999Y-109889724D01*
X170567265Y-109989988D02*
X170561348Y-109938087D01*
X170567265Y-110290781D02*
X170567265Y-109989988D01*
X170561348Y-110342681D02*
X170567265Y-110290781D01*
X170543999Y-110391045D02*
X170561348Y-110342681D01*
X170516401Y-110432576D02*
X170543999Y-110391045D01*
X170480434Y-110464443D02*
X170516401Y-110432576D01*
X170438550Y-110484476D02*
X170480434Y-110464443D01*
X170393603Y-110491309D02*
X170438550Y-110484476D01*
X170296745Y-110491309D02*
X170296745Y-109789460D01*
X171299387Y-109143251D02*
X171299387Y-109098681D01*
X171299387Y-109172687D02*
X171299387Y-109143251D01*
X171299387Y-109205113D02*
X171299387Y-109172687D01*
X171299387Y-109239840D02*
X171299387Y-109205113D01*
X169600190Y-114887778D02*
X169594895Y-114928001D01*
X168841145Y-108621234D02*
X168792781Y-108641267D01*
X168893045Y-108614401D02*
X168841145Y-108621234D01*
X169394366Y-108614401D02*
X168893045Y-108614401D01*
X169446267Y-108621234D02*
X169394366Y-108614401D01*
X169594895Y-110115318D02*
X169594895Y-109789460D01*
X169600190Y-110155541D02*
X169594895Y-110115318D01*
X169615716Y-110193023D02*
X169600190Y-110155541D01*
X169640413Y-110225209D02*
X169615716Y-110193023D01*
X169672600Y-110249907D02*
X169640413Y-110225209D01*
X169710082Y-110265432D02*
X169672600Y-110249907D01*
X169750304Y-110270728D02*
X169710082Y-110265432D01*
X169790527Y-110265432D02*
X169750304Y-110270728D01*
X169828009Y-110249907D02*
X169790527Y-110265432D01*
X169860196Y-110225209D02*
X169828009Y-110249907D01*
X169884893Y-110193023D02*
X169860196Y-110225209D01*
X169900419Y-110155541D02*
X169884893Y-110193023D01*
X169905714Y-110115318D02*
X169900419Y-110155541D01*
X170117229Y-111729572D02*
X170062875Y-111729572D01*
X169588062Y-108763029D02*
X169568029Y-108714665D01*
X169568029Y-108714665D02*
X169536162Y-108673134D01*
X169536162Y-108673134D02*
X169494631Y-108641267D01*
X169494631Y-108641267D02*
X169446267Y-108621234D01*
X166286175Y-109513733D02*
X166586968Y-109513733D01*
X170171414Y-109538799D02*
X170138976Y-109543069D01*
X170108749Y-110725179D02*
X170082792Y-110705261D01*
X170082792Y-110705261D02*
X170062875Y-110679305D01*
X170062875Y-110679305D02*
X170050354Y-110649077D01*
X170050354Y-110649077D02*
X170046084Y-110616639D01*
X166887761Y-110952028D02*
X167188553Y-110952028D01*
X170438550Y-109796292D02*
X170393603Y-109789460D01*
X168792781Y-108641267D02*
X168751250Y-108673134D01*
X168751250Y-108673134D02*
X168719383Y-108714665D01*
X168719383Y-108714665D02*
X168699350Y-108763029D01*
X170234079Y-109555590D02*
X170203852Y-109543069D01*
X166286175Y-109587614D02*
X166286175Y-109555710D01*
X169828009Y-114793413D02*
X169790527Y-114777887D01*
X169790527Y-114777887D02*
X169750304Y-114772592D01*
X169750304Y-114772592D02*
X169710082Y-114777887D01*
X169710082Y-114777887D02*
X169672600Y-114793413D01*
X169672600Y-114793413D02*
X169640413Y-114818110D01*
X169640413Y-114818110D02*
X169615716Y-114850297D01*
X169615716Y-114850297D02*
X169600190Y-114887778D01*
X170528786Y-115247027D02*
X170584632Y-115226994D01*
X170296745Y-114552010D02*
X170306771Y-115253860D01*
X170393603Y-114552010D02*
X170438550Y-114558843D01*
X170438550Y-114558843D02*
X170480434Y-114578876D01*
X170480434Y-114578876D02*
X170516401Y-114610744D01*
X170516401Y-114610744D02*
X170543999Y-114652275D01*
X170543999Y-114652275D02*
X170561348Y-114700638D01*
X170561348Y-114700638D02*
X170567265Y-114752539D01*
X170561348Y-115105232D02*
X170543999Y-115153596D01*
X169905714Y-115393038D02*
X169905714Y-115456581D01*
X170480434Y-115226994D02*
X170438550Y-115247027D01*
X170516401Y-115195127D02*
X170480434Y-115226994D01*
X168699879Y-116281568D02*
X168719383Y-116328655D01*
X168719383Y-116328655D02*
X168751250Y-116370185D01*
X168751250Y-116370185D02*
X168792781Y-116402053D01*
X168792781Y-116402053D02*
X168841145Y-116422086D01*
X168841145Y-116422086D02*
X168893045Y-116428919D01*
X169568029Y-116328655D02*
X169587533Y-116281568D01*
X169536162Y-116370185D02*
X169568029Y-116328655D01*
X169494631Y-116402053D02*
X169536162Y-116370185D01*
X169446267Y-116422086D02*
X169494631Y-116402053D01*
X169394366Y-116428919D02*
X169446267Y-116422086D01*
X169594895Y-115332962D02*
X169594895Y-115429258D01*
X169594895Y-114928001D02*
X169594895Y-115253860D01*
X169394366Y-116428919D02*
X168893045Y-116428919D01*
X170393603Y-114552010D02*
X170468856Y-114552010D01*
X170567265Y-114752539D02*
X170567265Y-115053332D01*
X169905714Y-114928001D02*
X169900419Y-114887778D01*
X169900419Y-114887778D02*
X169884893Y-114850297D01*
X169884893Y-114850297D02*
X169860196Y-114818110D01*
X169860196Y-114818110D02*
X169828009Y-114793413D01*
X170296745Y-114426680D02*
X170292474Y-114394242D01*
X170234079Y-114318141D02*
X170203852Y-114305620D01*
X170203852Y-114305620D02*
X170171414Y-114301350D01*
X170171414Y-114301350D02*
X170138976Y-114305620D01*
X170138976Y-114305620D02*
X170108749Y-114318141D01*
X170108749Y-114318141D02*
X170082792Y-114338058D01*
X170082792Y-114338058D02*
X170062875Y-114364015D01*
X170062875Y-114364015D02*
X170050354Y-114394242D01*
X170050354Y-114394242D02*
X170046084Y-114426680D01*
X167288818Y-114897922D02*
X167589610Y-114897922D01*
X167589610Y-114897922D02*
X167589610Y-113734857D01*
X169905714Y-114928001D02*
X169905714Y-115124967D01*
X170543999Y-115153596D02*
X170516401Y-115195127D01*
X170567265Y-115053332D02*
X170561348Y-115105232D01*
X167313884Y-112144159D02*
X167343290Y-112129657D01*
X166286175Y-114429508D02*
X166586968Y-114429508D01*
X166586968Y-113865104D02*
X166586968Y-113734857D01*
X170292474Y-114394242D02*
X170279953Y-114364015D01*
X170279953Y-114364015D02*
X170260036Y-114338058D01*
X170260036Y-114338058D02*
X170234079Y-114318141D01*
X166703161Y-114149618D02*
X166675329Y-114170605D01*
X166733848Y-114131496D02*
X166703161Y-114149618D01*
X166766951Y-114116498D02*
X166733848Y-114131496D01*
X166802000Y-114104836D02*
X166766951Y-114116498D01*
X166838495Y-114096679D02*
X166802000Y-114104836D01*
X166887761Y-114091291D02*
X166838495Y-114096679D01*
X166591131Y-114306887D02*
X166586968Y-114337687D01*
X166599744Y-114276712D02*
X166591131Y-114306887D01*
X166612683Y-114247593D02*
X166599744Y-114276712D01*
X166629765Y-114219944D02*
X166612683Y-114247593D01*
X166650747Y-114194159D02*
X166629765Y-114219944D01*
X166675329Y-114170605D02*
X166650747Y-114194159D01*
X170438550Y-115247027D02*
X170393603Y-115253860D01*
X170468856Y-115253860D02*
X170528786Y-115247027D01*
X170393603Y-115253860D02*
X170468856Y-115253860D01*
X166887761Y-114091291D02*
X167188553Y-114091291D01*
X167539478Y-112932743D02*
X167439214Y-112932743D01*
X167406496Y-112930599D02*
X167439214Y-112932743D01*
X167374338Y-112924202D02*
X167406496Y-112930599D01*
X167343290Y-112913663D02*
X167374338Y-112924202D01*
X167313884Y-112899161D02*
X167343290Y-112913663D01*
X167286621Y-112880945D02*
X167313884Y-112899161D01*
X167261970Y-112859326D02*
X167286621Y-112880945D01*
X167240352Y-112834675D02*
X167261970Y-112859326D01*
X167222136Y-112807413D02*
X167240352Y-112834675D01*
X167207634Y-112778006D02*
X167222136Y-112807413D01*
X167197094Y-112746958D02*
X167207634Y-112778006D01*
X167190698Y-112714800D02*
X167197094Y-112746958D01*
X167188553Y-112682083D02*
X167190698Y-112714800D01*
X170296745Y-114552010D02*
X170296745Y-114426680D01*
X170046084Y-114552010D02*
X168822860Y-114552010D01*
X170046084Y-114426680D02*
X170046084Y-114552010D01*
X170046084Y-115379190D02*
X170046084Y-115253860D01*
X170082792Y-115467812D02*
X170062875Y-115441856D01*
X170050354Y-115411628D02*
X170046084Y-115379190D01*
X168822860Y-115253860D02*
X168822860Y-114552010D01*
X170062875Y-115441856D02*
X170050354Y-115411628D01*
X170108749Y-115487730D02*
X170082792Y-115467812D01*
X170138976Y-115500250D02*
X170108749Y-115487730D01*
X170171414Y-115504521D02*
X170138976Y-115500250D01*
X170203852Y-115500250D02*
X170171414Y-115504521D01*
X170234079Y-115487730D02*
X170203852Y-115500250D01*
X170260036Y-115467812D02*
X170234079Y-115487730D01*
X170279953Y-115441856D02*
X170260036Y-115467812D01*
X170292474Y-115411628D02*
X170279953Y-115441856D01*
X170296745Y-115379190D02*
X170292474Y-115411628D01*
X170306771Y-115253860D02*
X170296745Y-115379190D01*
X166629765Y-110823375D02*
X166612683Y-110795726D01*
X167190698Y-112328519D02*
X167197094Y-112296361D01*
X170046084Y-109664129D02*
X170046084Y-109789460D01*
X168822860Y-109789460D02*
X168822860Y-110491309D01*
X170062875Y-109601464D02*
X170050354Y-109631691D01*
X170046084Y-110616639D02*
X170046084Y-110491309D01*
X170050354Y-109631691D02*
X170046084Y-109664129D01*
X170296745Y-110491309D02*
X170296745Y-110616639D01*
X170203852Y-109543069D02*
X170171414Y-109538799D01*
X170082792Y-109575507D02*
X170062875Y-109601464D01*
X170516401Y-109848193D02*
X170480434Y-109816325D01*
X170528786Y-109796292D02*
X170584632Y-109816325D01*
X170584632Y-110464443D02*
X170632587Y-110432576D01*
X170632587Y-110432576D02*
X170669385Y-110391045D01*
X170584632Y-109816325D02*
X170632587Y-109848193D01*
X170632587Y-115195127D02*
X170669385Y-115153596D01*
X170692517Y-115105232D02*
X170700407Y-115053332D01*
X170468856Y-114552010D02*
X170528786Y-114558843D01*
X170669385Y-115153596D02*
X170692517Y-115105232D01*
X170584632Y-115226994D02*
X170632587Y-115195127D01*
X170692517Y-114700638D02*
X170669385Y-114652275D01*
X170700407Y-114752539D02*
X170692517Y-114700638D01*
X170584632Y-114578876D02*
X170632587Y-114610744D01*
X170700407Y-115053332D02*
X170700407Y-114752539D01*
X170669385Y-114652275D02*
X170632587Y-114610744D01*
X170528786Y-114558843D02*
X170584632Y-114578876D01*
D11*
X189170001Y-111828571D02*
X188312858Y-111828571D01*
X188741430Y-111828571D02*
X188741430Y-110328571D01*
X188598573Y-110542857D01*
X188455715Y-110685714D01*
X188312858Y-110757143D01*
X189812858Y-111828571D02*
X189812858Y-110828571D01*
X189812858Y-110971429D02*
X189884286Y-110900000D01*
X190027144Y-110828571D01*
X190241429Y-110828571D01*
X190384286Y-110900000D01*
X190455715Y-111042857D01*
X190455715Y-111828571D01*
X190455715Y-111042857D02*
X190527144Y-110900000D01*
X190670001Y-110828571D01*
X190884286Y-110828571D01*
X191027144Y-110900000D01*
X191098572Y-111042857D01*
X191098572Y-111828571D01*
X191812858Y-111828571D02*
X191812858Y-110828571D01*
X191812858Y-110971429D02*
X191884286Y-110900000D01*
X192027144Y-110828571D01*
X192241429Y-110828571D01*
X192384286Y-110900000D01*
X192455715Y-111042857D01*
X192455715Y-111828571D01*
X192455715Y-111042857D02*
X192527144Y-110900000D01*
X192670001Y-110828571D01*
X192884286Y-110828571D01*
X193027144Y-110900000D01*
X193098572Y-111042857D01*
X193098572Y-111828571D01*
X195598572Y-111828571D02*
X195598572Y-110328571D01*
X195598572Y-111757143D02*
X195455715Y-111828571D01*
X195170001Y-111828571D01*
X195027143Y-111757143D01*
X194955715Y-111685714D01*
X194884286Y-111542857D01*
X194884286Y-111114286D01*
X194955715Y-110971429D01*
X195027143Y-110900000D01*
X195170001Y-110828571D01*
X195455715Y-110828571D01*
X195598572Y-110900000D01*
X196312858Y-111828571D02*
X196312858Y-110828571D01*
X196312858Y-111114286D02*
X196384286Y-110971429D01*
X196455715Y-110900000D01*
X196598572Y-110828571D01*
X196741429Y-110828571D01*
X197241429Y-111828571D02*
X197241429Y-110828571D01*
X197241429Y-110328571D02*
X197170000Y-110400000D01*
X197241429Y-110471429D01*
X197312857Y-110400000D01*
X197241429Y-110328571D01*
X197241429Y-110471429D01*
X198170001Y-111828571D02*
X198027143Y-111757143D01*
X197955715Y-111614286D01*
X197955715Y-110328571D01*
X198955715Y-111828571D02*
X198812857Y-111757143D01*
X198741429Y-111614286D01*
X198741429Y-110328571D01*
X201312857Y-111757143D02*
X201170000Y-111828571D01*
X200884286Y-111828571D01*
X200741428Y-111757143D01*
X200670000Y-111685714D01*
X200598571Y-111542857D01*
X200598571Y-111114286D01*
X200670000Y-110971429D01*
X200741428Y-110900000D01*
X200884286Y-110828571D01*
X201170000Y-110828571D01*
X201312857Y-110900000D01*
X202598571Y-110828571D02*
X202598571Y-111828571D01*
X201955714Y-110828571D02*
X201955714Y-111614286D01*
X202027142Y-111757143D01*
X202170000Y-111828571D01*
X202384285Y-111828571D01*
X202527142Y-111757143D01*
X202598571Y-111685714D01*
X203098571Y-110828571D02*
X203670000Y-110828571D01*
X203312857Y-110328571D02*
X203312857Y-111614286D01*
X203384285Y-111757143D01*
X203527143Y-111828571D01*
X203670000Y-111828571D01*
X189450001Y-124698571D02*
X188592858Y-124698571D01*
X189021430Y-124698571D02*
X189021430Y-123198571D01*
X188878573Y-123412857D01*
X188735715Y-123555714D01*
X188592858Y-123627143D01*
X190092858Y-124698571D02*
X190092858Y-123698571D01*
X190092858Y-123841429D02*
X190164286Y-123770000D01*
X190307144Y-123698571D01*
X190521429Y-123698571D01*
X190664286Y-123770000D01*
X190735715Y-123912857D01*
X190735715Y-124698571D01*
X190735715Y-123912857D02*
X190807144Y-123770000D01*
X190950001Y-123698571D01*
X191164286Y-123698571D01*
X191307144Y-123770000D01*
X191378572Y-123912857D01*
X191378572Y-124698571D01*
X192092858Y-124698571D02*
X192092858Y-123698571D01*
X192092858Y-123841429D02*
X192164286Y-123770000D01*
X192307144Y-123698571D01*
X192521429Y-123698571D01*
X192664286Y-123770000D01*
X192735715Y-123912857D01*
X192735715Y-124698571D01*
X192735715Y-123912857D02*
X192807144Y-123770000D01*
X192950001Y-123698571D01*
X193164286Y-123698571D01*
X193307144Y-123770000D01*
X193378572Y-123912857D01*
X193378572Y-124698571D01*
X195878572Y-124698571D02*
X195878572Y-123198571D01*
X195878572Y-124627143D02*
X195735715Y-124698571D01*
X195450001Y-124698571D01*
X195307143Y-124627143D01*
X195235715Y-124555714D01*
X195164286Y-124412857D01*
X195164286Y-123984286D01*
X195235715Y-123841429D01*
X195307143Y-123770000D01*
X195450001Y-123698571D01*
X195735715Y-123698571D01*
X195878572Y-123770000D01*
X196592858Y-124698571D02*
X196592858Y-123698571D01*
X196592858Y-123984286D02*
X196664286Y-123841429D01*
X196735715Y-123770000D01*
X196878572Y-123698571D01*
X197021429Y-123698571D01*
X197521429Y-124698571D02*
X197521429Y-123698571D01*
X197521429Y-123198571D02*
X197450000Y-123270000D01*
X197521429Y-123341429D01*
X197592857Y-123270000D01*
X197521429Y-123198571D01*
X197521429Y-123341429D01*
X198450001Y-124698571D02*
X198307143Y-124627143D01*
X198235715Y-124484286D01*
X198235715Y-123198571D01*
X199235715Y-124698571D02*
X199092857Y-124627143D01*
X199021429Y-124484286D01*
X199021429Y-123198571D01*
X201592857Y-124627143D02*
X201450000Y-124698571D01*
X201164286Y-124698571D01*
X201021428Y-124627143D01*
X200950000Y-124555714D01*
X200878571Y-124412857D01*
X200878571Y-123984286D01*
X200950000Y-123841429D01*
X201021428Y-123770000D01*
X201164286Y-123698571D01*
X201450000Y-123698571D01*
X201592857Y-123770000D01*
X202878571Y-123698571D02*
X202878571Y-124698571D01*
X202235714Y-123698571D02*
X202235714Y-124484286D01*
X202307142Y-124627143D01*
X202450000Y-124698571D01*
X202664285Y-124698571D01*
X202807142Y-124627143D01*
X202878571Y-124555714D01*
X203378571Y-123698571D02*
X203950000Y-123698571D01*
X203592857Y-123198571D02*
X203592857Y-124484286D01*
X203664285Y-124627143D01*
X203807143Y-124698571D01*
X203950000Y-124698571D01*
X166275715Y-140387143D02*
X166490001Y-140458571D01*
X166847144Y-140458571D01*
X166990001Y-140387143D01*
X167061430Y-140315714D01*
X167132858Y-140172857D01*
X167132858Y-140030000D01*
X167061430Y-139887143D01*
X166990001Y-139815714D01*
X166847144Y-139744286D01*
X166561430Y-139672857D01*
X166418572Y-139601429D01*
X166347144Y-139530000D01*
X166275715Y-139387143D01*
X166275715Y-139244286D01*
X166347144Y-139101429D01*
X166418572Y-139030000D01*
X166561430Y-138958571D01*
X166918572Y-138958571D01*
X167132858Y-139030000D01*
X168418572Y-140387143D02*
X168275715Y-140458571D01*
X167990001Y-140458571D01*
X167847143Y-140387143D01*
X167775715Y-140315714D01*
X167704286Y-140172857D01*
X167704286Y-139744286D01*
X167775715Y-139601429D01*
X167847143Y-139530000D01*
X167990001Y-139458571D01*
X168275715Y-139458571D01*
X168418572Y-139530000D01*
X169275715Y-140458571D02*
X169132857Y-140387143D01*
X169061429Y-140315714D01*
X168990000Y-140172857D01*
X168990000Y-139744286D01*
X169061429Y-139601429D01*
X169132857Y-139530000D01*
X169275715Y-139458571D01*
X169490000Y-139458571D01*
X169632857Y-139530000D01*
X169704286Y-139601429D01*
X169775715Y-139744286D01*
X169775715Y-140172857D01*
X169704286Y-140315714D01*
X169632857Y-140387143D01*
X169490000Y-140458571D01*
X169275715Y-140458571D01*
X170418572Y-140458571D02*
X170418572Y-139458571D01*
X170418572Y-139744286D02*
X170490000Y-139601429D01*
X170561429Y-139530000D01*
X170704286Y-139458571D01*
X170847143Y-139458571D01*
X171347143Y-140458571D02*
X171347143Y-139458571D01*
X171347143Y-138958571D02*
X171275714Y-139030000D01*
X171347143Y-139101429D01*
X171418571Y-139030000D01*
X171347143Y-138958571D01*
X171347143Y-139101429D01*
X172061429Y-139458571D02*
X172061429Y-140458571D01*
X172061429Y-139601429D02*
X172132857Y-139530000D01*
X172275715Y-139458571D01*
X172490000Y-139458571D01*
X172632857Y-139530000D01*
X172704286Y-139672857D01*
X172704286Y-140458571D01*
X174061429Y-139458571D02*
X174061429Y-140672857D01*
X173990000Y-140815714D01*
X173918572Y-140887143D01*
X173775715Y-140958571D01*
X173561429Y-140958571D01*
X173418572Y-140887143D01*
X174061429Y-140387143D02*
X173918572Y-140458571D01*
X173632858Y-140458571D01*
X173490000Y-140387143D01*
X173418572Y-140315714D01*
X173347143Y-140172857D01*
X173347143Y-139744286D01*
X173418572Y-139601429D01*
X173490000Y-139530000D01*
X173632858Y-139458571D01*
X173918572Y-139458571D01*
X174061429Y-139530000D01*
X176132858Y-140458571D02*
X175990000Y-140387143D01*
X175918572Y-140244286D01*
X175918572Y-138958571D01*
X176704286Y-140458571D02*
X176704286Y-139458571D01*
X176704286Y-138958571D02*
X176632857Y-139030000D01*
X176704286Y-139101429D01*
X176775714Y-139030000D01*
X176704286Y-138958571D01*
X176704286Y-139101429D01*
X177418572Y-139458571D02*
X177418572Y-140458571D01*
X177418572Y-139601429D02*
X177490000Y-139530000D01*
X177632858Y-139458571D01*
X177847143Y-139458571D01*
X177990000Y-139530000D01*
X178061429Y-139672857D01*
X178061429Y-140458571D01*
X179347143Y-140387143D02*
X179204286Y-140458571D01*
X178918572Y-140458571D01*
X178775715Y-140387143D01*
X178704286Y-140244286D01*
X178704286Y-139672857D01*
X178775715Y-139530000D01*
X178918572Y-139458571D01*
X179204286Y-139458571D01*
X179347143Y-139530000D01*
X179418572Y-139672857D01*
X179418572Y-139815714D01*
X178704286Y-139958571D01*
X181490000Y-138958571D02*
X181632857Y-138958571D01*
X181775714Y-139030000D01*
X181847143Y-139101429D01*
X181918572Y-139244286D01*
X181990000Y-139530000D01*
X181990000Y-139887143D01*
X181918572Y-140172857D01*
X181847143Y-140315714D01*
X181775714Y-140387143D01*
X181632857Y-140458571D01*
X181490000Y-140458571D01*
X181347143Y-140387143D01*
X181275714Y-140315714D01*
X181204286Y-140172857D01*
X181132857Y-139887143D01*
X181132857Y-139530000D01*
X181204286Y-139244286D01*
X181275714Y-139101429D01*
X181347143Y-139030000D01*
X181490000Y-138958571D01*
X182632857Y-140315714D02*
X182704285Y-140387143D01*
X182632857Y-140458571D01*
X182561428Y-140387143D01*
X182632857Y-140315714D01*
X182632857Y-140458571D01*
X184061429Y-138958571D02*
X183347143Y-138958571D01*
X183275714Y-139672857D01*
X183347143Y-139601429D01*
X183490000Y-139530000D01*
X183847143Y-139530000D01*
X183990000Y-139601429D01*
X184061429Y-139672857D01*
X184132857Y-139815714D01*
X184132857Y-140172857D01*
X184061429Y-140315714D01*
X183990000Y-140387143D01*
X183847143Y-140458571D01*
X183490000Y-140458571D01*
X183347143Y-140387143D01*
X183275714Y-140315714D01*
X184775714Y-140458571D02*
X184775714Y-139458571D01*
X184775714Y-139601429D02*
X184847142Y-139530000D01*
X184990000Y-139458571D01*
X185204285Y-139458571D01*
X185347142Y-139530000D01*
X185418571Y-139672857D01*
X185418571Y-140458571D01*
X185418571Y-139672857D02*
X185490000Y-139530000D01*
X185632857Y-139458571D01*
X185847142Y-139458571D01*
X185990000Y-139530000D01*
X186061428Y-139672857D01*
X186061428Y-140458571D01*
X186775714Y-140458571D02*
X186775714Y-139458571D01*
X186775714Y-139601429D02*
X186847142Y-139530000D01*
X186990000Y-139458571D01*
X187204285Y-139458571D01*
X187347142Y-139530000D01*
X187418571Y-139672857D01*
X187418571Y-140458571D01*
X187418571Y-139672857D02*
X187490000Y-139530000D01*
X187632857Y-139458571D01*
X187847142Y-139458571D01*
X187990000Y-139530000D01*
X188061428Y-139672857D01*
X188061428Y-140458571D01*
X189775714Y-139458571D02*
X190061428Y-140458571D01*
X190347142Y-139744286D01*
X190632857Y-140458571D01*
X190918571Y-139458571D01*
X191490000Y-140458571D02*
X191490000Y-139458571D01*
X191490000Y-138958571D02*
X191418571Y-139030000D01*
X191490000Y-139101429D01*
X191561428Y-139030000D01*
X191490000Y-138958571D01*
X191490000Y-139101429D01*
X192847143Y-140458571D02*
X192847143Y-138958571D01*
X192847143Y-140387143D02*
X192704286Y-140458571D01*
X192418572Y-140458571D01*
X192275714Y-140387143D01*
X192204286Y-140315714D01*
X192132857Y-140172857D01*
X192132857Y-139744286D01*
X192204286Y-139601429D01*
X192275714Y-139530000D01*
X192418572Y-139458571D01*
X192704286Y-139458571D01*
X192847143Y-139530000D01*
X194132857Y-140387143D02*
X193990000Y-140458571D01*
X193704286Y-140458571D01*
X193561429Y-140387143D01*
X193490000Y-140244286D01*
X193490000Y-139672857D01*
X193561429Y-139530000D01*
X193704286Y-139458571D01*
X193990000Y-139458571D01*
X194132857Y-139530000D01*
X194204286Y-139672857D01*
X194204286Y-139815714D01*
X193490000Y-139958571D01*
D12*
X171570000Y-98660000D02*
X171570000Y-138250000D01*
M02*
