G04 #@! TF.FileFunction,Profile,NP*
%FSLAX46Y46*%
G04 Gerber Fmt 4.6, Leading zero omitted, Abs format (unit mm)*
G04 Created by KiCad (PCBNEW 4.0.6) date 08/24/17 17:14:55*
%MOMM*%
%LPD*%
G01*
G04 APERTURE LIST*
%ADD10C,0.100000*%
%ADD11C,1.800000*%
%ADD12C,1.000000*%
%ADD13C,0.150000*%
G04 APERTURE END LIST*
D10*
D11*
X154040000Y-132040000D02*
X166050000Y-132040000D01*
D12*
X184480000Y-124180000D02*
X171870000Y-124180000D01*
X184480000Y-111310000D02*
X171870000Y-111310000D01*
D13*
X171800000Y-111730000D02*
X171800000Y-123740000D01*
X171810000Y-124600000D02*
X171810000Y-136610000D01*
X184400000Y-98870000D02*
X184400000Y-110870000D01*
X171820000Y-98864000D02*
X184398000Y-98864000D01*
X171820000Y-110872000D02*
X184398000Y-110872000D01*
X184390000Y-111730000D02*
X184390000Y-123740000D01*
X171800000Y-111732000D02*
X184388000Y-111732000D01*
X171800000Y-123742000D02*
X184388000Y-123742000D01*
X171820000Y-98862000D02*
X171820000Y-110872000D01*
X171300000Y-98870000D02*
X171300000Y-136610000D01*
X166000000Y-132830000D02*
X153990000Y-132830000D01*
X153990000Y-131230000D02*
X166000000Y-131230000D01*
X166000000Y-131230000D02*
X166000000Y-132830000D01*
X153990000Y-131230000D02*
X153990000Y-132830000D01*
X184398000Y-124600000D02*
X171808000Y-124600000D01*
X184398000Y-136420000D02*
X184398000Y-124600000D01*
X184398000Y-136610000D02*
X184398000Y-136420000D01*
X171808000Y-136610000D02*
X184398000Y-136610000D01*
X121280000Y-136610000D02*
X121280000Y-98860000D01*
X171300000Y-136610000D02*
X121300000Y-136610000D01*
X121290000Y-98860000D02*
X171290000Y-98860000D01*
M02*
