M48
;DRILL file {KiCad 4.0.6} date 08/24/17 17:14:57
;FORMAT={-:-/ absolute / inch / decimal}
FMAT,2
INCH,TZ
T1C0.016
T2C0.020
T3C0.022
T4C0.024
T5C0.030
T6C0.039
T7C0.043
T8C0.051
%
G90
G05
M72
T1
X5.0839Y-4.252
X5.1264Y-4.2224
X5.2555Y-4.5902
X5.2598Y-4.5335
X5.2768Y-4.2441
X5.2795Y-4.6118
X5.3685Y-5.2803
X5.3705Y-5.1291
X5.3953Y-4.4346
X5.4185Y-4.2319
X5.5606Y-5.1768
X5.8398Y-5.2319
X5.848Y-4.4067
X5.8488Y-4.0705
X5.8665Y-5.1161
X5.8717Y-4.2217
X5.9118Y-4.6594
X5.9181Y-4.9268
X5.9413Y-5.0559
X5.9476Y-4.1181
X5.9488Y-4.5535
X5.9508Y-5.148
X5.9571Y-4.8453
X5.972Y-5.0996
X6.0331Y-4.1528
X6.048Y-5.1354
X6.0488Y-4.3445
X6.0559Y-4.4677
X6.0827Y-4.3429
X6.1409Y-4.6909
X6.1571Y-4.9717
X6.1693Y-4.2858
X6.1701Y-4.622
X6.1748Y-4.4504
X6.1803Y-4.6945
X6.1909Y-5.0114
X6.2087Y-4.3583
X6.2343Y-4.4043
X6.2437Y-4.463
X6.2992Y-5.3374
X6.3323Y-4.5752
X6.3787Y-5.0583
X6.4417Y-4.3744
X6.4732Y-4.863
X6.5382Y-4.6319
T5
X5.9913Y-4.0583
X5.9913Y-4.7669
X6.0913Y-4.0583
X6.0913Y-4.7669
X6.1913Y-4.0583
X6.1913Y-4.7669
X6.2913Y-4.0583
X6.2913Y-4.7669
X6.3913Y-4.0583
X6.3913Y-4.7669
X6.4913Y-4.0583
X6.4913Y-4.7669
X6.5913Y-4.0583
X6.5913Y-4.7669
X6.6913Y-4.0583
X6.6913Y-4.7669
T6
X5.0217Y-4.8339
X5.0217Y-4.9339
X5.0217Y-5.0339
X5.0217Y-5.1339
X5.1217Y-4.8339
X5.1217Y-4.9339
X5.1217Y-5.0339
X5.1217Y-5.1339
X5.4909Y-4.126
X5.4909Y-4.5984
X5.6193Y-4.7378
X5.6209Y-4.8823
X5.6209Y-4.9823
X5.6835Y-3.989
X5.7193Y-4.7378
X5.7209Y-4.8823
X5.7209Y-4.9823
X5.7835Y-3.989
X5.8193Y-4.7378
X5.8209Y-4.8823
X5.8209Y-4.9823
X5.8835Y-3.989
X5.9193Y-4.7378
T7
X5.7331Y-4.1594
X5.7331Y-4.5594
T8
X5.0087Y-4.124
X5.0106Y-4.5984
X5.5677Y-4.3602
T2
X6.6707Y-4.2949G85X6.6451Y-4.2949
G05
X6.6707Y-4.5705G85X6.6451Y-4.5705
G05
T3
X6.5516Y-4.3402G85X6.5516Y-4.3283
G05
X6.5516Y-4.537G85X6.5516Y-4.5252
G05
T4
X6.9425Y-4.4386G85X6.9071Y-4.4386
G05
X6.9425Y-4.537G85X6.9071Y-4.537
G05
X6.9425Y-4.7339G85X6.9071Y-4.7339
G05
X6.9425Y-4.8323G85X6.9071Y-4.8323
G05
X6.9429Y-3.9319G85X6.9075Y-3.9319
G05
X6.9429Y-4.0303G85X6.9075Y-4.0303
G05
X6.9429Y-4.2272G85X6.9075Y-4.2272
G05
X6.9429Y-4.3256G85X6.9075Y-4.3256
G05
X6.9429Y-4.9449G85X6.9075Y-4.9449
G05
X6.9429Y-5.0433G85X6.9075Y-5.0433
G05
X6.9429Y-5.2402G85X6.9075Y-5.2402
G05
X6.9429Y-5.3386G85X6.9075Y-5.3386
G05
X7.1217Y-4.6177G85X7.1217Y-4.6531
G05
X7.122Y-4.111G85X7.122Y-4.1465
G05
X7.122Y-5.124G85X7.122Y-5.1594
G05
T0
M30
