G04 #@! TF.FileFunction,Soldermask,Bot*
%FSLAX46Y46*%
G04 Gerber Fmt 4.6, Leading zero omitted, Abs format (unit mm)*
G04 Created by KiCad (PCBNEW 4.0.6) date 08/24/17 17:14:55*
%MOMM*%
%LPD*%
G01*
G04 APERTURE LIST*
%ADD10C,0.100000*%
%ADD11C,1.924000*%
%ADD12R,2.400000X4.200000*%
%ADD13R,2.400000X1.900000*%
%ADD14O,1.350000X1.650000*%
%ADD15O,1.950000X1.400000*%
%ADD16R,1.924000X2.432000*%
%ADD17R,2.100000X2.100000*%
%ADD18O,2.100000X2.100000*%
%ADD19R,2.600000X2.600000*%
%ADD20O,2.600000X2.600000*%
%ADD21C,2.900000*%
%ADD22C,3.400000*%
%ADD23R,2.400000X1.400000*%
%ADD24C,1.600000*%
%ADD25O,2.400000X1.400000*%
%ADD26O,1.400000X2.400000*%
G04 APERTURE END LIST*
D10*
D11*
X169960000Y-121080000D03*
X167420000Y-121080000D03*
X164880000Y-121080000D03*
X162340000Y-121080000D03*
X159800000Y-121080000D03*
X157260000Y-121080000D03*
X154720000Y-121080000D03*
X152180000Y-121080000D03*
X152180000Y-103080000D03*
X154720000Y-103080000D03*
X157260000Y-103080000D03*
X159800000Y-103080000D03*
X162340000Y-103080000D03*
X164880000Y-103080000D03*
X167420000Y-103080000D03*
X169960000Y-103080000D03*
D12*
X139430000Y-131150000D03*
D13*
X133130000Y-131150000D03*
X133130000Y-128850000D03*
X133130000Y-133450000D03*
D14*
X166410000Y-115090000D03*
X166410000Y-110090000D03*
D15*
X169110000Y-116090000D03*
X169110000Y-109090000D03*
D16*
X146311000Y-132990000D03*
X143009000Y-132990000D03*
D17*
X142770000Y-126550000D03*
D18*
X142770000Y-124010000D03*
X145310000Y-126550000D03*
X145310000Y-124010000D03*
X147850000Y-126550000D03*
X147850000Y-124010000D03*
D17*
X127550000Y-122780000D03*
D18*
X130090000Y-122780000D03*
X127550000Y-125320000D03*
X130090000Y-125320000D03*
X127550000Y-127860000D03*
X130090000Y-127860000D03*
X127550000Y-130400000D03*
X130090000Y-130400000D03*
D19*
X145620000Y-105650000D03*
D20*
X145620000Y-115810000D03*
D21*
X139470000Y-116800000D03*
D22*
X127270000Y-116800000D03*
X127220000Y-104750000D03*
D21*
X139470000Y-104800000D03*
D22*
X141420000Y-110750000D03*
D17*
X149440000Y-101320000D03*
D18*
X146900000Y-101320000D03*
X144360000Y-101320000D03*
D17*
X150350000Y-120340000D03*
D18*
X147810000Y-120340000D03*
X145270000Y-120340000D03*
X142730000Y-120340000D03*
D23*
X174400000Y-130600000D03*
X174400000Y-125600000D03*
X174400000Y-128100000D03*
X174400000Y-133100000D03*
D24*
X183400000Y-135600000D03*
X183400000Y-125600000D03*
X180900000Y-135600000D03*
X180900000Y-125600000D03*
X175900000Y-130600000D03*
D25*
X175900000Y-125600000D03*
X175900000Y-128100000D03*
X175900000Y-133100000D03*
X175900000Y-135600000D03*
D26*
X180900000Y-130600000D03*
D23*
X174400000Y-135600000D03*
X174400000Y-104870000D03*
X174400000Y-99870000D03*
X174400000Y-102370000D03*
X174400000Y-107370000D03*
D24*
X183400000Y-109870000D03*
X183400000Y-99870000D03*
X180900000Y-109870000D03*
X180900000Y-99870000D03*
X175900000Y-104870000D03*
D25*
X175900000Y-99870000D03*
X175900000Y-102370000D03*
X175900000Y-107370000D03*
X175900000Y-109870000D03*
D26*
X180900000Y-104870000D03*
D23*
X174400000Y-109870000D03*
X174390000Y-117740000D03*
X174390000Y-112740000D03*
X174390000Y-115240000D03*
X174390000Y-120240000D03*
D24*
X183390000Y-122740000D03*
X183390000Y-112740000D03*
X180890000Y-122740000D03*
X180890000Y-112740000D03*
X175890000Y-117740000D03*
D25*
X175890000Y-112740000D03*
X175890000Y-115240000D03*
X175890000Y-120240000D03*
X175890000Y-122740000D03*
D26*
X180890000Y-117740000D03*
D23*
X174390000Y-122740000D03*
M02*
