%FSLAX45Y45*%
G04 Gerber Fmt 4.5, Leading zero omitted, Abs format (unit mm)*
G04 Created by KiCad (PCBNEW 4.0.6) date 08/24/17 17:14:58*
%MOMM*%
%LPD*%
G01*
G04 APERTURE LIST*
%ADD10C,0.127000*%
%ADD11C,1.800000*%
%ADD12C,1.000000*%
%ADD13C,0.150000*%
%ADD14C,0.200000*%
%ADD15C,0.300000*%
G04 APERTURE END LIST*
D10*
D11*
X15404000Y-13204000D02*
X16605000Y-13204000D01*
D12*
X18448000Y-12418000D02*
X17187000Y-12418000D01*
X18448000Y-11131000D02*
X17187000Y-11131000D01*
D13*
X17180000Y-11173000D02*
X17180000Y-12374000D01*
X17181000Y-12460000D02*
X17181000Y-13661000D01*
X18440000Y-9887000D02*
X18440000Y-11087000D01*
X17182000Y-9886400D02*
X18439800Y-9886400D01*
X17182000Y-11087200D02*
X18439800Y-11087200D01*
X18439000Y-11173000D02*
X18439000Y-12374000D01*
X17180000Y-11173200D02*
X18438800Y-11173200D01*
X17180000Y-12374200D02*
X18438800Y-12374200D01*
X17182000Y-9886200D02*
X17182000Y-11087200D01*
X17130000Y-9887000D02*
X17130000Y-13661000D01*
X16600000Y-13283000D02*
X15399000Y-13283000D01*
X15399000Y-13123000D02*
X16600000Y-13123000D01*
X16600000Y-13123000D02*
X16600000Y-13283000D01*
X15399000Y-13123000D02*
X15399000Y-13283000D01*
X18439800Y-12460000D02*
X17180800Y-12460000D01*
X18439800Y-13642000D02*
X18439800Y-12460000D01*
X18439800Y-13661000D02*
X18439800Y-13642000D01*
X17180800Y-13661000D02*
X18439800Y-13661000D01*
X12128000Y-13661000D02*
X12128000Y-9886000D01*
X17130000Y-13661000D02*
X12130000Y-13661000D01*
X12129000Y-9886000D02*
X17129000Y-9886000D01*
D14*
X17529000Y-11714000D02*
X17649000Y-11834000D01*
X17649000Y-11714000D02*
X17529000Y-11834000D01*
X17530000Y-10427000D02*
X17650000Y-10547000D01*
X17650000Y-10427000D02*
X17530000Y-10547000D01*
X17530000Y-13000000D02*
X17650000Y-13120000D01*
X17650000Y-13000000D02*
X17530000Y-13120000D01*
X18029000Y-11214000D02*
X18149000Y-11334000D01*
X18149000Y-11214000D02*
X18029000Y-11334000D01*
X18029000Y-12214000D02*
X18149000Y-12334000D01*
X18149000Y-12214000D02*
X18029000Y-12334000D01*
X18030000Y-9927000D02*
X18150000Y-10047000D01*
X18150000Y-9927000D02*
X18030000Y-10047000D01*
X18030000Y-10927000D02*
X18150000Y-11047000D01*
X18150000Y-10927000D02*
X18030000Y-11047000D01*
X18030000Y-12500000D02*
X18150000Y-12620000D01*
X18150000Y-12500000D02*
X18030000Y-12620000D01*
X18030000Y-13500000D02*
X18150000Y-13620000D01*
X18150000Y-13500000D02*
X18030000Y-13620000D01*
X18279000Y-11214000D02*
X18399000Y-11334000D01*
X18399000Y-11214000D02*
X18279000Y-11334000D01*
X18279000Y-12214000D02*
X18399000Y-12334000D01*
X18399000Y-12214000D02*
X18279000Y-12334000D01*
X18280000Y-9927000D02*
X18400000Y-10047000D01*
X18400000Y-9927000D02*
X18280000Y-10047000D01*
X18280000Y-10927000D02*
X18400000Y-11047000D01*
X18400000Y-10927000D02*
X18280000Y-11047000D01*
X18280000Y-12500000D02*
X18400000Y-12620000D01*
X18400000Y-12500000D02*
X18280000Y-12620000D01*
X18280000Y-13500000D02*
X18400000Y-13620000D01*
X18400000Y-13500000D02*
X18280000Y-13620000D01*
D15*
X12391928Y-14134214D02*
X12391928Y-13834214D01*
X12463357Y-13834214D01*
X12506214Y-13848500D01*
X12534786Y-13877071D01*
X12549071Y-13905643D01*
X12563357Y-13962786D01*
X12563357Y-14005643D01*
X12549071Y-14062786D01*
X12534786Y-14091357D01*
X12506214Y-14119929D01*
X12463357Y-14134214D01*
X12391928Y-14134214D01*
X12691928Y-14134214D02*
X12691928Y-13934214D01*
X12691928Y-13991357D02*
X12706214Y-13962786D01*
X12720500Y-13948500D01*
X12749071Y-13934214D01*
X12777643Y-13934214D01*
X12877643Y-14134214D02*
X12877643Y-13934214D01*
X12877643Y-13834214D02*
X12863357Y-13848500D01*
X12877643Y-13862786D01*
X12891928Y-13848500D01*
X12877643Y-13834214D01*
X12877643Y-13862786D01*
X13063357Y-14134214D02*
X13034786Y-14119929D01*
X13020500Y-14091357D01*
X13020500Y-13834214D01*
X13220500Y-14134214D02*
X13191928Y-14119929D01*
X13177643Y-14091357D01*
X13177643Y-13834214D01*
X13563357Y-14134214D02*
X13563357Y-13834214D01*
X13663357Y-14048500D01*
X13763357Y-13834214D01*
X13763357Y-14134214D01*
X14034786Y-14134214D02*
X14034786Y-13977071D01*
X14020500Y-13948500D01*
X13991928Y-13934214D01*
X13934786Y-13934214D01*
X13906214Y-13948500D01*
X14034786Y-14119929D02*
X14006214Y-14134214D01*
X13934786Y-14134214D01*
X13906214Y-14119929D01*
X13891928Y-14091357D01*
X13891928Y-14062786D01*
X13906214Y-14034214D01*
X13934786Y-14019929D01*
X14006214Y-14019929D01*
X14034786Y-14005643D01*
X14177643Y-13934214D02*
X14177643Y-14234214D01*
X14177643Y-13948500D02*
X14206214Y-13934214D01*
X14263357Y-13934214D01*
X14291928Y-13948500D01*
X14306214Y-13962786D01*
X14320500Y-13991357D01*
X14320500Y-14077071D01*
X14306214Y-14105643D01*
X14291928Y-14119929D01*
X14263357Y-14134214D01*
X14206214Y-14134214D01*
X14177643Y-14119929D01*
X14449071Y-14105643D02*
X14463357Y-14119929D01*
X14449071Y-14134214D01*
X14434786Y-14119929D01*
X14449071Y-14105643D01*
X14449071Y-14134214D01*
X14449071Y-13948500D02*
X14463357Y-13962786D01*
X14449071Y-13977071D01*
X14434786Y-13962786D01*
X14449071Y-13948500D01*
X14449071Y-13977071D01*
X12000500Y-14568500D02*
X12120500Y-14688500D01*
X12120500Y-14568500D02*
X12000500Y-14688500D01*
X12549071Y-14764214D02*
X12377643Y-14764214D01*
X12463357Y-14764214D02*
X12463357Y-14464214D01*
X12434786Y-14507071D01*
X12406214Y-14535643D01*
X12377643Y-14549929D01*
X12677643Y-14735643D02*
X12691928Y-14749929D01*
X12677643Y-14764214D01*
X12663357Y-14749929D01*
X12677643Y-14735643D01*
X12677643Y-14764214D01*
X12806214Y-14492786D02*
X12820500Y-14478500D01*
X12849071Y-14464214D01*
X12920500Y-14464214D01*
X12949071Y-14478500D01*
X12963357Y-14492786D01*
X12977643Y-14521357D01*
X12977643Y-14549929D01*
X12963357Y-14592786D01*
X12791928Y-14764214D01*
X12977643Y-14764214D01*
X13163357Y-14464214D02*
X13191928Y-14464214D01*
X13220500Y-14478500D01*
X13234786Y-14492786D01*
X13249071Y-14521357D01*
X13263357Y-14578500D01*
X13263357Y-14649929D01*
X13249071Y-14707071D01*
X13234786Y-14735643D01*
X13220500Y-14749929D01*
X13191928Y-14764214D01*
X13163357Y-14764214D01*
X13134786Y-14749929D01*
X13120500Y-14735643D01*
X13106214Y-14707071D01*
X13091928Y-14649929D01*
X13091928Y-14578500D01*
X13106214Y-14521357D01*
X13120500Y-14492786D01*
X13134786Y-14478500D01*
X13163357Y-14464214D01*
X13391928Y-14764214D02*
X13391928Y-14564214D01*
X13391928Y-14592786D02*
X13406214Y-14578500D01*
X13434786Y-14564214D01*
X13477643Y-14564214D01*
X13506214Y-14578500D01*
X13520500Y-14607071D01*
X13520500Y-14764214D01*
X13520500Y-14607071D02*
X13534786Y-14578500D01*
X13563357Y-14564214D01*
X13606214Y-14564214D01*
X13634786Y-14578500D01*
X13649071Y-14607071D01*
X13649071Y-14764214D01*
X13791928Y-14764214D02*
X13791928Y-14564214D01*
X13791928Y-14592786D02*
X13806214Y-14578500D01*
X13834786Y-14564214D01*
X13877643Y-14564214D01*
X13906214Y-14578500D01*
X13920500Y-14607071D01*
X13920500Y-14764214D01*
X13920500Y-14607071D02*
X13934786Y-14578500D01*
X13963357Y-14564214D01*
X14006214Y-14564214D01*
X14034786Y-14578500D01*
X14049071Y-14607071D01*
X14049071Y-14764214D01*
X14634786Y-14449929D02*
X14377643Y-14835643D01*
X15020500Y-14464214D02*
X15049071Y-14464214D01*
X15077643Y-14478500D01*
X15091928Y-14492786D01*
X15106214Y-14521357D01*
X15120500Y-14578500D01*
X15120500Y-14649929D01*
X15106214Y-14707071D01*
X15091928Y-14735643D01*
X15077643Y-14749929D01*
X15049071Y-14764214D01*
X15020500Y-14764214D01*
X14991928Y-14749929D01*
X14977643Y-14735643D01*
X14963357Y-14707071D01*
X14949071Y-14649929D01*
X14949071Y-14578500D01*
X14963357Y-14521357D01*
X14977643Y-14492786D01*
X14991928Y-14478500D01*
X15020500Y-14464214D01*
X15249071Y-14735643D02*
X15263357Y-14749929D01*
X15249071Y-14764214D01*
X15234786Y-14749929D01*
X15249071Y-14735643D01*
X15249071Y-14764214D01*
X15449071Y-14464214D02*
X15477643Y-14464214D01*
X15506214Y-14478500D01*
X15520500Y-14492786D01*
X15534785Y-14521357D01*
X15549071Y-14578500D01*
X15549071Y-14649929D01*
X15534785Y-14707071D01*
X15520500Y-14735643D01*
X15506214Y-14749929D01*
X15477643Y-14764214D01*
X15449071Y-14764214D01*
X15420500Y-14749929D01*
X15406214Y-14735643D01*
X15391928Y-14707071D01*
X15377643Y-14649929D01*
X15377643Y-14578500D01*
X15391928Y-14521357D01*
X15406214Y-14492786D01*
X15420500Y-14478500D01*
X15449071Y-14464214D01*
X15806214Y-14564214D02*
X15806214Y-14764214D01*
X15734785Y-14449929D02*
X15663357Y-14664214D01*
X15849071Y-14664214D01*
X15934785Y-14464214D02*
X16134785Y-14464214D01*
X16006214Y-14764214D01*
X16234786Y-14464214D02*
X16234786Y-14521357D01*
X16349071Y-14464214D02*
X16349071Y-14521357D01*
X16791928Y-14878500D02*
X16777643Y-14864214D01*
X16749071Y-14821357D01*
X16734785Y-14792786D01*
X16720500Y-14749929D01*
X16706214Y-14678500D01*
X16706214Y-14621357D01*
X16720500Y-14549929D01*
X16734785Y-14507071D01*
X16749071Y-14478500D01*
X16777643Y-14435643D01*
X16791928Y-14421357D01*
X17063357Y-14764214D02*
X16891928Y-14764214D01*
X16977643Y-14764214D02*
X16977643Y-14464214D01*
X16949071Y-14507071D01*
X16920500Y-14535643D01*
X16891928Y-14549929D01*
X17334786Y-14464214D02*
X17191928Y-14464214D01*
X17177643Y-14607071D01*
X17191928Y-14592786D01*
X17220500Y-14578500D01*
X17291928Y-14578500D01*
X17320500Y-14592786D01*
X17334786Y-14607071D01*
X17349071Y-14635643D01*
X17349071Y-14707071D01*
X17334786Y-14735643D01*
X17320500Y-14749929D01*
X17291928Y-14764214D01*
X17220500Y-14764214D01*
X17191928Y-14749929D01*
X17177643Y-14735643D01*
X17706214Y-14764214D02*
X17706214Y-14464214D01*
X17834786Y-14764214D02*
X17834786Y-14607071D01*
X17820500Y-14578500D01*
X17791928Y-14564214D01*
X17749071Y-14564214D01*
X17720500Y-14578500D01*
X17706214Y-14592786D01*
X18020500Y-14764214D02*
X17991928Y-14749929D01*
X17977643Y-14735643D01*
X17963357Y-14707071D01*
X17963357Y-14621357D01*
X17977643Y-14592786D01*
X17991928Y-14578500D01*
X18020500Y-14564214D01*
X18063357Y-14564214D01*
X18091928Y-14578500D01*
X18106214Y-14592786D01*
X18120500Y-14621357D01*
X18120500Y-14707071D01*
X18106214Y-14735643D01*
X18091928Y-14749929D01*
X18063357Y-14764214D01*
X18020500Y-14764214D01*
X18291928Y-14764214D02*
X18263357Y-14749929D01*
X18249071Y-14721357D01*
X18249071Y-14464214D01*
X18520500Y-14749929D02*
X18491929Y-14764214D01*
X18434786Y-14764214D01*
X18406214Y-14749929D01*
X18391929Y-14721357D01*
X18391929Y-14607071D01*
X18406214Y-14578500D01*
X18434786Y-14564214D01*
X18491929Y-14564214D01*
X18520500Y-14578500D01*
X18534786Y-14607071D01*
X18534786Y-14635643D01*
X18391929Y-14664214D01*
X18649071Y-14749929D02*
X18677643Y-14764214D01*
X18734786Y-14764214D01*
X18763357Y-14749929D01*
X18777643Y-14721357D01*
X18777643Y-14707071D01*
X18763357Y-14678500D01*
X18734786Y-14664214D01*
X18691929Y-14664214D01*
X18663357Y-14649929D01*
X18649071Y-14621357D01*
X18649071Y-14607071D01*
X18663357Y-14578500D01*
X18691929Y-14564214D01*
X18734786Y-14564214D01*
X18763357Y-14578500D01*
X18877643Y-14878500D02*
X18891929Y-14864214D01*
X18920500Y-14821357D01*
X18934786Y-14792786D01*
X18949071Y-14749929D01*
X18963357Y-14678500D01*
X18963357Y-14621357D01*
X18949071Y-14549929D01*
X18934786Y-14507071D01*
X18920500Y-14478500D01*
X18891929Y-14435643D01*
X18877643Y-14421357D01*
X19420500Y-14878500D02*
X19406214Y-14864214D01*
X19377643Y-14821357D01*
X19363357Y-14792786D01*
X19349071Y-14749929D01*
X19334786Y-14678500D01*
X19334786Y-14621357D01*
X19349071Y-14549929D01*
X19363357Y-14507071D01*
X19377643Y-14478500D01*
X19406214Y-14435643D01*
X19420500Y-14421357D01*
X19534786Y-14564214D02*
X19534786Y-14764214D01*
X19534786Y-14592786D02*
X19549071Y-14578500D01*
X19577643Y-14564214D01*
X19620500Y-14564214D01*
X19649071Y-14578500D01*
X19663357Y-14607071D01*
X19663357Y-14764214D01*
X19849071Y-14764214D02*
X19820500Y-14749929D01*
X19806214Y-14735643D01*
X19791929Y-14707071D01*
X19791929Y-14621357D01*
X19806214Y-14592786D01*
X19820500Y-14578500D01*
X19849071Y-14564214D01*
X19891929Y-14564214D01*
X19920500Y-14578500D01*
X19934786Y-14592786D01*
X19949071Y-14621357D01*
X19949071Y-14707071D01*
X19934786Y-14735643D01*
X19920500Y-14749929D01*
X19891929Y-14764214D01*
X19849071Y-14764214D01*
X20034786Y-14564214D02*
X20149071Y-14564214D01*
X20077643Y-14464214D02*
X20077643Y-14721357D01*
X20091929Y-14749929D01*
X20120500Y-14764214D01*
X20149071Y-14764214D01*
X20477643Y-14564214D02*
X20477643Y-14864214D01*
X20477643Y-14578500D02*
X20506214Y-14564214D01*
X20563357Y-14564214D01*
X20591929Y-14578500D01*
X20606214Y-14592786D01*
X20620500Y-14621357D01*
X20620500Y-14707071D01*
X20606214Y-14735643D01*
X20591929Y-14749929D01*
X20563357Y-14764214D01*
X20506214Y-14764214D01*
X20477643Y-14749929D01*
X20791929Y-14764214D02*
X20763357Y-14749929D01*
X20749071Y-14721357D01*
X20749071Y-14464214D01*
X21034786Y-14764214D02*
X21034786Y-14607071D01*
X21020500Y-14578500D01*
X20991929Y-14564214D01*
X20934786Y-14564214D01*
X20906214Y-14578500D01*
X21034786Y-14749929D02*
X21006214Y-14764214D01*
X20934786Y-14764214D01*
X20906214Y-14749929D01*
X20891929Y-14721357D01*
X20891929Y-14692786D01*
X20906214Y-14664214D01*
X20934786Y-14649929D01*
X21006214Y-14649929D01*
X21034786Y-14635643D01*
X21134786Y-14564214D02*
X21249071Y-14564214D01*
X21177643Y-14464214D02*
X21177643Y-14721357D01*
X21191929Y-14749929D01*
X21220500Y-14764214D01*
X21249071Y-14764214D01*
X21463357Y-14749929D02*
X21434786Y-14764214D01*
X21377643Y-14764214D01*
X21349072Y-14749929D01*
X21334786Y-14721357D01*
X21334786Y-14607071D01*
X21349072Y-14578500D01*
X21377643Y-14564214D01*
X21434786Y-14564214D01*
X21463357Y-14578500D01*
X21477643Y-14607071D01*
X21477643Y-14635643D01*
X21334786Y-14664214D01*
X21734786Y-14764214D02*
X21734786Y-14464214D01*
X21734786Y-14749929D02*
X21706214Y-14764214D01*
X21649072Y-14764214D01*
X21620500Y-14749929D01*
X21606214Y-14735643D01*
X21591929Y-14707071D01*
X21591929Y-14621357D01*
X21606214Y-14592786D01*
X21620500Y-14578500D01*
X21649072Y-14564214D01*
X21706214Y-14564214D01*
X21734786Y-14578500D01*
X21849072Y-14878500D02*
X21863357Y-14864214D01*
X21891929Y-14821357D01*
X21906214Y-14792786D01*
X21920500Y-14749929D01*
X21934786Y-14678500D01*
X21934786Y-14621357D01*
X21920500Y-14549929D01*
X21906214Y-14507071D01*
X21891929Y-14478500D01*
X21863357Y-14435643D01*
X21849072Y-14421357D01*
M02*
