G04 #@! TF.FileFunction,Copper,L1,Top,Signal*
%FSLAX46Y46*%
G04 Gerber Fmt 4.6, Leading zero omitted, Abs format (unit mm)*
G04 Created by KiCad (PCBNEW 4.0.6) date 08/24/17 17:14:55*
%MOMM*%
%LPD*%
G01*
G04 APERTURE LIST*
%ADD10C,0.100000*%
%ADD11C,0.300000*%
%ADD12C,1.524000*%
%ADD13R,0.550000X1.600000*%
%ADD14R,1.600000X0.550000*%
%ADD15R,1.350000X0.400000*%
%ADD16O,0.950000X1.250000*%
%ADD17O,1.550000X1.000000*%
%ADD18R,2.032000X1.524000*%
%ADD19R,1.524000X2.032000*%
%ADD20R,1.700000X1.700000*%
%ADD21O,1.700000X1.700000*%
%ADD22R,2.200000X2.200000*%
%ADD23O,2.200000X2.200000*%
%ADD24C,2.500000*%
%ADD25C,3.000000*%
%ADD26R,0.900000X0.800000*%
%ADD27R,1.500000X1.000000*%
%ADD28R,1.000000X1.500000*%
%ADD29O,2.000000X1.000000*%
%ADD30O,1.000000X2.000000*%
%ADD31R,1.000000X2.000000*%
%ADD32C,0.600000*%
%ADD33C,0.350000*%
%ADD34C,0.250000*%
G04 APERTURE END LIST*
D10*
D11*
X123018750Y-134118571D02*
X123590179Y-134118571D01*
X123108036Y-135118571D02*
X123268750Y-133832857D01*
X123358035Y-133690000D01*
X123509822Y-133618571D01*
X123652679Y-133618571D01*
X124608036Y-135118571D02*
X124706250Y-134332857D01*
X124652678Y-134190000D01*
X124518750Y-134118571D01*
X124233036Y-134118571D01*
X124081250Y-134190000D01*
X124616964Y-135047143D02*
X124465179Y-135118571D01*
X124108036Y-135118571D01*
X123974107Y-135047143D01*
X123920535Y-134904286D01*
X123938392Y-134761429D01*
X124027679Y-134618571D01*
X124179464Y-134547143D01*
X124536607Y-134547143D01*
X124688393Y-134475714D01*
X125322322Y-135118571D02*
X125447322Y-134118571D01*
X125509822Y-133618571D02*
X125429464Y-133690000D01*
X125491964Y-133761429D01*
X125572321Y-133690000D01*
X125509822Y-133618571D01*
X125491964Y-133761429D01*
X126036608Y-135118571D02*
X126161608Y-134118571D01*
X126125893Y-134404286D02*
X126215178Y-134261429D01*
X126295536Y-134190000D01*
X126447322Y-134118571D01*
X126590179Y-134118571D01*
X127179465Y-135118571D02*
X127045535Y-135047143D01*
X126991964Y-134904286D01*
X127152679Y-133618571D01*
X127750893Y-135118571D02*
X127875893Y-134118571D01*
X127938393Y-133618571D02*
X127858035Y-133690000D01*
X127920535Y-133761429D01*
X128000892Y-133690000D01*
X127938393Y-133618571D01*
X127920535Y-133761429D01*
X128590179Y-134118571D02*
X128465179Y-135118571D01*
X128572321Y-134261429D02*
X128652678Y-134190000D01*
X128804465Y-134118571D01*
X129018750Y-134118571D01*
X129152678Y-134190000D01*
X129206250Y-134332857D01*
X129108036Y-135118571D01*
X129679465Y-135118571D02*
X130590179Y-134118571D01*
X129804465Y-134118571D02*
X130465179Y-135118571D01*
D12*
X169960000Y-121080000D03*
X167420000Y-121080000D03*
X164880000Y-121080000D03*
X162340000Y-121080000D03*
X159800000Y-121080000D03*
X157260000Y-121080000D03*
X154720000Y-121080000D03*
X152180000Y-121080000D03*
X152180000Y-103080000D03*
X154720000Y-103080000D03*
X157260000Y-103080000D03*
X159800000Y-103080000D03*
X162340000Y-103080000D03*
X164880000Y-103080000D03*
X167420000Y-103080000D03*
X169960000Y-103080000D03*
D13*
X153570000Y-115720000D03*
X154370000Y-115720000D03*
X155170000Y-115720000D03*
X155970000Y-115720000D03*
X156770000Y-115720000D03*
X157570000Y-115720000D03*
X158370000Y-115720000D03*
X159170000Y-115720000D03*
D14*
X160620000Y-114270000D03*
X160620000Y-113470000D03*
X160620000Y-112670000D03*
X160620000Y-111870000D03*
X160620000Y-111070000D03*
X160620000Y-110270000D03*
X160620000Y-109470000D03*
X160620000Y-108670000D03*
D13*
X159170000Y-107220000D03*
X158370000Y-107220000D03*
X157570000Y-107220000D03*
X156770000Y-107220000D03*
X155970000Y-107220000D03*
X155170000Y-107220000D03*
X154370000Y-107220000D03*
X153570000Y-107220000D03*
D14*
X152120000Y-108670000D03*
X152120000Y-109470000D03*
X152120000Y-110270000D03*
X152120000Y-111070000D03*
X152120000Y-111870000D03*
X152120000Y-112670000D03*
X152120000Y-113470000D03*
X152120000Y-114270000D03*
D15*
X166410000Y-113890000D03*
X166410000Y-113240000D03*
X166410000Y-112590000D03*
X166410000Y-111940000D03*
X166410000Y-111290000D03*
D16*
X166410000Y-115090000D03*
X166410000Y-110090000D03*
D17*
X169110000Y-116090000D03*
X169110000Y-109090000D03*
D18*
X163540000Y-117211000D03*
X163540000Y-113909000D03*
D19*
X139539000Y-133020000D03*
X142841000Y-133020000D03*
D18*
X136370000Y-128869000D03*
X136370000Y-132171000D03*
D19*
X146311000Y-129940000D03*
X143009000Y-129940000D03*
D20*
X142770000Y-126550000D03*
D21*
X142770000Y-124010000D03*
X145310000Y-126550000D03*
X145310000Y-124010000D03*
X147850000Y-126550000D03*
X147850000Y-124010000D03*
D20*
X127550000Y-122780000D03*
D21*
X130090000Y-122780000D03*
X127550000Y-125320000D03*
X130090000Y-125320000D03*
X127550000Y-127860000D03*
X130090000Y-127860000D03*
X127550000Y-130400000D03*
X130090000Y-130400000D03*
D18*
X149280000Y-116791000D03*
X149280000Y-113489000D03*
D19*
X132359000Y-105790000D03*
X135661000Y-105790000D03*
D22*
X145620000Y-105650000D03*
D23*
X145620000Y-115810000D03*
D24*
X139470000Y-116800000D03*
D25*
X127270000Y-116800000D03*
X127220000Y-104750000D03*
D24*
X139470000Y-104800000D03*
D25*
X141420000Y-110750000D03*
D26*
X134860000Y-109540000D03*
X134860000Y-111440000D03*
X136860000Y-110490000D03*
D27*
X133430000Y-129360000D03*
X133430000Y-127860000D03*
X133430000Y-126360000D03*
D18*
X149090000Y-108901000D03*
X149090000Y-105599000D03*
D28*
X156370000Y-124240000D03*
X154870000Y-124240000D03*
X153370000Y-124240000D03*
X161310000Y-124160000D03*
X159810000Y-124160000D03*
X158310000Y-124160000D03*
X161600000Y-117790000D03*
X160100000Y-117790000D03*
X158600000Y-117790000D03*
D20*
X149440000Y-101320000D03*
D21*
X146900000Y-101320000D03*
X144360000Y-101320000D03*
D20*
X150350000Y-120340000D03*
D21*
X147810000Y-120340000D03*
X145270000Y-120340000D03*
X142730000Y-120340000D03*
D29*
X175900000Y-125600000D03*
X175900000Y-128100000D03*
X175900000Y-133100000D03*
X175900000Y-135600000D03*
D30*
X180900000Y-130600000D03*
D31*
X159990000Y-133870000D03*
X154990000Y-133870000D03*
X164990000Y-133870000D03*
X157490000Y-133870000D03*
X162490000Y-133870000D03*
D29*
X175900000Y-99870000D03*
X175900000Y-102370000D03*
X175900000Y-107370000D03*
X175900000Y-109870000D03*
D30*
X180900000Y-104870000D03*
D29*
X175890000Y-112740000D03*
X175890000Y-115240000D03*
X175890000Y-120240000D03*
X175890000Y-122740000D03*
D30*
X180890000Y-117740000D03*
D32*
X156980000Y-119240000D03*
X141240000Y-131490000D03*
X130210000Y-107250000D03*
X156840000Y-113040000D03*
X160000000Y-135570000D03*
X136360000Y-134120000D03*
X136410000Y-130280000D03*
X158590000Y-113360000D03*
X149010000Y-129950000D03*
X150320000Y-125140000D03*
X156720000Y-117400000D03*
X151070000Y-104600000D03*
X155980000Y-119150000D03*
X160840000Y-116210000D03*
X148330000Y-132890000D03*
X133600000Y-115150000D03*
X149140000Y-107230000D03*
X153640000Y-110350000D03*
X148540000Y-111930000D03*
X157700000Y-110700000D03*
X166070000Y-117650000D03*
X151150000Y-130760000D03*
X153620000Y-130440000D03*
X157250000Y-127290000D03*
X162020000Y-128480000D03*
X150910000Y-128420000D03*
X133490000Y-116590000D03*
X134100000Y-117140000D03*
X129130000Y-108000000D03*
X134030000Y-107800000D03*
X148560000Y-103390000D03*
X153240000Y-105480000D03*
X137040000Y-112640000D03*
X150160000Y-118350000D03*
X164420000Y-123520000D03*
X137630000Y-107490000D03*
X158350000Y-111870000D03*
X154500000Y-110310000D03*
X151690000Y-129530000D03*
X151310000Y-123070000D03*
X163620000Y-111110000D03*
X156700000Y-108860000D03*
X153820000Y-113480000D03*
X151100000Y-115660000D03*
X156390000Y-126280000D03*
D33*
X130630000Y-135730000D02*
X130680000Y-135730000D01*
X130080000Y-135740000D02*
X130170000Y-135740000D01*
X129340000Y-135740000D02*
X129690000Y-135740000D01*
X128080000Y-135740000D02*
X128990000Y-135740000D01*
X122860000Y-135740000D02*
X127700000Y-135740000D01*
X156980000Y-119240000D02*
X158430000Y-117790000D01*
X158430000Y-117790000D02*
X158600000Y-117790000D01*
X139539000Y-133020000D02*
X139710000Y-133020000D01*
X139710000Y-133020000D02*
X141240000Y-131490000D01*
X169070000Y-109070000D02*
X169070000Y-116070000D01*
X131280000Y-111440000D02*
X130660000Y-111440000D01*
X134860000Y-111440000D02*
X131280000Y-111440000D01*
X130660000Y-111440000D02*
X130190000Y-110970000D01*
X140920000Y-120340000D02*
X133670000Y-120340000D01*
X133670000Y-120340000D02*
X130190000Y-116860000D01*
X130190000Y-116860000D02*
X130190000Y-110970000D01*
X130190000Y-110970000D02*
X130190000Y-110350000D01*
X130190000Y-107270000D02*
X130190000Y-110350000D01*
X130210000Y-107250000D02*
X130190000Y-107270000D01*
X134860000Y-111440000D02*
X131670000Y-111440000D01*
X143009000Y-129940000D02*
X140930000Y-129940000D01*
X140930000Y-129940000D02*
X139070000Y-128080000D01*
X139070000Y-128080000D02*
X139070000Y-123510000D01*
X140920000Y-120340000D02*
X142730000Y-120340000D01*
X139070000Y-123510000D02*
X139070000Y-122190000D01*
X139070000Y-122190000D02*
X140920000Y-120340000D01*
X155170000Y-115720000D02*
X155170000Y-120630000D01*
X155170000Y-120630000D02*
X154720000Y-121080000D01*
X155170000Y-115720000D02*
X155170000Y-113550000D01*
X155680000Y-113040000D02*
X156840000Y-113040000D01*
X155170000Y-113550000D02*
X155680000Y-113040000D01*
X156770000Y-113110000D02*
X156770000Y-115720000D01*
X156840000Y-113040000D02*
X156770000Y-113110000D01*
X159990000Y-133870000D02*
X159990000Y-135560000D01*
X159990000Y-135560000D02*
X160000000Y-135570000D01*
X143009000Y-129940000D02*
X143009000Y-132852000D01*
X143009000Y-132852000D02*
X142841000Y-133020000D01*
X136370000Y-134110000D02*
X136370000Y-132171000D01*
X136360000Y-134120000D02*
X136370000Y-134110000D01*
X166370000Y-110070000D02*
X166370000Y-111270000D01*
X136370000Y-130240000D02*
X136370000Y-128869000D01*
X136410000Y-130280000D02*
X136370000Y-130240000D01*
X157570000Y-114380000D02*
X157570000Y-115720000D01*
X158590000Y-113360000D02*
X157570000Y-114380000D01*
X150350000Y-120340000D02*
X150350000Y-125110000D01*
X149000000Y-129940000D02*
X146311000Y-129940000D01*
X149010000Y-129950000D02*
X149000000Y-129940000D01*
X150350000Y-125110000D02*
X150320000Y-125140000D01*
X156740000Y-117420000D02*
X156740000Y-117450000D01*
X156720000Y-117400000D02*
X156740000Y-117420000D01*
X151070000Y-104600000D02*
X150071000Y-105599000D01*
X150071000Y-105599000D02*
X149090000Y-105599000D01*
X156740000Y-117450000D02*
X156780000Y-118340000D01*
X156780000Y-118340000D02*
X155980000Y-119150000D01*
X155970000Y-115720000D02*
X155970000Y-116920000D01*
X155970000Y-116920000D02*
X156740000Y-117450000D01*
X157570000Y-115720000D02*
X157570000Y-116940000D01*
X157570000Y-116940000D02*
X156740000Y-117450000D01*
X160100000Y-117790000D02*
X160100000Y-116950000D01*
X160100000Y-116950000D02*
X160840000Y-116210000D01*
X146311000Y-129940000D02*
X149040000Y-129940000D01*
X139470000Y-104800000D02*
X144770000Y-104800000D01*
X144770000Y-104800000D02*
X145620000Y-105650000D01*
X149090000Y-105599000D02*
X145671000Y-105599000D01*
X145671000Y-105599000D02*
X145620000Y-105650000D01*
X149440000Y-101320000D02*
X149440000Y-105249000D01*
X149440000Y-105249000D02*
X149090000Y-105599000D01*
X148330000Y-132890000D02*
X148290000Y-132850000D01*
X148290000Y-132850000D02*
X148290000Y-131919000D01*
X148290000Y-131919000D02*
X146311000Y-129940000D01*
X161600000Y-117790000D02*
X162961000Y-117790000D01*
X162961000Y-117790000D02*
X163540000Y-117211000D01*
X166370000Y-113870000D02*
X163579000Y-113870000D01*
X163579000Y-113870000D02*
X163540000Y-113909000D01*
X135160000Y-113570000D02*
X133600000Y-115150000D01*
X135600000Y-113570000D02*
X135160000Y-113570000D01*
X139600000Y-113160000D02*
X138810000Y-113160000D01*
D34*
X138400000Y-113570000D02*
X135600000Y-113570000D01*
D33*
X135600000Y-113570000D02*
X135430000Y-113570000D01*
D34*
X138810000Y-113160000D02*
X138400000Y-113570000D01*
D33*
X152120000Y-111870000D02*
X153360000Y-111870000D01*
X149140000Y-107230000D02*
X149090000Y-107280000D01*
X149090000Y-107280000D02*
X149090000Y-108901000D01*
X153650000Y-110360000D02*
X153640000Y-110350000D01*
X153650000Y-111580000D02*
X153650000Y-110360000D01*
X153360000Y-111870000D02*
X153650000Y-111580000D01*
X149090000Y-108901000D02*
X146539000Y-108901000D01*
X142280000Y-113160000D02*
X139600000Y-113160000D01*
X146539000Y-108901000D02*
X142280000Y-113160000D01*
X148540000Y-111930000D02*
X147610000Y-111930000D01*
X144670000Y-118200000D02*
X143990000Y-118880000D01*
X146340000Y-118200000D02*
X144670000Y-118200000D01*
X147330000Y-117210000D02*
X146340000Y-118200000D01*
X147330000Y-112210000D02*
X147330000Y-117210000D01*
X147610000Y-111930000D02*
X147330000Y-112210000D01*
X159170000Y-107220000D02*
X159170000Y-109950000D01*
X143990000Y-122790000D02*
X142770000Y-124010000D01*
X143990000Y-118880000D02*
X143990000Y-122790000D01*
X148540000Y-111930000D02*
X148520000Y-111910000D01*
X158420000Y-110700000D02*
X157700000Y-110700000D01*
X159170000Y-109950000D02*
X158420000Y-110700000D01*
X163780000Y-109470000D02*
X164630000Y-108620000D01*
X164630000Y-108620000D02*
X166730000Y-108620000D01*
X166730000Y-108620000D02*
X167960000Y-109850000D01*
D34*
X167960000Y-109850000D02*
X167960000Y-116180000D01*
X167960000Y-116180000D02*
X166070000Y-117650000D01*
D33*
X160620000Y-109470000D02*
X163780000Y-109470000D01*
X146930000Y-128170000D02*
X145310000Y-126550000D01*
X148560000Y-128170000D02*
X146930000Y-128170000D01*
X151150000Y-130760000D02*
X148560000Y-128170000D01*
X154100000Y-130440000D02*
X153620000Y-130440000D01*
X157250000Y-127290000D02*
X154100000Y-130440000D01*
X170410000Y-108410000D02*
X170410000Y-116330000D01*
X169120000Y-107120000D02*
X170410000Y-108410000D01*
X161920000Y-107120000D02*
X169120000Y-107120000D01*
X160620000Y-108420000D02*
X161920000Y-107120000D01*
X162040000Y-128460000D02*
X162020000Y-128480000D01*
X150910000Y-128420000D02*
X149040000Y-126550000D01*
X149040000Y-126550000D02*
X147850000Y-126550000D01*
X168680000Y-127160000D02*
X167380000Y-128460000D01*
X168680000Y-118060000D02*
X168680000Y-127160000D01*
X170410000Y-116330000D02*
X168680000Y-118060000D01*
X167380000Y-128460000D02*
X162040000Y-128460000D01*
X160620000Y-108670000D02*
X160620000Y-108420000D01*
X152120000Y-110270000D02*
X146110000Y-110270000D01*
D34*
X136050000Y-114030000D02*
X133490000Y-116590000D01*
X142350000Y-114030000D02*
X136050000Y-114030000D01*
D33*
X146110000Y-110270000D02*
X142350000Y-114030000D01*
X152120000Y-111070000D02*
X146170000Y-111070000D01*
X136570000Y-114670000D02*
X134100000Y-117140000D01*
X142570000Y-114670000D02*
X136570000Y-114670000D01*
X146170000Y-111070000D02*
X142570000Y-114670000D01*
X154370000Y-107220000D02*
X154370000Y-104770000D01*
X125070000Y-125320000D02*
X127550000Y-125320000D01*
X123800000Y-124050000D02*
X125070000Y-125320000D01*
X123800000Y-111850000D02*
X123800000Y-124050000D01*
X136000000Y-99650000D02*
X123800000Y-111850000D01*
X152580000Y-99650000D02*
X136000000Y-99650000D01*
X153450000Y-100520000D02*
X152580000Y-99650000D01*
X153450000Y-103850000D02*
X153450000Y-100520000D01*
X154370000Y-104770000D02*
X153450000Y-103850000D01*
X153570000Y-107220000D02*
X153570000Y-105810000D01*
X128810000Y-124040000D02*
X130090000Y-125320000D01*
X125380000Y-124040000D02*
X128810000Y-124040000D01*
X124660000Y-123320000D02*
X125380000Y-124040000D01*
X124660000Y-112470000D02*
X124660000Y-123320000D01*
X129130000Y-108000000D02*
X124660000Y-112470000D01*
X134030000Y-104080000D02*
X134030000Y-107800000D01*
X135860000Y-102250000D02*
X134030000Y-104080000D01*
X141280000Y-102250000D02*
X135860000Y-102250000D01*
X142420000Y-103390000D02*
X141280000Y-102250000D01*
X148560000Y-103390000D02*
X142420000Y-103390000D01*
X153570000Y-105810000D02*
X153240000Y-105480000D01*
X130090000Y-127860000D02*
X133430000Y-127860000D01*
X136860000Y-112460000D02*
X136860000Y-110490000D01*
X137040000Y-112640000D02*
X136860000Y-112460000D01*
X145620000Y-115810000D02*
X140460000Y-115810000D01*
X140460000Y-115810000D02*
X139470000Y-116800000D01*
X148601000Y-116791000D02*
X150160000Y-118350000D01*
X167420000Y-122990000D02*
X167420000Y-121080000D01*
X166900000Y-123510000D02*
X167420000Y-122990000D01*
X164430000Y-123510000D02*
X166900000Y-123510000D01*
X164420000Y-123520000D02*
X164430000Y-123510000D01*
X148570000Y-116791000D02*
X148601000Y-116791000D01*
X149010000Y-113489000D02*
X152101000Y-113489000D01*
X152101000Y-113489000D02*
X152120000Y-113470000D01*
X135930000Y-105790000D02*
X137630000Y-107490000D01*
X158350000Y-111870000D02*
X158360000Y-111870000D01*
X158360000Y-111870000D02*
X160620000Y-111870000D01*
X135930000Y-105790000D02*
X135661000Y-105790000D01*
X154500000Y-110310000D02*
X154500000Y-113850000D01*
X154370000Y-113980000D02*
X153570000Y-114780000D01*
X153570000Y-114780000D02*
X153570000Y-115720000D01*
X154500000Y-113850000D02*
X154370000Y-113980000D01*
X154500000Y-110310000D02*
X154370000Y-110440000D01*
X151310000Y-123070000D02*
X151310000Y-123150000D01*
X151690000Y-123530000D02*
X151690000Y-129530000D01*
X151310000Y-123150000D02*
X151690000Y-123530000D01*
X160620000Y-111070000D02*
X163580000Y-111070000D01*
X163580000Y-111070000D02*
X163620000Y-111110000D01*
X157570000Y-107220000D02*
X157570000Y-106030000D01*
X169960000Y-104140000D02*
X169960000Y-103080000D01*
X169000000Y-105100000D02*
X169960000Y-104140000D01*
X158500000Y-105100000D02*
X169000000Y-105100000D01*
X157570000Y-106030000D02*
X158500000Y-105100000D01*
X152120000Y-108670000D02*
X152120000Y-103140000D01*
X152120000Y-103140000D02*
X152180000Y-103080000D01*
X152120000Y-109470000D02*
X156090000Y-109470000D01*
X156090000Y-109470000D02*
X156700000Y-108860000D01*
X152120000Y-112670000D02*
X153010000Y-112670000D01*
X153010000Y-112670000D02*
X153820000Y-113480000D01*
X152120000Y-114640000D02*
X152120000Y-114270000D01*
X151100000Y-115660000D02*
X152120000Y-114640000D01*
X162340000Y-121080000D02*
X162340000Y-122910000D01*
X162340000Y-122910000D02*
X161310000Y-123940000D01*
X161310000Y-123940000D02*
X161310000Y-124160000D01*
X156370000Y-126260000D02*
X156370000Y-124240000D01*
X156390000Y-126280000D02*
X156370000Y-126260000D01*
X157260000Y-121080000D02*
X157260000Y-121690000D01*
X157260000Y-121690000D02*
X158310000Y-122740000D01*
X158310000Y-122740000D02*
X158310000Y-124160000D01*
X152180000Y-121080000D02*
X152180000Y-123050000D01*
X152180000Y-123050000D02*
X153370000Y-124240000D01*
X159810000Y-124160000D02*
X159810000Y-127820000D01*
X167270000Y-133870000D02*
X164990000Y-133870000D01*
X167890000Y-133250000D02*
X167270000Y-133870000D01*
X167890000Y-130750000D02*
X167890000Y-133250000D01*
X166840000Y-129700000D02*
X167890000Y-130750000D01*
X161690000Y-129700000D02*
X166840000Y-129700000D01*
X159810000Y-127820000D02*
X161690000Y-129700000D01*
X154990000Y-133870000D02*
X153370000Y-133870000D01*
X154870000Y-125730000D02*
X154870000Y-124240000D01*
X152520000Y-128080000D02*
X154870000Y-125730000D01*
X152520000Y-133020000D02*
X152520000Y-128080000D01*
X153370000Y-133870000D02*
X152520000Y-133020000D01*
X133430000Y-129360000D02*
X133430000Y-130480000D01*
X133430000Y-130480000D02*
X131220000Y-132690000D01*
X131220000Y-132690000D02*
X125410000Y-132690000D01*
X125410000Y-132690000D02*
X122650000Y-129930000D01*
X122650000Y-129930000D02*
X122650000Y-109320000D01*
X122650000Y-109320000D02*
X127220000Y-104750000D01*
X133430000Y-126360000D02*
X133430000Y-121030000D01*
X129200000Y-116800000D02*
X127270000Y-116800000D01*
X133430000Y-121030000D02*
X129200000Y-116800000D01*
X134860000Y-109540000D02*
X133580000Y-109540000D01*
X132359000Y-108319000D02*
X132359000Y-105790000D01*
X133580000Y-109540000D02*
X132359000Y-108319000D01*
M02*
